<svg xmlns="http://www.w3.org/2000/svg" width="268.849" height="257.272" viewBox="0 0 268.849 257.272">
  <g id="Questions-pana" transform="translate(0)">
    <g id="freepik--background-simple--inject-141" transform="translate(1.102)">
      <path id="Path_53740" data-name="Path 53740" d="M48.51,78.685c14.382-21.451,38.786-36.7,64.6-37.1S165.039,57.179,173.734,81.5c4.262,11.849,4.378,24.733,6.868,37.069s8.263,25.178,19.551,30.749c15.3,7.538,33.428-1.078,50.453-.262,19.271.919,36.771,15.009,43.542,33.063s3.489,39.121-6.85,55.409-27.144,27.924-45.478,33.933-61.54,9.5-80.66,6.935h0a110.3,110.3,0,0,1-26.615-4.4c-26.292-7.812-47.694-20.94-65.486-39.4a138.157,138.157,0,0,1-37.4-81.853C29.208,127.043,34.134,100.136,48.51,78.685Z" transform="translate(-31.059 -41.578)" fill="#ebebeb"/>
    </g>
    <g id="freepik--Floor--inject-141" transform="translate(0 256.91)">
      <path id="Path_53741" data-name="Path 53741" d="M29.23,463.668c0,.091,60.189.158,134.418.158s134.431-.067,134.431-.158-60.177-.158-134.431-.158S29.23,463.583,29.23,463.668Z" transform="translate(-29.23 -463.51)" fill="#263238"/>
    </g>
    <g id="freepik--Plant--inject-141" transform="translate(200.392 151.249)">
      <path id="Path_53742" data-name="Path 53742" d="M58.835,408.9c-.609-2.241.9-4.487,2.539-6.089s3.611-3.075,4.469-5.224c1.388-3.483-.475-7.989,1.888-10.893,1.394-1.7,3.891-2.277,5.127-4.1a9.274,9.274,0,0,0,1.114-3.258A33.075,33.075,0,0,1,82.21,363.92a28.752,28.752,0,0,1-3.233,14.857c-.956,1.827-2.137,3.6-2.436,5.644-.518,3.306,1.333,6.7.518,9.961-.932,3.714-5.1,6.2-5.3,10.028-.17,3.233,2.649,6.089,2.436,9.3a8.659,8.659,0,0,1-1.455,3.836c-2.5,4.159-6.174,7.021-11.739,6.929l-6.82.237Z" transform="translate(-28.988 -318.899)" fill="#efa00b"/>
      <g id="Group_18169" data-name="Group 18169" transform="translate(25.195 45.021)" opacity="0.3">
        <path id="Path_53743" data-name="Path 53743" d="M58.835,408.9c-.609-2.241.9-4.487,2.539-6.089s3.611-3.075,4.469-5.224c1.388-3.483-.475-7.989,1.888-10.893,1.394-1.7,3.891-2.277,5.127-4.1a9.274,9.274,0,0,0,1.114-3.258A33.075,33.075,0,0,1,82.21,363.92a28.752,28.752,0,0,1-3.233,14.857c-.956,1.827-2.137,3.6-2.436,5.644-.518,3.306,1.333,6.7.518,9.961-.932,3.714-5.1,6.2-5.3,10.028-.17,3.233,2.649,6.089,2.436,9.3a8.659,8.659,0,0,1-1.455,3.836c-2.5,4.159-6.174,7.021-11.739,6.929l-6.82.237Z" transform="translate(-54.183 -363.92)"/>
      </g>
      <path id="Path_53744" data-name="Path 53744" d="M120.806,409.8a5.479,5.479,0,0,1-1.881-.037,11.732,11.732,0,0,1-2.21-.56,9.469,9.469,0,0,1-2.74-1.5,3.787,3.787,0,0,1-1.126-1.5,7.105,7.105,0,0,1-.317-2.034,19.8,19.8,0,0,0-.164-2.2,5.961,5.961,0,0,0-.828-2.192c-.8-1.413-2.143-2.752-2.57-4.67a16.25,16.25,0,0,1,.183-5.973,12.859,12.859,0,0,0-.158-6.406c-.767-2.143-2.229-4.061-2.977-6.46s-.4-5.042-.554-7.617a10.047,10.047,0,0,0-.889-3.787c-.548-1.218-1.315-2.344-1.912-3.611-1.218-2.569-1.425-5.48-1.754-8.336-.164-1.437-.323-2.892-.487-4.354a21.641,21.641,0,0,0-.761-4.366,39.064,39.064,0,0,0-1.632-4.22,14.668,14.668,0,0,1-.792-2.2,22.192,22.192,0,0,1-.219-2.35A27.893,27.893,0,0,1,97.2,330.7c.183-1.571.469-3.13.639-4.707v-.274l.037-.311.274.134a10.534,10.534,0,0,1,3.653,3.1,16.836,16.836,0,0,1,2.259,4.159,51.022,51.022,0,0,1,2.119,8.926,24.607,24.607,0,0,0,2.8,8.244c.749,1.218,1.656,2.326,2.436,3.507a9.608,9.608,0,0,1,1.693,3.885c.408,2.886-1.181,5.419-.852,7.976a8.823,8.823,0,0,0,1.218,3.538c.609,1.09,1.346,2.1,2.04,3.111a19.946,19.946,0,0,1,1.827,3.148,9.907,9.907,0,0,1,.84,3.416c.164,2.3-.158,4.481,0,6.539a15.07,15.07,0,0,0,1.687,5.608c.822,1.674,1.741,3.191,2.509,4.664.384.731.743,1.449,1.035,2.174a10.881,10.881,0,0,1,.609,2.155,13.518,13.518,0,0,1,.049,3.891,9.809,9.809,0,0,1-1.948,4.962,4.94,4.94,0,0,1-.554.609,2.771,2.771,0,0,1-.444.378c-.256.189-.39.274-.39.274a8.481,8.481,0,0,0,1.321-1.3,9.833,9.833,0,0,0,1.827-4.932,13.451,13.451,0,0,0-.085-3.836,10.351,10.351,0,0,0-.609-2.1,22.243,22.243,0,0,0-1.041-2.143c-.773-1.461-1.7-2.971-2.539-4.658a15.222,15.222,0,0,1-1.741-5.705c-.183-2.1.134-4.293-.037-6.533a9.779,9.779,0,0,0-.822-3.306,19.863,19.863,0,0,0-1.827-3.081c-.694-1.011-1.431-2.021-2.064-3.136a9.133,9.133,0,0,1-1.3-3.684c-.329-2.722,1.248-5.267.84-7.952a9.334,9.334,0,0,0-1.638-3.714c-.773-1.163-1.687-2.271-2.436-3.519a24.511,24.511,0,0,1-2.868-8.378,49.947,49.947,0,0,0-2.107-8.859,16.385,16.385,0,0,0-2.2-4.043,10.1,10.1,0,0,0-3.513-2.971l.311-.177a.9.9,0,0,1-.03.28c-.17,1.6-.457,3.154-.609,4.713a27.01,27.01,0,0,0-.177,4.646,22.756,22.756,0,0,0,.207,2.277,13.7,13.7,0,0,0,.767,2.125,40.217,40.217,0,0,1,1.644,4.262,22.1,22.1,0,0,1,.767,4.433c.158,1.467.323,2.923.481,4.36.329,2.868.542,5.73,1.7,8.208.609,1.218,1.34,2.381,1.906,3.623a10.418,10.418,0,0,1,.913,3.927c.152,2.63-.189,5.206.524,7.532s2.192,4.262,2.941,6.46a13.575,13.575,0,0,1,.146,6.564,15.235,15.235,0,0,0-.219,5.858c.438,1.808,1.693,3.16,2.509,4.609a6.2,6.2,0,0,1,.846,2.283,19.17,19.17,0,0,1,.146,2.229,6.819,6.819,0,0,0,.292,1.985,3.587,3.587,0,0,0,1.053,1.431,9.383,9.383,0,0,0,2.673,1.51,11.805,11.805,0,0,0,2.186.609,8.38,8.38,0,0,0,1.382.134C120.642,409.8,120.806,409.8,120.806,409.8Z" transform="translate(-96.987 -303.837)" fill="#263238"/>
      <path id="Path_53745" data-name="Path 53745" d="M102.587,332.1a.731.731,0,0,1,.067.207l.146.609c.134.542.3,1.352.554,2.362s.883,2.155,1.413,3.562a50.823,50.823,0,0,1,1.62,4.835c.524,1.827.98,3.836,1.467,6a25.251,25.251,0,0,0,2.18,6.655,36.445,36.445,0,0,1,1.687,3.458,15.861,15.861,0,0,1,.98,3.909,79.812,79.812,0,0,0,1.474,8.25c1.364,5.583,2.667,10.905,3.854,15.752s2.308,9.182,3.233,12.848,1.626,6.588,2.137,8.677c.237,1,.426,1.784.56,2.362.055.25.1.451.14.609a1.127,1.127,0,0,1,0,.213.8.8,0,0,1-.079-.2c-.043-.164-.1-.359-.177-.609-.152-.566-.365-1.352-.639-2.344-.548-2.07-1.321-5.011-2.277-8.634s-2.07-8.007-3.318-12.823-2.515-10.175-3.891-15.764a75.939,75.939,0,0,1-1.437-8.275,15.727,15.727,0,0,0-.95-3.818c-.481-1.218-1.1-2.308-1.656-3.428a24.87,24.87,0,0,1-2.18-6.759c-.481-2.149-.907-4.183-1.407-6s-1.023-3.434-1.547-4.835a37.043,37.043,0,0,1-1.352-3.6c-.25-1.047-.365-1.827-.475-2.387q-.061-.377-.11-.609C102.587,332.173,102.574,332.1,102.587,332.1Z" transform="translate(-100.31 -306.454)" fill="#263238"/>
      <path id="Path_53746" data-name="Path 53746" d="M68.775,395.969c-4.451-2.649-5.73-10.686-3.873-15.521s5.109-9.255,5.608-14.412c.39-3.964-.913-8.031,0-11.9,1.248-5.23,6.351-9.279,6.29-14.656-.03-3.014-1.748-5.851-1.607-8.865.164-3.69,3-6.625,4.755-9.876,2.691-4.987,2.868-10.875,3.787-16.44s3.044-11.569,8-14.315c.731,4.743,1.979,7.995,1.589,14.418-.146,2.308-2.825,6.7-3.191,11.782-.219,3.044-.365,6.052-.554,9.072a29.028,29.028,0,0,1-1.425,8.695c-.81,2.113-2.107,4.031-2.71,6.211-1.126,4.1.359,8.524-.554,12.689-.773,3.519-3.209,6.546-3.708,10.114-.694,5.011,2.545,10.223.889,15-.828,2.375-2.777,4.262-3.331,6.728-.432,1.9.037,3.915-.353,5.821-.609,3.081-6.491,5.48-9.627,5.279" transform="translate(-46.162 -289.98)" fill="#efa00b"/>
      <path id="Path_53747" data-name="Path 53747" d="M90.478,297.67a1.443,1.443,0,0,1,0,.268c0,.2-.061.457-.1.779-.1.688-.219,1.693-.451,3s-.926,2.777-1.461,4.554-1.133,3.812-1.632,6.089-.938,4.816-1.382,7.538a30.8,30.8,0,0,1-2.283,8.524c-.609,1.419-1.327,2.844-1.827,4.366a19.7,19.7,0,0,0-.938,4.81A96.266,96.266,0,0,1,79.1,347.946c-1.364,7.027-2.661,13.718-3.842,19.813s-2.369,11.532-3.318,16.136-1.729,8.281-2.271,10.875l-.609,2.953c-.073.317-.128.566-.177.761a1.516,1.516,0,0,1-.073.262,1.115,1.115,0,0,1,0-.268c.037-.2.079-.451.134-.773.134-.706.323-1.7.56-2.971.511-2.6,1.218-6.314,2.137-10.9s2.009-10.083,3.221-16.154,2.436-12.787,3.806-19.807a97.124,97.124,0,0,0,1.315-10.351,19.984,19.984,0,0,1,.968-4.908c.542-1.547,1.254-2.977,1.881-4.39A30.95,30.95,0,0,0,85.12,319.8c.463-2.71.907-5.255,1.437-7.544s1.108-4.335,1.7-6.089,1.26-3.239,1.528-4.512.4-2.3.524-2.971c.061-.317.11-.572.146-.773a2.066,2.066,0,0,1,.018-.244Z" transform="translate(-46.121 -292.988)" fill="#263238"/>
    </g>
    <g id="freepik--speech-bubble--inject-141" transform="translate(16.732 7.622)">
      <path id="Path_53748" data-name="Path 53748" d="M406.559,83.869h2.436a2.064,2.064,0,0,0,2.113,2.076,1.961,1.961,0,0,0,1.9-1.254,2.168,2.168,0,0,0-.17-1.961,2.632,2.632,0,0,0-2.947-1.011V76.24h2.393v3.2a4.676,4.676,0,0,1,3.355,4.567,4.355,4.355,0,0,1-4.542,4.366A4.119,4.119,0,0,1,406.559,83.869Z" transform="translate(-393.273 -62.757)" fill="#efa00b"/>
      <rect id="Rectangle_6836" data-name="Rectangle 6836" width="2.429" height="2.271" transform="translate(16.598 10.104)" fill="#efa00b"/>
      <path id="Path_53749" data-name="Path 53749" d="M384.729,71.969a1.983,1.983,0,0,1,0-.311v-.9a5.213,5.213,0,0,1,.03-.664c.03-.244.067-.511.11-.792s.085-.609.134-.932l.256-1.035a16.89,16.89,0,0,1,2.192-5.023,17.713,17.713,0,0,1,13.329-8.147,17.9,17.9,0,0,1,2.436-.049,6.207,6.207,0,0,1,1.218.079l1.254.189a18.078,18.078,0,0,1,4.944,1.687A19.29,19.29,0,0,1,415.07,59.3a18.48,18.48,0,0,1,3.343,4.652,16.884,16.884,0,0,1,1.8,5.669,11.487,11.487,0,0,1,.128,1.516,12.789,12.789,0,0,1,.03,1.528,17.968,17.968,0,0,1-2.953,9.164v-.189c.846,2.113,1.681,4.189,2.5,6.211l.146.371-.384-.11-6.637-1.827.158-.037a17.768,17.768,0,0,1-7.6,3.325,15.831,15.831,0,0,1-3.885.237,11.856,11.856,0,0,1-1.869-.177l-.907-.14c-.3-.055-.609-.146-.877-.213a17.761,17.761,0,0,1-10.12-6.935,16.945,16.945,0,0,1-2.174-4.122c-.116-.323-.225-.609-.329-.926s-.158-.609-.225-.883-.14-.554-.2-.81-.079-.505-.116-.743c-.055-.469-.14-.883-.158-1.218s0-.658,0-.913v-.743a.639.639,0,0,1,0,.189,2.862,2.862,0,0,0,.043.554c.043.231.037.554.061.907s.116.767.189,1.218a17.658,17.658,0,0,0,13.1,14.126c.286.067.572.152.865.207l.9.134a12.137,12.137,0,0,0,1.827.164,16.215,16.215,0,0,0,3.812-.25,17.566,17.566,0,0,0,7.422-3.27l.073-.061h.091l6.643,1.827-.231.262-2.5-6.2-.037-.1.055-.091a17.512,17.512,0,0,0,2.509-5.961,17.843,17.843,0,0,0,.377-3,12.168,12.168,0,0,0-.03-1.492,9.978,9.978,0,0,0-.122-1.48,16.477,16.477,0,0,0-1.7-5.547,18.334,18.334,0,0,0-3.258-4.554,18.8,18.8,0,0,0-4.347-3.172,17.53,17.53,0,0,0-4.841-1.674l-1.218-.189c-.408-.061-.816-.055-1.218-.085a18.206,18.206,0,0,0-2.381.043,17.524,17.524,0,0,0-13.17,7.916,16.86,16.86,0,0,0-2.229,4.944l-.274,1.023c-.055.323-.1.609-.152.913s-.085.548-.128.792-.03.463-.049.658a8.791,8.791,0,0,1-.067.9,1.028,1.028,0,0,1-.018.329Z" transform="translate(-384.723 -54.096)" fill="#263238"/>
    </g>
    <g id="freepik--question-mark--inject-141" transform="translate(66.612 31.357)">
      <path id="Path_53750" data-name="Path 53750" d="M276.76,159.022H241.6s0-29.525-30.682-30.049c-15.935-.28-24.2,10.162-27.558,18.157a31.517,31.517,0,0,0,2.509,28.484c5.961,9.834,18.809,19.716,42.507,15.539L228.6,269.5H193.823V223.052s-48.766-12.6-48.766-66.369c0-51.421,41.581-62.527,63.933-63.245,12.434-.4,16.939-.932,32.32,1.254C260.911,97.493,277.174,120.254,276.76,159.022Z" transform="translate(-145.057 -93.077)" fill="#efa00b"/>
      <rect id="Rectangle_6837" data-name="Rectangle 6837" width="35.291" height="32.959" transform="translate(48.346 192.752)" fill="#efa00b"/>
      <rect id="Rectangle_6838" data-name="Rectangle 6838" width="35.291" height="32.959" transform="translate(48.346 192.752)" opacity="0.1"/>
      <path id="Path_53751" data-name="Path 53751" d="M276.76,159.022H241.6s0-29.525-30.682-30.049c-15.935-.28-24.2,10.162-27.558,18.157a31.517,31.517,0,0,0,2.509,28.484c5.961,9.834,18.809,19.716,42.507,15.539L228.6,269.5H193.823V223.052s-48.766-12.6-48.766-66.369c0-51.421,41.581-62.527,63.933-63.245,12.434-.4,16.939-.932,32.32,1.254C260.911,97.493,277.174,120.254,276.76,159.022Z" transform="translate(-145.057 -93.077)" opacity="0.1"/>
      <path id="Path_53752" data-name="Path 53752" d="M252.838,159.179H217.669s0-29.525-30.682-30.049c-15.935-.28-24.2,10.162-27.552,18.157a31.5,31.5,0,0,0,2.5,28.484c5.961,9.834,19.034,18.772,42.732,14.613v79.271H169.9V223.21s-48.766-12.6-48.766-66.369c0-51.421,46.117-63.361,65.851-63.361C202.075,93.5,253.5,97.146,252.838,159.179Z" transform="translate(-106.565 -93.235)" fill="#efa00b"/>
      <path id="Path_53753" data-name="Path 53753" d="M252.838,159.179H217.669s0-29.525-30.682-30.049c-15.935-.28-24.2,10.162-27.552,18.157a31.5,31.5,0,0,0,2.5,28.484c5.961,9.834,19.034,18.772,42.732,14.613v79.271H169.9V223.21s-48.766-12.6-48.766-66.369c0-51.421,46.117-63.361,65.851-63.361C202.075,93.5,253.5,97.146,252.838,159.179Z" transform="translate(-106.565 -93.235)" opacity="0.3"/>
      <rect id="Rectangle_6839" data-name="Rectangle 6839" width="35.291" height="32.959" transform="translate(62.91 192.752)" fill="#efa00b"/>
      <rect id="Rectangle_6840" data-name="Rectangle 6840" width="35.291" height="32.959" transform="translate(62.91 192.752)" opacity="0.3"/>
      <path id="Path_53754" data-name="Path 53754" d="M178.561,152.042a3.043,3.043,0,0,0,.524,0c.347,0,.846-.116,1.5-.122a30.378,30.378,0,0,1,5.517.231,39.078,39.078,0,0,1,7.958,1.869,34.052,34.052,0,0,1,4.433,1.912,23.432,23.432,0,0,1,4.341,2.807,21.458,21.458,0,0,1,3.55,3.751,36.756,36.756,0,0,1,2.661,4.031,36.041,36.041,0,0,1,3.148,7.538,30.659,30.659,0,0,1,1.059,5.419c.073.645.091,1.157.11,1.5a2.771,2.771,0,0,0,.049.524,2.911,2.911,0,0,0,0-.524c0-.347,0-.859-.055-1.51a28.008,28.008,0,0,0-.968-5.48,35.072,35.072,0,0,0-3.105-7.623,36.467,36.467,0,0,0-2.673-4.073,21.311,21.311,0,0,0-3.592-3.806,23.6,23.6,0,0,0-4.4-2.844,34.1,34.1,0,0,0-4.463-1.948,38.249,38.249,0,0,0-8.031-1.827,28.01,28.01,0,0,0-5.547-.128,13.128,13.128,0,0,0-1.5.183A3.78,3.78,0,0,0,178.561,152.042Z" transform="translate(-102.108 -115.988)" fill="#263238"/>
      <path id="Path_53755" data-name="Path 53755" d="M225.28,123.089s.043-.043.116-.134.183-.25.3-.426l1.163-1.644c.25-.353.518-.761.834-1.181l1.1-1.333,1.254-1.54c.457-.536.992-1.053,1.528-1.62s1.084-1.169,1.7-1.748,1.285-1.169,1.967-1.778c.341-.3.676-.609,1.041-.932l1.133-.9c.773-.609,1.54-1.218,2.375-1.827a76.543,76.543,0,0,1,11.526-6.807l3.209-1.449,3.185-1.218c1.041-.432,2.1-.737,3.124-1.078s2.022-.688,3.044-.926l2.91-.761c.944-.25,1.881-.4,2.777-.609a25.317,25.317,0,0,1,2.606-.493l2.436-.353c1.54-.262,2.953-.317,4.183-.438.609-.049,1.218-.116,1.723-.14l1.449-.037,2.009-.067h.7a.572.572,0,0,0-.177,0h-3.988c-.53,0-1.108.073-1.729.116-1.218.1-2.655.146-4.2.4l-2.436.329c-.846.1-1.711.317-2.612.481s-1.827.335-2.795.609l-2.923.755c-1.011.231-2.009.609-3.044.919a25.7,25.7,0,0,0-3.13,1.072l-3.2,1.218L251.219,101a74.624,74.624,0,0,0-11.569,6.856c-.84.609-1.607,1.26-2.381,1.863l-1.133.822c-.365.3-.7.609-1.041.938l-1.961,1.827c-.609.609-1.157,1.218-1.7,1.772s-1.059,1.1-1.516,1.638l-1.218,1.553-1.084,1.352c-.311.426-.572.84-.816,1.218-.475.712-.846,1.273-1.108,1.674l-.286.444A.7.7,0,0,0,225.28,123.089Z" transform="translate(-201.813 -93.301)" fill="#263238"/>
      <path id="Path_53756" data-name="Path 53756" d="M257.57,266a1.883,1.883,0,0,0,.262.365l.84.993c.347.444.785.974,1.327,1.565s1.12,1.285,1.827,2,1.461,1.522,2.32,2.332,1.79,1.662,2.783,2.551a76.036,76.036,0,0,0,14.224,9.809c1.181.609,2.3,1.218,3.373,1.687s2.082.95,3.008,1.34,1.778.712,2.521,1,1.394.518,1.93.688l1.218.4a2.124,2.124,0,0,0,.438.122,2.173,2.173,0,0,0-.414-.183l-1.218-.451c-.53-.189-1.169-.432-1.906-.737s-1.589-.609-2.5-1.041-1.924-.84-2.977-1.37-2.18-1.09-3.355-1.7c-2.32-1.279-4.822-2.777-7.349-4.506a82.651,82.651,0,0,1-6.82-5.267c-.992-.877-1.942-1.7-2.789-2.527s-1.638-1.577-2.338-2.3-1.315-1.382-1.863-1.967-1-1.1-1.364-1.522l-.852-.968A2.766,2.766,0,0,0,257.57,266Z" transform="translate(-230.438 -160.709)" fill="#263238"/>
      <path id="Path_53757" data-name="Path 53757" d="M256.238,350.218c.091,0,.164-9.779.164-21.841s-.073-21.847-.164-21.847-.158,9.779-.158,21.847S256.153,350.218,256.238,350.218Z" transform="translate(-192.293 -176.561)" fill="#263238"/>
      <path id="Path_53758" data-name="Path 53758" d="M258.448,440.408c.091,0,.158-6.862.158-15.326s-.067-15.332-.158-15.332-.158,6.862-.158,15.332S258.363,440.408,258.448,440.408Z" transform="translate(-195.842 -216.932)" fill="#263238"/>
    </g>
    <g id="freepik--Character--inject-141" transform="translate(29.689 18.482)">
      <path id="Path_53759" data-name="Path 53759" d="M332.355,189.6c.609,1.218-1.662,2.216-2.971,2.612a11.946,11.946,0,0,1-4.086.28,11.75,11.75,0,0,1-5.273-1.169,8.415,8.415,0,0,1-3.178-3.562,25.057,25.057,0,0,1-1.614-4.561S329.621,184.138,332.355,189.6Z" transform="translate(-267.441 -115.45)" fill="#efa00b"/>
      <g id="Group_18170" data-name="Group 18170" transform="translate(47.792 67.75)" opacity="0.4">
        <path id="Path_53760" data-name="Path 53760" d="M332.355,189.6c.609,1.218-1.662,2.216-2.971,2.612a11.946,11.946,0,0,1-4.086.28,11.75,11.75,0,0,1-5.273-1.169,8.415,8.415,0,0,1-3.178-3.562,25.057,25.057,0,0,1-1.614-4.561S329.621,184.138,332.355,189.6Z" transform="translate(-315.233 -183.2)"/>
      </g>
      <path id="Path_53761" data-name="Path 53761" d="M395.37,184.593a13.81,13.81,0,0,1-8.123,2.545,5.742,5.742,0,0,1-3.866-1.218c-.469-.432-.822-.98-1.3-1.394-.329-.28-.712-.493-1.023-.792a1.309,1.309,0,0,1-.444-1.157,2.393,2.393,0,0,1,.84-1.34c1.65-.938,3.623-.9,5.523-.859a19,19,0,0,1,5.571,1.09,6.464,6.464,0,0,1,3.763,2.557" transform="translate(-371.093 -114.34)" fill="#efa00b"/>
      <g id="Group_18171" data-name="Group 18171" transform="translate(9.507 66.03)" opacity="0.4">
        <path id="Path_53762" data-name="Path 53762" d="M380.61,182.583a2.527,2.527,0,0,1,1.078-1.218,9.73,9.73,0,0,1,5.285-.98,19,19,0,0,1,5.571,1.09,6.464,6.464,0,0,1,3.763,2.557l-.938.566a13.81,13.81,0,0,1-8.123,2.545,5.742,5.742,0,0,1-3.866-1.218c-.469-.432-.822-.98-1.3-1.394-.329-.28-.712-.493-1.023-.792A1.309,1.309,0,0,1,380.61,182.583Z" transform="translate(-380.6 -180.376)"/>
      </g>
      <path id="Path_53763" data-name="Path 53763" d="M341.745,189.1l-30.353.4a.4.4,0,0,1-.377-.511l3.562-11.106s-.524-5.553-1.248-12.227c-1.1-10.138-2.57-22.882-2.588-22.846,2.076-5.821,14.327-6.807,14.327-6.807l13.962.828.487-.822,4.019,1.869a18.346,18.346,0,0,1,2.521,1.425c2.655,1.772,9.048,5.845,10.217,10.382,2.7,10.5-1.869,22.224-1.869,22.224l-2.935-2.3a20.606,20.606,0,0,0-2.326-1.553l-5.882,15.764a2.783,2.783,0,0,1,1.279,2.022,3.112,3.112,0,0,1-2.795,3.251" transform="translate(-289.374 -96.99)" fill="#efa00b"/>
      <g id="Group_18172" data-name="Group 18172" transform="translate(38.803 57.788)" opacity="0.3">
        <path id="Path_53764" data-name="Path 53764" d="M351.418,182.574c-.962-5.176-.457-10.5.061-15.734,1.681,4.262,1.62,9.133,3.4,13.359a5.723,5.723,0,0,1,.475,1.407,1.577,1.577,0,0,1-.4,1.376c-.487.444-1.218.2-1.863.128a7.27,7.27,0,0,1-1.674-.536" transform="translate(-350.874 -166.84)"/>
      </g>
      <g id="Group_18173" data-name="Group 18173" transform="translate(25.166 81.644)" opacity="0.4">
        <path id="Path_53765" data-name="Path 53765" d="M363.748,209.88c-2.436.846-5.029-.731-7.605-1.011a19.294,19.294,0,0,0-5.1.481,38.276,38.276,0,0,1-10.351.256,3.971,3.971,0,0,1-1.522-.4,1.827,1.827,0,0,1-.8-1.51c5.736-.609,11.465-.938,17.2-1.528a10.741,10.741,0,0,1,4.3.14,10.189,10.189,0,0,1,4.262,3.239" transform="translate(-338.37 -206.019)"/>
      </g>
      <path id="Path_53766" data-name="Path 53766" d="M376.287,167.215c2.478-5.584,11.216-21.025,11.216-21.025l6.765,8.482-1.577,16.653s-3.574-3.988-13.566-4.067a4.871,4.871,0,0,0-3.714,1.961Z" transform="translate(-365.893 -100.975)" fill="#efa00b"/>
      <path id="Path_53767" data-name="Path 53767" d="M334.99,171.134a22.961,22.961,0,0,0,1.145-3.653,23.07,23.07,0,0,0,.828-3.72,24.158,24.158,0,0,0-1.139,3.653,23.527,23.527,0,0,0-.834,3.72Z" transform="translate(-283.977 -107.847)" fill="#263238"/>
      <path id="Path_53768" data-name="Path 53768" d="M380.195,158.27a4.013,4.013,0,0,0-.609.53,17.66,17.66,0,0,0-1.51,1.656,16.081,16.081,0,0,0-3.233,6.613,12.476,12.476,0,0,0-.189,4.08c.152,1.248.39,2.344.548,3.27s.256,1.681.3,2.2a4.08,4.08,0,0,0,.085.81,3.654,3.654,0,0,0,.036-.822,19.741,19.741,0,0,0-.207-2.229c-.128-.932-.341-2.04-.481-3.264a12.6,12.6,0,0,1,.213-3.982,16.787,16.787,0,0,1,3.1-6.539C379.367,159.1,380.244,158.319,380.195,158.27Z" transform="translate(-351.309 -105.7)" fill="#263238"/>
      <path id="Path_53769" data-name="Path 53769" d="M338.27,217.835a2.593,2.593,0,0,0,.664.195,5.925,5.925,0,0,0,.792.152c.311.043.664.11,1.059.128a15.26,15.26,0,0,0,2.789,0,18,18,0,0,0,3.349-.67,18.267,18.267,0,0,0,3.142-1.346,16.07,16.07,0,0,0,2.308-1.565c.317-.244.572-.5.8-.712a7.013,7.013,0,0,0,.566-.572,2.381,2.381,0,0,0,.432-.536c-.043-.043-.694.688-1.942,1.644a17.52,17.52,0,0,1-2.308,1.486,19.356,19.356,0,0,1-3.093,1.3,19.083,19.083,0,0,1-3.288.682,18.03,18.03,0,0,1-2.74.085C339.238,218.017,338.282,217.786,338.27,217.835Z" transform="translate(-303.185 -127.069)" fill="#263238"/>
      <path id="Path_53770" data-name="Path 53770" d="M376.862,215.32a2.118,2.118,0,0,0-.237.889,5.48,5.48,0,0,0,.164,2.216,3.848,3.848,0,0,0,1.218,1.888c.445.371.785.487.8.457s-.268-.231-.652-.609a4.311,4.311,0,0,1-1.041-1.827A10.94,10.94,0,0,1,376.862,215.32Z" transform="translate(-351.149 -128.013)" fill="#263238"/>
      <path id="Path_53771" data-name="Path 53771" d="M374.992,218.84a3.3,3.3,0,0,0,1.3,3.361c.067-.067-.5-.67-.852-1.6S375.084,218.846,374.992,218.84Z" transform="translate(-347.628 -129.39)" fill="#263238"/>
      <path id="Path_53772" data-name="Path 53772" d="M364.62,185.94A12.926,12.926,0,0,0,365.7,187.5a12.48,12.48,0,0,0,1.066,1.571,3.9,3.9,0,0,0-.8-1.754,3.842,3.842,0,0,0-1.346-1.376Z" transform="translate(-331.825 -116.522)" fill="#263238"/>
      <path id="Path_53773" data-name="Path 53773" d="M317.28,159.251a15.281,15.281,0,0,0,1.346-.889,17.286,17.286,0,0,1,7.191-2.685,13.567,13.567,0,0,0,1.6-.213,5.943,5.943,0,0,0-1.626,0,14.54,14.54,0,0,0-7.307,2.722,5.808,5.808,0,0,0-1.206,1.066Z" transform="translate(-263.649 -104.581)" fill="#263238"/>
      <path id="Path_53774" data-name="Path 53774" d="M377.73,145.86a18.084,18.084,0,0,1,5.352,6.4,3.715,3.715,0,0,0-.42-1.181,12.281,12.281,0,0,0-1.644-2.545,11.959,11.959,0,0,0-2.229-2.052,3.581,3.581,0,0,0-1.059-.621Z" transform="translate(-356.12 -100.846)" fill="#263238"/>
      <path id="Path_53775" data-name="Path 53775" d="M337.6,137.62a1.333,1.333,0,0,0-.134.28,5.435,5.435,0,0,0-.286.852,7.167,7.167,0,0,0,0,3.3,8.123,8.123,0,0,0,2.484,4.2,8.433,8.433,0,0,0,5.6,2,9.5,9.5,0,0,0,5.693-1.869,10.784,10.784,0,0,0,3.111-3.769,11.418,11.418,0,0,0,1.035-3.136,6.856,6.856,0,0,0,.11-.889.981.981,0,0,0,0-.317s-.067.426-.237,1.181a12.416,12.416,0,0,1-1.114,3.044,10.79,10.79,0,0,1-3.087,3.653,9.3,9.3,0,0,1-5.48,1.827,8.232,8.232,0,0,1-5.413-1.9,8.037,8.037,0,0,1-2.436-4.031,7.428,7.428,0,0,1-.11-3.215C337.455,138.022,337.638,137.632,337.6,137.62Z" transform="translate(-303.461 -97.624)" fill="#263238"/>
      <g id="Group_18174" data-name="Group 18174" transform="translate(31.961 69.615)" opacity="0.3">
        <path id="Path_53776" data-name="Path 53776" d="M364.669,187.144a.894.894,0,0,1,.317-.816.609.609,0,0,1,.548,0,1.5,1.5,0,0,1,.445.365,7.472,7.472,0,0,1,1.626,2.6l-2.984-.262C364.638,188.417,364.65,187.771,364.669,187.144Z" transform="translate(-364.62 -186.263)"/>
      </g>
      <g id="Group_18175" data-name="Group 18175" transform="translate(22.077 59.59)" opacity="0.3">
        <path id="Path_53777" data-name="Path 53777" d="M382.176,174.428a9.784,9.784,0,0,1,2.168-4.628,15.219,15.219,0,0,0-.134,9.48l-.158-.4C383.218,177.192,381.951,176.132,382.176,174.428Z" transform="translate(-382.15 -169.8)"/>
      </g>
      <path id="Path_53778" data-name="Path 53778" d="M350.36,409.074l1.821,27.309,11.873-.14,1.869-28.393Z" transform="translate(-322.296 -203.313)" fill="#ffbe9d"/>
      <path id="Path_53779" data-name="Path 53779" d="M365.523,448.626v.792s-13.4,5.383-13.523,7.916l26.6-.146-.414-8.847A15.245,15.245,0,0,1,365.523,448.626Z" transform="translate(-335.974 -219.15)" fill="#efa00b"/>
      <path id="Path_53780" data-name="Path 53780" d="M357.12,452.976a1.084,1.084,0,0,1,.755,1.218,1.035,1.035,0,0,1-1.218.761,1.139,1.139,0,0,1-.792-1.309,1.078,1.078,0,0,1,1.352-.651" transform="translate(-317.603 -220.948)" fill="#fff"/>
      <path id="Path_53781" data-name="Path 53781" d="M378.626,461.505l-.1-2.125-25.476.926s-1.181.524-1.041,1.352Z" transform="translate(-335.997 -223.467)" fill="#263238"/>
      <path id="Path_53782" data-name="Path 53782" d="M369.65,450.15c0,.128.658.183,1.3.609s.986.956,1.1.907-.079-.8-.865-1.291S369.62,450.01,369.65,450.15Z" transform="translate(-340.198 -219.809)" fill="#263238"/>
      <path id="Path_53783" data-name="Path 53783" d="M375.286,452.126c-.03.128.536.341.98.889s.572,1.126.706,1.12.207-.743-.359-1.407S375.292,452.034,375.286,452.126Z" transform="translate(-348.616 -220.615)" fill="#263238"/>
      <path id="Path_53784" data-name="Path 53784" d="M381.571,456.212c.122,0,.3-.609-.043-1.333s-.944-.986-1-.883.323.487.609,1.078S381.437,456.2,381.571,456.212Z" transform="translate(-356.466 -221.353)" fill="#263238"/>
      <path id="Path_53785" data-name="Path 53785" d="M334.068,77.971a4.332,4.332,0,0,1,1.626-4.871,7.087,7.087,0,0,1,5.291-1.029,21.074,21.074,0,0,1,5.2,1.827,5.864,5.864,0,0,1,9.961,3.251,3.739,3.739,0,0,1,4.427,4.9l-8.232,2.892-8.987,15.831a7.191,7.191,0,0,1-10.583-9.56,6.242,6.242,0,0,1-1.266-1.559,6.3,6.3,0,0,1-2.9-3.9A6.657,6.657,0,0,1,334.068,77.971Z" transform="translate(-303.837 -71.933)" fill="#263238"/>
      <path id="Path_53786" data-name="Path 53786" d="M333.709,114.717c.511-2.576.865-4.341.859-4.323s-4.871-1.888-4.518-8.664c.171-3.373,1.455-8.689,2.649-13,1.072-3.885,4.695-8.165,8.524-6.929l11.612,5.663c1.163.378,1.364,1.474,1.09,2.661v.609L349.412,109.4l-1.906,8.342a7.045,7.045,0,0,1-7.867,5.346h0a7.051,7.051,0,0,1-5.931-8.372Z" transform="translate(-298.028 -75.707)" fill="#ffbe9d"/>
      <path id="Path_53787" data-name="Path 53787" d="M362.3,100.312a.865.865,0,0,0,.609,1.023.828.828,0,0,0,1.029-.609.859.859,0,0,0-.609-1.017.822.822,0,0,0-1.029.6Z" transform="translate(-327.583 -82.784)" fill="#263238"/>
      <path id="Path_53788" data-name="Path 53788" d="M358.608,98.217c.085.134.822-.2,1.723,0s1.474.785,1.6.694,0-.262-.25-.53a2.375,2.375,0,0,0-1.248-.694,2.235,2.235,0,0,0-1.4.152C358.687,97.98,358.572,98.163,358.608,98.217Z" transform="translate(-323.365 -81.986)" fill="#263238"/>
      <path id="Path_53789" data-name="Path 53789" d="M347.776,103.608a.859.859,0,0,0,.609,1.017.828.828,0,0,0,1.029-.572.865.865,0,0,0-.609-1.023.828.828,0,0,0-1.029.578Z" transform="translate(-304.222 -84.082)" fill="#263238"/>
      <path id="Path_53790" data-name="Path 53790" d="M344.229,101.748c.079.134.822-.207,1.723,0s1.474.779,1.6.694,0-.262-.25-.536a2.393,2.393,0,0,0-1.248-.688,2.283,2.283,0,0,0-1.4.146C344.327,101.51,344.187,101.675,344.229,101.748Z" transform="translate(-300.23 -83.367)" fill="#263238"/>
      <path id="Path_53791" data-name="Path 53791" d="M356.171,106.744a6.411,6.411,0,0,0-1.413-.572c-.225-.073-.438-.164-.445-.329a1.218,1.218,0,0,1,.3-.652l1.053-1.62a33.263,33.263,0,0,0,2.5-4.262,32.7,32.7,0,0,0-2.837,4.073l-1.029,1.632a1.394,1.394,0,0,0-.311.883.609.609,0,0,0,.311.414,1.534,1.534,0,0,0,.378.14A5.589,5.589,0,0,0,356.171,106.744Z" transform="translate(-316.757 -82.64)" fill="#263238"/>
      <path id="Path_53792" data-name="Path 53792" d="M347.107,128.579a17.049,17.049,0,0,0,9.279-.5s-3.191,4.165-9.626,2.174Z" transform="translate(-310.567 -93.892)" fill="#eb996e"/>
      <path id="Path_53793" data-name="Path 53793" d="M343.2,99.7c.061.262.992.256,2.052.518s1.9.658,2.07.451c.073-.1-.049-.353-.371-.609a3.5,3.5,0,0,0-1.486-.737,3.574,3.574,0,0,0-1.65,0C343.384,99.4,343.159,99.574,343.2,99.7Z" transform="translate(-299.355 -82.606)" fill="#263238"/>
      <path id="Path_53794" data-name="Path 53794" d="M357.513,93.454c.146.244.926.183,1.827.359s1.614.481,1.827.3c.1-.091,0-.323-.262-.609a2.91,2.91,0,0,0-1.407-.645,2.868,2.868,0,0,0-1.528.11C357.6,93.144,357.452,93.333,357.513,93.454Z" transform="translate(-321.922 -80.097)" fill="#263238"/>
      <path id="Path_53795" data-name="Path 53795" d="M358.565,82.114a4.585,4.585,0,0,1-6.217,3.331c-.962-.39-1.961-1.12-2.935-.767s-1.376,1.741-2.308,2.259c-1.37.767-3.044-.56-4.573-.426-1.218.1-2.137,1.035-3.081,1.827s-2.247,1.388-3.312.816a13.455,13.455,0,0,1,1.078-2.935,4.542,4.542,0,0,1,2.229-2.107c.536-.213,1.114-.286,1.626-.548,1.1-.56,1.6-1.827,2.393-2.783a5.023,5.023,0,0,1,4.262-1.7c1.315.134,2.563.8,3.891.743.98-.043,1.918-.481,2.9-.463,1.906,0,3.337,1.7,4.4,3.294" transform="translate(-306.627 -74.718)" fill="#263238"/>
      <path id="Path_53796" data-name="Path 53796" d="M321.27,84.71c.877-.067,2.667-.25,3.258-.871a5.139,5.139,0,0,1,4.871-1.607,4.262,4.262,0,0,1,3.044,4.055,6.089,6.089,0,0,1,4.445,4.366,7.075,7.075,0,0,1-1.522,6.4,12.671,12.671,0,0,0-1,1.443,10.314,10.314,0,0,1,1.084,1.644c1.394,3.081-2.387,4.262-2.387,4.262,0,2.07-1.918,2.058-3.142,2.052s-1.9,3.264-2.856,3.136l.968-10.089a1.254,1.254,0,0,1-.444.085c-2.308.043-1.7-4.329-.962-5.48a13.517,13.517,0,0,1-1.729-2.789,9.444,9.444,0,0,1-.085-4.664C324.041,86.555,320.893,84.734,321.27,84.71Z" transform="translate(-275.749 -75.919)" fill="#263238"/>
      <path id="Path_53797" data-name="Path 53797" d="M331.3,110.584a1.955,1.955,0,0,1,3.136-1.047c.609.524.932,1.4.566,2.868-.986,3.921-4.719,2.125-4.695,2.015S330.873,112.2,331.3,110.584Z" transform="translate(-279.318 -86.467)" fill="#ffbe9d"/>
      <path id="Path_53798" data-name="Path 53798" d="M332.118,114.007a1.025,1.025,0,0,0,.158.146.7.7,0,0,0,.505.14,1.729,1.729,0,0,0,1.163-1.321,2.362,2.362,0,0,0,.055-1.023.822.822,0,0,0-.384-.658.359.359,0,0,0-.451.091c-.079.091-.073.177-.1.183s-.067-.091,0-.244a.469.469,0,0,1,.213-.207.536.536,0,0,1,.4,0,1,1,0,0,1,.566.785,2.436,2.436,0,0,1-.043,1.157,1.827,1.827,0,0,1-1.419,1.443.767.767,0,0,1-.609-.262C332.1,114.1,332.1,114.013,332.118,114.007Z" transform="translate(-279.558 -87.242)" fill="#eb996e"/>
      <path id="Path_53799" data-name="Path 53799" d="M342.459,94.98a5.829,5.829,0,0,1-2.076-3.927A5.614,5.614,0,0,1,340.6,88.8,4.835,4.835,0,0,1,342,86.632a5.736,5.736,0,0,1,5.59-1.12c.183.061.353.152.524.225a4.671,4.671,0,0,1,.481.274l.244.134v-.268a1.961,1.961,0,0,1,.493-1.279,3.136,3.136,0,0,1,1.151-.779,4.159,4.159,0,0,1,2.612-.195c1.681.384,3.105,1.151,4.451,1.309a4.3,4.3,0,0,0,3.044-.609,2.369,2.369,0,0,0,.609-.609c.1-.164.146-.256.134-.262a3.324,3.324,0,0,1-.8.773,4.262,4.262,0,0,1-2.941.493,10.35,10.35,0,0,1-2.046-.609,19.08,19.08,0,0,0-2.375-.773,5.1,5.1,0,0,0-1.376-.14,4.183,4.183,0,0,0-1.419.329,3.433,3.433,0,0,0-1.218.877,2.32,2.32,0,0,0-.572,1.486l.244-.134-.505-.292c-.189-.073-.365-.17-.56-.237a5.985,5.985,0,0,0-5.9,1.175,5.042,5.042,0,0,0-1.449,2.3,5.924,5.924,0,0,0,1.163,5.48,3.866,3.866,0,0,0,.676.609,1.157,1.157,0,0,0,.207.189Z" transform="translate(-311.503 -76.337)" fill="#455a64"/>
      <path id="Path_53800" data-name="Path 53800" d="M341.039,78.464a4.769,4.769,0,0,1,1.266-.432,3.312,3.312,0,0,1,1.5.14,2.923,2.923,0,0,1,1.54,1.12l.152.213.091-.244A4.573,4.573,0,0,1,349.3,76.5a5.906,5.906,0,0,1,3.568,1.035A15.765,15.765,0,0,0,355.7,79a4.488,4.488,0,0,0,2.143.256,3.27,3.27,0,0,0,.566-.158c.122-.055.189-.085.183-.1s-.274.079-.767.128a4.676,4.676,0,0,1-2.052-.335,17.554,17.554,0,0,1-2.758-1.51,9.443,9.443,0,0,0-1.7-.834,4.677,4.677,0,0,0-2.046-.262,4.8,4.8,0,0,0-3.933,2.977h.237a3.178,3.178,0,0,0-1.7-1.181,3.465,3.465,0,0,0-1.6-.079,2.85,2.85,0,0,0-.95.365A1.218,1.218,0,0,0,341.039,78.464Z" transform="translate(-309.291 -73.588)" fill="#455a64"/>
      <path id="Path_53801" data-name="Path 53801" d="M353.372,114.283a1.315,1.315,0,0,1,1.035-.292,1.565,1.565,0,0,1,1.029.749h0a.194.194,0,0,1,.036.049h0a.779.779,0,0,1,.11.463,1.09,1.09,0,0,1-.609.822,1.4,1.4,0,0,1-1.6-.231,1.139,1.139,0,0,1-.006-1.559Z" transform="translate(-313.605 -88.377)" fill="#efa00b"/>
      <path id="Path_53802" data-name="Path 53802" d="M352.719,116.536c.049,0,.1-.183.268-.432a1.9,1.9,0,0,1,1.979-.9c.3.043.481.128.5.085s-.122-.189-.451-.3a1.827,1.827,0,0,0-1.309.073,1.778,1.778,0,0,0-.919.944C352.658,116.317,352.677,116.53,352.719,116.536Z" transform="translate(-313.257 -88.736)" fill="#263238"/>
      <path id="Path_53803" data-name="Path 53803" d="M332.981,118.254a.837.837,0,0,0,.055.767,1.223,1.223,0,0,0,2.3-.432,1.279,1.279,0,0,0-.25-.84c-.317-.4-.67-.414-.67-.378a1.879,1.879,0,0,1,.481.505,1.072,1.072,0,0,1,.146.682.974.974,0,0,1-.457.676,1,1,0,0,1-.81.122,1.138,1.138,0,0,1-.554-.426A2.82,2.82,0,0,1,332.981,118.254Z" transform="translate(-281.091 -89.699)" fill="#efa00b"/>
      <path id="Path_53804" data-name="Path 53804" d="M331.147,117.712c-.03,0,0,.207.286.341a.8.8,0,0,0,1.066-.98.773.773,0,0,0-.323-.4c-.25-.152-.438-.091-.432-.055s.146.079.3.231a.609.609,0,0,1-.536.986C331.3,117.8,331.189,117.688,331.147,117.712Z" transform="translate(-277.205 -89.394)" fill="#efa00b"/>
      <path id="Path_53805" data-name="Path 53805" d="M379.993,196.9s-15.076.877-23.99.956c-6.9.067-9.98-1.766-11.356-6.2-1.157-3.72,1.327-10.863,1.327-10.863a22.768,22.768,0,0,1,10.552,2.076l-.8,3.264,24.307,2.095Z" transform="translate(-332.743 -114.508)" fill="#ffbe9d"/>
      <path id="Path_53806" data-name="Path 53806" d="M384.036,192.986a12.129,12.129,0,0,1,2.271-2.259,11.933,11.933,0,0,1,2.935-1.291,2.125,2.125,0,0,0-.968.085,6.443,6.443,0,0,0-2.143.944,6.362,6.362,0,0,0-1.662,1.656C384.127,192.621,384,192.968,384.036,192.986Z" transform="translate(-366.116 -117.881)" fill="#eb996e"/>
      <path id="Path_53807" data-name="Path 53807" d="M336.777,170.753h0a29.249,29.249,0,0,1,8.092,3.41l-3.653,9.9a5.594,5.594,0,0,1-7.916,3.166c-4.585-2.624-6.2-10.272-6.2-10.272L322.06,155.11l8.348-5.23,6.339,20.873" transform="translate(-284.01 -102.419)" fill="#ffbe9d"/>
      <path id="Path_53808" data-name="Path 53808" d="M355.845,139.714l-.341-7.185,1.869-7.307c.1-.4.152-.907-.177-1.151a.889.889,0,0,0-1.126.037c-.505.524-2.941,6.911-2.941,6.911a37.783,37.783,0,0,0-4.354-2.326c-.658-.11-1.48,1.881-1.534,2.034a12.383,12.383,0,0,0,0,1.34s-2.283.067-2.49.378a8.054,8.054,0,0,0-.262,1.942s-.968.311-1.12,1.041-.469,1.936,0,2.2,1.419.792,1.419.792.384,3.726.487,4.067a23.508,23.508,0,0,0,2.241,2.436Z" transform="translate(-309.417 -92.253)" fill="#ffbe9d"/>
      <path id="Path_53809" data-name="Path 53809" d="M353.643,177.178a3.736,3.736,0,0,1-.7.286,4.834,4.834,0,0,1-2.149.17,6,6,0,0,1-3.117-1.437,14.339,14.339,0,0,1-2.9-3.653,15.861,15.861,0,0,1-1.126-2.515,26.682,26.682,0,0,1-.785-2.917c-.475-2.052-.992-4.262-1.54-6.613-1.1-4.695-2.326-9.943-3.653-15.6v-.043h-.03c-.42-.414-.84-.834-1.26-1.273-.207-.219-.414-.438-.609-.664-.1-.116-.2-.231-.28-.347a.878.878,0,0,1-.1-.371c-.164-1.218-.292-2.478-.426-3.751v-.079l-.073-.037-1.163-.652c-.085-.055-.219-.116-.274-.164a.347.347,0,0,1-.11-.2,2.191,2.191,0,0,1,0-.609,9.238,9.238,0,0,1,.274-1.321,1.644,1.644,0,0,1,.968-.785l.1-.037v-.1a9.26,9.26,0,0,1,.079-1.078,4.927,4.927,0,0,1,.079-.536.888.888,0,0,1,.073-.225c0-.043,0,0,.037-.037a.61.61,0,0,1,.1-.043,10.905,10.905,0,0,1,2.229-.25h.158v-1.376a1.278,1.278,0,0,1,.146-.408c.061-.146.134-.286.207-.432a5.391,5.391,0,0,1,.5-.8,1.333,1.333,0,0,1,.311-.3.292.292,0,0,1,.323-.037,7.15,7.15,0,0,1,.859.4c1.133.609,2.241,1.218,3.324,1.875l.158.1.067-.17c.572-1.443,1.145-2.868,1.7-4.262.28-.7.554-1.4.834-2.088a.852.852,0,0,1,.67-.609.676.676,0,0,1,.792.292.706.706,0,0,1,.091.432,3.173,3.173,0,0,1-.122.505c-.1.353-.189.7-.28,1.047-.183.7-.359,1.388-.542,2.07q-.536,2.058-1.053,4.019v.043q.183,3.751.347,7.185v-.012l5.547,18.047,1.565,5.023c.183.566.323,1.011.42,1.321a4.388,4.388,0,0,0,.158.444s-.03-.158-.116-.457l-.384-1.333c-.353-1.175-.859-2.874-1.5-5.042-1.315-4.36-3.185-10.582-5.443-18.084v.03q-.158-3.422-.323-7.185v.043c.347-1.309.706-2.649,1.066-4.013l.548-2.07c.091-.347.183-.7.28-1.047a5.356,5.356,0,0,0,.128-.554,1.011,1.011,0,0,0-.128-.609.974.974,0,0,0-.493-.414,1.254,1.254,0,0,0-1.187.268,1.218,1.218,0,0,0-.329.524l-.834,2.088c-.566,1.4-1.133,2.825-1.711,4.262l.225-.079c-1.09-.645-2.186-1.291-3.343-1.894a8.761,8.761,0,0,0-.9-.408.609.609,0,0,0-.3-.043.731.731,0,0,0-.292.11,1.741,1.741,0,0,0-.384.378,5.217,5.217,0,0,0-.53.852c-.079.152-.152.3-.219.451a1.564,1.564,0,0,0-.171.518V132.1l.152-.164a10.862,10.862,0,0,0-2.326.268,1.058,1.058,0,0,0-.152.067.4.4,0,0,0-.158.158,1.321,1.321,0,0,0-.1.311c-.037.195-.061.378-.085.566-.037.371-.061.737-.079,1.1l.11-.146a1.912,1.912,0,0,0-1.163.962,9.406,9.406,0,0,0-.292,1.413,2.156,2.156,0,0,0,0,.737.639.639,0,0,0,.219.378,3.094,3.094,0,0,0,.311.183l1.157.6-.079-.116c.14,1.273.268,2.521.438,3.757l.036.237a.536.536,0,0,0,.116.262,3.132,3.132,0,0,0,.3.378c.207.231.414.457.609.676.42.438.84.859,1.266,1.273l-.043-.073c1.34,5.65,2.582,10.9,3.7,15.594.554,2.344,1.084,4.554,1.571,6.6a25.118,25.118,0,0,0,.8,2.935,16.514,16.514,0,0,0,1.157,2.539,14.382,14.382,0,0,0,2.965,3.69,6.089,6.089,0,0,0,3.2,1.425,4.75,4.75,0,0,0,2.186-.219,3.654,3.654,0,0,0,.518-.237Z" transform="translate(-299.445 -92.221)" fill="#eb996e"/>
      <path id="Path_53810" data-name="Path 53810" d="M354.7,137.236c0,.043.207.067.53.079a6.119,6.119,0,0,1,1.218.146,2.369,2.369,0,0,1,1.035.554c.219.207.317.384.365.365s0-.237-.2-.518a2.021,2.021,0,0,0-1.12-.706,3.367,3.367,0,0,0-1.3-.061C354.9,137.139,354.7,137.194,354.7,137.236Z" transform="translate(-316.883 -97.404)" fill="#eb996e"/>
      <path id="Path_53811" data-name="Path 53811" d="M357.249,136.988c.079-.03.085-.219,0-.42s-.207-.341-.286-.311-.091.219,0,.42S357.188,137.018,357.249,136.988Z" transform="translate(-317.665 -97.089)" fill="#eb996e"/>
      <path id="Path_53812" data-name="Path 53812" d="M359.489,141.01a5.638,5.638,0,0,0,1.827.25,1.218,1.218,0,0,1,1.011.481c.158.25.1.457.152.469s.195-.2.043-.566a.956.956,0,0,0-.432-.481,1.827,1.827,0,0,0-.731-.219A5.011,5.011,0,0,0,359.489,141.01Z" transform="translate(-324.52 -98.901)" fill="#eb996e"/>
      <path id="Path_53813" data-name="Path 53813" d="M363.686,144.69c-.085,0-.134.451-.11,1s.116.992.2.992.14-.457.116-1.011S363.778,144.684,363.686,144.69Z" transform="translate(-328.315 -100.389)" fill="#eb996e"/>
      <path id="Path_53814" data-name="Path 53814" d="M372.564,169.37l-.542-1.863a.511.511,0,0,0-.852-.219l-.712.725-.438-1.76a.511.511,0,0,0-.956-.1l-.993,2.082Z" transform="translate(-339.72 -108.671)" fill="#fff"/>
      <path id="Path_53815" data-name="Path 53815" d="M368.28,171.07a8.219,8.219,0,0,0,2.149.694,7.957,7.957,0,0,0,2.229.39,16.245,16.245,0,0,0-4.378-1.084Z" transform="translate(-339.942 -110.706)" fill="#fff"/>
      <path id="Path_53816" data-name="Path 53816" d="M314.191,154a5,5,0,0,1,.542.725,6.125,6.125,0,0,1,.822,2.3,16.28,16.28,0,0,1,.11,3.653c-.067,1.382-.177,2.892-.347,4.475a78.413,78.413,0,0,1-1.285,8.05c-.213,1.023-.408,1.827-.542,2.436-.061.256-.116.469-.158.652s-.049.231-.049.231.03-.073.073-.219.11-.4.177-.652c.152-.566.359-1.382.609-2.405a72.273,72.273,0,0,0,1.321-8.056c.171-1.583.274-3.1.335-4.481a16.325,16.325,0,0,0-.134-3.653,6.09,6.09,0,0,0-.877-2.314,3.532,3.532,0,0,0-.6-.737Z" transform="translate(-249.642 -104.03)" fill="#fff"/>
      <path id="Path_53817" data-name="Path 53817" d="M316,140.379l.14.073.4.195c.347.164.852.408,1.455.743a53.482,53.482,0,0,1,4.573,2.862c1.741,1.218,3.282,2.326,4.408,3.13l1.333.944.371.25a.745.745,0,0,0,.134.085.494.494,0,0,0-.122-.1l-.353-.268-1.309-.98c-1.114-.822-2.649-1.967-4.39-3.16a46.317,46.317,0,0,0-4.6-2.837c-.609-.323-1.12-.554-1.48-.706l-.408-.17C316.03,140.391,316.03,140.373,316,140.379Z" transform="translate(-264.268 -98.702)" fill="#fff"/>
      <path id="Path_53818" data-name="Path 53818" d="M366.19,143.71a.445.445,0,0,0,.1-.079l.274-.237a11.373,11.373,0,0,1,1.066-.8,22.054,22.054,0,0,1,3.915-1.979,39.382,39.382,0,0,1,4.171-1.388c.548-.152.986-.262,1.3-.335l.347-.091a.487.487,0,0,0,.122-.043h-.128l-.353.067c-.311.061-.755.158-1.3.3a33.826,33.826,0,0,0-4.2,1.358,20.019,20.019,0,0,0-3.915,2.021A7.843,7.843,0,0,0,366.19,143.71Z" transform="translate(-343.496 -98.069)" fill="#fff"/>
      <path id="Path_53819" data-name="Path 53819" d="M333.622,219.868a.859.859,0,0,0,.237-.079,4.266,4.266,0,0,0,.609-.329,2.911,2.911,0,0,0,1.327-1.79,3.5,3.5,0,0,0-.237-2.229,2.93,2.93,0,0,0-.353-.609c-.1-.128-.164-.189-.171-.183a6.893,6.893,0,0,1,.444.81,3.611,3.611,0,0,1,.189,2.162,2.953,2.953,0,0,1-1.218,1.748C333.945,219.734,333.61,219.844,333.622,219.868Z" transform="translate(-282.061 -127.751)" fill="#fff"/>
      <path id="Path_53820" data-name="Path 53820" d="M334.607,212.39a3.045,3.045,0,0,0-.286.767,2.813,2.813,0,0,0-.17.8,2.5,2.5,0,0,0,.292-.761A2.436,2.436,0,0,0,334.607,212.39Z" transform="translate(-281.109 -126.867)" fill="#fff"/>
      <path id="Path_53821" data-name="Path 53821" d="M341.384,353.137l-18.571-.091.335-64.207.177-65.316,25.165-.323,4.524,8.524a30.614,30.614,0,0,1,3.477,11.045c.3,2.959-1.912,12.58-2.679,15.015l-6.923,21.957Z" transform="translate(-296.119 -131.095)" fill="#263238"/>
      <path id="Path_53822" data-name="Path 53822" d="M376.626,223.829l-20.41,55.634a25.658,25.658,0,0,0,2.515,21.737l23.7,46.276L395.751,330.8l-19.825-41.4L393.4,261.056l-2.941-37.142-8.232-.134Z" transform="translate(-354.87 -131.322)" fill="#263238"/>
      <path id="Path_53823" data-name="Path 53823" d="M376.809,254.47v.286c0,.189-.03.481-.055.84-.043.749-.1,1.827-.171,3.221-.14,2.819-.335,6.868-.609,11.867s-.505,10.96-.81,17.6c-.146,3.312-.3,6.789-.463,10.394-.116,1.827-.067,3.653-.085,5.48s0,3.751,0,5.663c0,15.3-.049,29.154-.067,39.194v15.113c0-.755,0-1.827.037-3.233,0-2.819.049-6.868.085-11.873.043-10.041.1-23.893.158-39.194v-5.663c0-1.863-.036-3.7.079-5.48.152-3.6.3-7.075.445-10.388.28-6.625.536-12.586.743-17.6s.359-9.048.475-11.867c.049-1.388.085-2.472.11-3.227v-.84C376.681,254.525,376.809,254.47,376.809,254.47Z" transform="translate(-347.911 -143.325)" fill="#455a64"/>
      <path id="Path_53824" data-name="Path 53824" d="M374.649,225.66a2.2,2.2,0,0,0-.128.609c-.067.39-.14.956-.225,1.662-.158,1.407-.329,3.361-.426,5.523s-.1,4.122-.073,5.541c0,.706.043,1.285.073,1.681a2.059,2.059,0,0,0,.073.609,17.393,17.393,0,0,0,.079-2.289c0-1.419.067-3.367.164-5.529s.231-4.1.335-5.48a20.523,20.523,0,0,0,.128-2.326Z" transform="translate(-345.281 -132.057)" fill="#455a64"/>
      <path id="Path_53825" data-name="Path 53825" d="M367.508,227.619c-.03.043.317.2.414.694a.8.8,0,0,1-.237.743.859.859,0,0,1-.913.164.877.877,0,0,1-.475-.8.8.8,0,0,1,.408-.664,1.479,1.479,0,0,1,.8-.14.451.451,0,0,0-.219-.128,1.035,1.035,0,0,0-.682.067.993.993,0,0,0-.609.846,1.09,1.09,0,0,0,1.875.865,1,1,0,0,0,.25-1,1.029,1.029,0,0,0-.39-.566C367.606,227.613,367.514,227.6,367.508,227.619Z" transform="translate(-334.049 -132.762)" fill="#455a64"/>
      <path id="Path_53826" data-name="Path 53826" d="M335.345,225.91a1.826,1.826,0,0,0-.164.609,5.762,5.762,0,0,0-.055,1.656,6.764,6.764,0,0,0,.7,2.356,6.241,6.241,0,0,0,4.761,3.416,6.6,6.6,0,0,0,2.436-.091,5.747,5.747,0,0,0,1.547-.578,1.93,1.93,0,0,0,.5-.341,11.045,11.045,0,0,1-2.095.7,6.4,6.4,0,0,1-7.654-5.48,10.594,10.594,0,0,1,.024-2.247Z" transform="translate(-292.144 -132.155)" fill="#455a64"/>
      <path id="Path_53827" data-name="Path 53827" d="M382.192,231.213a2.557,2.557,0,0,0,1.175-.14,5.425,5.425,0,0,0,2.393-1.534,5.352,5.352,0,0,0,1.3-2.533,2.436,2.436,0,0,0,0-1.175c-.055,0-.061.444-.244,1.126a5.888,5.888,0,0,1-3.544,3.9C382.636,231.109,382.186,231.152,382.192,231.213Z" transform="translate(-362.884 -132.123)" fill="#455a64"/>
      <path id="Path_53828" data-name="Path 53828" d="M389.65,332a3.884,3.884,0,0,0,1.078.859,5.042,5.042,0,0,0,1.382.609,3.324,3.324,0,0,0,1.869-.049,5.444,5.444,0,0,0,2.606-2.07,5,5,0,0,0,.712-1.169,7.075,7.075,0,0,0-.889,1.029,5.772,5.772,0,0,1-2.521,1.906,3.9,3.9,0,0,1-3.044-.444A11.936,11.936,0,0,0,389.65,332Z" transform="translate(-377.593 -172.936)" fill="#455a64"/>
      <path id="Path_53829" data-name="Path 53829" d="M388.68,335.758a15.408,15.408,0,0,0,1.918-2.436,15.834,15.834,0,0,0,1.668-2.612,14.885,14.885,0,0,0-1.924,2.436A14.557,14.557,0,0,0,388.68,335.758Z" transform="translate(-371.972 -173.143)" fill="#455a64"/>
      <path id="Path_53830" data-name="Path 53830" d="M342.2,256.915c.085.03.3-.317.487-.785s.268-.865.189-.9-.3.317-.481.785S342.119,256.915,342.2,256.915Z" transform="translate(-294.291 -143.62)" fill="#fafafa"/>
      <path id="Path_53831" data-name="Path 53831" d="M362.588,259.916c.091,0,.158-.3.158-.67s-.067-.676-.158-.676-.158.3-.158.676S362.5,259.916,362.588,259.916Z" transform="translate(-326.469 -144.928)" fill="#fafafa"/>
      <path id="Path_53832" data-name="Path 53832" d="M354.474,270.217c.085,0,.183-.365.213-.834s0-.846-.1-.852-.189.365-.219.834S354.389,270.21,354.474,270.217Z" transform="translate(-313.507 -148.824)" fill="#fafafa"/>
      <path id="Path_53833" data-name="Path 53833" d="M338.135,278.4c.073.055.323-.171.652-.4s.609-.408.609-.493-.4-.037-.773.231S338.062,278.4,338.135,278.4Z" transform="translate(-288.316 -152.319)" fill="#fafafa"/>
      <path id="Path_53834" data-name="Path 53834" d="M366.478,288.144c.073-.049,0-.311-.207-.609s-.4-.469-.469-.42,0,.317.207.609S366.405,288.192,366.478,288.144Z" transform="translate(-332.264 -156.089)" fill="#fafafa"/>
      <path id="Path_53835" data-name="Path 53835" d="M349.9,290.137c.085,0,.158-.505.158-1.12s-.073-1.126-.158-1.126-.158.505-.158,1.126A2.377,2.377,0,0,0,349.9,290.137Z" transform="translate(-306.052 -156.396)" fill="#fafafa"/>
      <path id="Path_53836" data-name="Path 53836" d="M342.775,302.209c.049.067.365-.073.706-.323s.609-.505.53-.578-.371.073-.712.323S342.72,302.136,342.775,302.209Z" transform="translate(-295.774 -161.636)" fill="#fafafa"/>
      <path id="Path_53837" data-name="Path 53837" d="M359.177,306.672c-.037.079.158.244.438.371s.536.158.572.079-.164-.244-.444-.371S359.208,306.593,359.177,306.672Z" transform="translate(-321.931 -163.725)" fill="#fafafa"/>
      <path id="Path_53838" data-name="Path 53838" d="M348.141,323.538c.073.037.39-.432.7-1.053s.5-1.157.42-1.218-.4.432-.7,1.053A3.036,3.036,0,0,0,348.141,323.538Z" transform="translate(-304.294 -169.448)" fill="#fafafa"/>
      <path id="Path_53839" data-name="Path 53839" d="M368.574,322.214c.079-.043-.061-.451-.3-.919s-.518-.81-.609-.767.061.451.311.919S368.5,322.257,368.574,322.214Z" transform="translate(-335.486 -169.159)" fill="#fafafa"/>
      <path id="Path_53840" data-name="Path 53840" d="M359.5,337.415c.091,0,.079-.493.177-1.066s.244-1.029.158-1.072-.378.39-.475,1.023S359.414,337.434,359.5,337.415Z" transform="translate(-321.693 -174.929)" fill="#fafafa"/>
      <path id="Path_53841" data-name="Path 53841" d="M349.772,346.84c.061.061.365-.17.676-.511s.511-.664.444-.725-.365.17-.676.511S349.7,346.779,349.772,346.84Z" transform="translate(-306.912 -178.965)" fill="#fafafa"/>
      <path id="Path_53842" data-name="Path 53842" d="M372.985,350.192c.061-.061-.164-.39-.505-.737s-.658-.572-.725-.511.164.4.5.737S372.918,350.253,372.985,350.192Z" transform="translate(-342.388 -180.271)" fill="#fafafa"/>
      <path id="Path_53843" data-name="Path 53843" d="M360.452,362.947c.085,0,.085-.481,0-1.041s-.219-1-.311-.986-.085.475,0,1.035S360.366,362.96,360.452,362.947Z" transform="translate(-322.804 -184.959)" fill="#fafafa"/>
      <path id="Path_53844" data-name="Path 53844" d="M350.848,369.672c.079.043.347-.274.609-.706s.4-.816.323-.859-.341.268-.609.7S350.775,369.624,350.848,369.672Z" transform="translate(-308.456 -187.768)" fill="#fafafa"/>
      <path id="Path_53845" data-name="Path 53845" d="M368.576,378.781c-.055.073.256.384.694.694s.822.505.877.432-.262-.384-.694-.694S368.625,378.714,368.576,378.781Z" transform="translate(-337.614 -191.939)" fill="#fafafa"/>
      <path id="Path_53846" data-name="Path 53846" d="M355.865,387.877c.085-.03,0-.518-.079-1.126s-.03-1.108-.122-1.12-.25.5-.189,1.151S355.786,387.913,355.865,387.877Z" transform="translate(-315.379 -194.623)" fill="#fafafa"/>
      <path id="Path_53847" data-name="Path 53847" d="M360.279,403.711c.073.055.329-.152.578-.463s.39-.609.323-.664-.323.152-.572.463S360.212,403.656,360.279,403.711Z" transform="translate(-323.599 -201.251)" fill="#fafafa"/>
      <path id="Path_53848" data-name="Path 53848" d="M352.9,413.423c.073.049.408-.311.749-.81s.554-.938.487-.986-.408.311-.749.81S352.831,413.375,352.9,413.423Z" transform="translate(-312.065 -204.789)" fill="#fafafa"/>
      <path id="Path_53849" data-name="Path 53849" d="M374.038,401.273c.079-.03.073-.256,0-.5s-.237-.426-.323-.4-.073.256,0,.505S373.953,401.309,374.038,401.273Z" transform="translate(-344.653 -200.39)" fill="#fafafa"/>
      <path id="Path_53850" data-name="Path 53850" d="M365.983,424.7c.079-.043-.073-.475-.195-1.017s-.164-1-.256-1-.183.487-.055,1.072S365.91,424.75,365.983,424.7Z" transform="translate(-331.543 -209.114)" fill="#fafafa"/>
      <path id="Path_53851" data-name="Path 53851" d="M369.884,270.668c.079.037.274-.207.432-.548s.225-.645.146-.682-.274.207-.432.548S369.793,270.631,369.884,270.668Z" transform="translate(-338.733 -149.178)" fill="#fafafa"/>
      <path id="Path_53852" data-name="Path 53852" d="M354.217,240.311c-.049.073.378.414.834.9s.767.938.846.9-.128-.609-.609-1.108S354.278,240.232,354.217,240.311Z" transform="translate(-314.632 -137.782)" fill="#fafafa"/>
      <path id="Path_53853" data-name="Path 53853" d="M368.055,238.982c.091,0,.231-.347.445-.761s.408-.755.341-.816-.4.207-.609.67S367.976,238.933,368.055,238.982Z" transform="translate(-335.978 -136.647)" fill="#fafafa"/>
      <path id="Path_53854" data-name="Path 53854" d="M331.483,249.025c.079-.037,0-.438-.189-.9s-.4-.822-.481-.785,0,.432.189.9S331.379,249.055,331.483,249.025Z" transform="translate(-275.964 -140.535)" fill="#fafafa"/>
      <path id="Path_53855" data-name="Path 53855" d="M329.861,264.481c.061.067.408-.128.779-.438s.609-.609.572-.682-.408.128-.779.438S329.807,264.414,329.861,264.481Z" transform="translate(-275.103 -146.796)" fill="#fafafa"/>
      <path id="Path_53856" data-name="Path 53856" d="M356.573,227.614c.079,0,.25-.195.371-.505s.158-.609.079-.609-.25.195-.371.505S356.494,227.584,356.573,227.614Z" transform="translate(-317.196 -132.386)" fill="#fafafa"/>
      <path id="Path_53857" data-name="Path 53857" d="M381.813,234.7c.085,0,.079-.384,0-.816s-.237-.773-.323-.755-.079.39,0,.822S381.728,234.719,381.813,234.7Z" transform="translate(-357.165 -134.978)" fill="#fafafa"/>
      <path id="Path_53858" data-name="Path 53858" d="M387.983,245.911c.079-.037-.03-.487-.25-1.017s-.457-.926-.536-.9,0,.487.244,1.017S387.9,245.941,387.983,245.911Z" transform="translate(-366.793 -139.229)" fill="#fafafa"/>
      <path id="Path_53859" data-name="Path 53859" d="M381.486,255.06c.079.037.371-.384.652-.938s.438-1.047.359-1.084-.365.384-.645.938S381.407,255.017,381.486,255.06Z" transform="translate(-357.831 -142.764)" fill="#fafafa"/>
      <path id="Path_53860" data-name="Path 53860" d="M392.369,264.64c.079-.03,0-.384-.134-.785s-.347-.706-.432-.676,0,.384.134.785S392.259,264.67,392.369,264.64Z" transform="translate(-373.986 -146.73)" fill="#fafafa"/>
      <path id="Path_53861" data-name="Path 53861" d="M383.138,274.03c.073.049.262-.116.414-.359s.225-.487.146-.536-.256.116-.414.365S383.065,273.987,383.138,274.03Z" transform="translate(-360.042 -150.621)" fill="#fafafa"/>
      <path id="Path_53862" data-name="Path 53862" d="M383.334,292.232c.061.055.444-.244.846-.682s.676-.834.609-.9-.444.244-.846.682S383.267,292.171,383.334,292.232Z" transform="translate(-361.243 -157.474)" fill="#fafafa"/>
      <path id="Path_53863" data-name="Path 53863" d="M393.844,281.527c.067.055.4-.25.743-.688s.56-.828.493-.883-.4.256-.743.688S393.771,281.478,393.844,281.527Z" transform="translate(-377.933 -153.29)" fill="#fafafa"/>
      <path id="Path_53864" data-name="Path 53864" d="M402.363,296.084c.079-.037-.061-.493-.311-1.017s-.511-.926-.609-.889.055.5.3,1.023S402.284,296.127,402.363,296.084Z" transform="translate(-389.844 -158.854)" fill="#fafafa"/>
      <path id="Path_53865" data-name="Path 53865" d="M387.221,308.586c.079.043.359-.292.749-.652s.749-.609.712-.7-.5.073-.926.469S387.148,308.543,387.221,308.586Z" transform="translate(-367.493 -163.952)" fill="#fafafa"/>
      <path id="Path_53866" data-name="Path 53866" d="M388.14,321.9c0,.085.3.158.676.158s.67-.073.67-.158-.3-.158-.67-.158S388.14,321.813,388.14,321.9Z" transform="translate(-368.862 -169.635)" fill="#fafafa"/>
      <path id="Path_53867" data-name="Path 53867" d="M403.056,317.346c.079-.043-.079-.426-.195-.9s-.164-.889-.256-.9-.189.438-.055.968S402.989,317.395,403.056,317.346Z" transform="translate(-391.188 -167.214)" fill="#fafafa"/>
      <path id="Path_53868" data-name="Path 53868" d="M413.435,321.419c.079.03.3-.4.5-.956s.286-1.029.207-1.053-.311.4-.505.95S413.35,321.388,413.435,321.419Z" transform="translate(-408.929 -168.723)" fill="#fafafa"/>
      <path id="Path_53869" data-name="Path 53869" d="M413.8,338.535c.073-.043-.116-.554-.42-1.145s-.609-1.035-.7-.992.11.554.42,1.139S413.717,338.59,413.8,338.535Z" transform="translate(-408.115 -175.367)" fill="#fafafa"/>
      <path id="Path_53870" data-name="Path 53870" d="M400.278,348.708c.079.03.329-.39.56-.944s.347-1.029.262-1.066-.329.39-.554.944S400.2,348.708,400.278,348.708Z" transform="translate(-387.881 -179.396)" fill="#fafafa"/>
      <path id="Path_53871" data-name="Path 53871" d="M387.58,353.808c0,.085.256.158.566.158s.56-.073.56-.158-.256-.158-.56-.158S387.58,353.723,387.58,353.808Z" transform="translate(-367.742 -182.115)" fill="#fafafa"/>
      <path id="Path_53872" data-name="Path 53872" d="M395.668,368.92c.079,0,.25-.335.378-.8s.152-.865.067-.883-.25.335-.378.8S395.583,368.871,395.668,368.92Z" transform="translate(-380.092 -187.43)" fill="#fafafa"/>
      <path id="Path_53873" data-name="Path 53873" d="M388.238,363.877c.073-.043,0-.329-.2-.639s-.4-.524-.475-.481,0,.335.2.645S388.159,363.926,388.238,363.877Z" transform="translate(-367.274 -185.675)" fill="#fafafa"/>
      <path id="Path_53874" data-name="Path 53874" d="M386.98,381.082c.085,0,.207-.408.268-.938s.043-.962-.043-.974-.207.408-.268.938S386.894,381.07,386.98,381.082Z" transform="translate(-365.905 -192.096)" fill="#fafafa"/>
    </g>
  </g>
</svg>
