<svg xmlns="http://www.w3.org/2000/svg" width="1170" height="413.34" viewBox="0 0 1170 413.34">
  <g id="Group_16845" data-name="Group 16845" transform="translate(-52 -6717.66)">
    <g id="Group_16306" data-name="Group 16306" transform="translate(1109 7107)">
      <path id="Path_50057" data-name="Path 50057" d="M0,0H24V24H0Z" fill="none"/>
      <path id="Path_50058" data-name="Path 50058" d="M22.162,5.656a8.384,8.384,0,0,1-2.4.658A4.2,4.2,0,0,0,21.6,4a8.358,8.358,0,0,1-2.656,1.015,4.182,4.182,0,0,0-7.126,3.814A11.874,11.874,0,0,1,3.2,4.459a4.188,4.188,0,0,0,1.294,5.584A4.168,4.168,0,0,1,2.6,9.52v.052a4.185,4.185,0,0,0,3.354,4.1,4.21,4.21,0,0,1-1.889.072A4.185,4.185,0,0,0,7.97,16.65a8.394,8.394,0,0,1-6.191,1.732,11.83,11.83,0,0,0,6.41,1.88,11.819,11.819,0,0,0,11.9-11.9c0-.18,0-.362-.013-.54a8.5,8.5,0,0,0,2.087-2.165Z" fill="#6d718f"/>
    </g>
    <g id="Group_16308" data-name="Group 16308" transform="translate(1198 7107)">
      <path id="Path_50061" data-name="Path 50061" d="M0,0H24V24H0Z" fill="none"/>
      <path id="Path_50062" data-name="Path 50062" d="M12,22A10,10,0,1,1,22,12,10,10,0,0,1,12,22ZM8.89,13.17l.013-.007.87,2.87c.112.311.266.367.453.341a.692.692,0,0,0,.41-.244l1.188-1.148,2.55,1.888c.466.257.8.124.917-.432l1.657-7.822c.183-.728-.137-1.02-.7-.788l-9.733,3.76c-.664.266-.66.638-.12.8l2.5.78Z" fill="#6d718f"/>
    </g>
    <g id="Group_16842" data-name="Group 16842" transform="translate(1153 7107)">
      <path id="Path_50185" data-name="Path 50185" d="M0,0H24V24H0Z" fill="none"/>
      <path id="Path_50186" data-name="Path 50186" d="M12,2c2.717,0,3.056.01,4.122.06a7.367,7.367,0,0,1,2.428.465,4.876,4.876,0,0,1,1.772,1.153A4.908,4.908,0,0,1,21.475,5.45a7.387,7.387,0,0,1,.465,2.428C21.987,8.944,22,9.283,22,12s-.01,3.056-.06,4.122a7.393,7.393,0,0,1-.465,2.428,5.106,5.106,0,0,1-2.925,2.925,7.387,7.387,0,0,1-2.428.465c-1.066.047-1.4.06-4.122.06s-3.056-.01-4.122-.06a7.393,7.393,0,0,1-2.428-.465A5.106,5.106,0,0,1,2.525,18.55a7.361,7.361,0,0,1-.465-2.428C2.013,15.056,2,14.717,2,12s.01-3.056.06-4.122A7.361,7.361,0,0,1,2.525,5.45,4.88,4.88,0,0,1,3.678,3.678,4.9,4.9,0,0,1,5.45,2.525,7.361,7.361,0,0,1,7.878,2.06C8.944,2.013,9.283,2,12,2Zm0,5a5,5,0,1,0,5,5A5,5,0,0,0,12,7Zm6.5-.25A1.25,1.25,0,1,0,17.25,8,1.25,1.25,0,0,0,18.5,6.75ZM12,9a3,3,0,1,1-3,3A3,3,0,0,1,12,9Z" fill="#6d718f"/>
    </g>
    <g id="Group_16843" data-name="Group 16843" transform="translate(1019 7107)">
      <path id="Path_50187" data-name="Path 50187" d="M0,0H24V24H0Z" fill="none"/>
      <path id="Path_50188" data-name="Path 50188" d="M21.543,6.5A31.058,31.058,0,0,1,22,12a31.058,31.058,0,0,1-.457,5.5A2.811,2.811,0,0,1,19.6,19.524C17.9,20,12,20,12,20s-5.893,0-7.605-.476A2.811,2.811,0,0,1,2.457,17.5,31.058,31.058,0,0,1,2,12a31.058,31.058,0,0,1,.457-5.5A2.811,2.811,0,0,1,4.395,4.476C6.107,4,12,4,12,4s5.9,0,7.6.476A2.811,2.811,0,0,1,21.543,6.5ZM10,15.5,16,12,10,8.5Z" fill="#6d718f"/>
    </g>
    <g id="Group_16844" data-name="Group 16844" transform="translate(1064 7107)">
      <path id="Path_50187-2" data-name="Path 50187" d="M0,0H24V24H0Z" fill="none"/>
      <g id="aparat" transform="translate(3 3)">
        <path id="Path_25" data-name="Path 25" d="M103.218-462.655a4.575,4.575,0,0,0-.637.259,3,3,0,0,0-1.287,1.264,15.438,15.438,0,0,0-.637,2.1c-.023.086.146-.059.618-.527a8.54,8.54,0,0,1,2.979-2,11.134,11.134,0,0,1,1.955-.55c.132-.018.232-.041.218-.05s-.437-.132-.946-.273a5.15,5.15,0,0,0-1.469-.268A2.662,2.662,0,0,0,103.218-462.655Z" transform="translate(-98.216 462.71)" fill="#6d718f"/>
        <path id="Path_26" data-name="Path 26" d="M82.52-435.683a8.354,8.354,0,0,0-2.765.773A8.178,8.178,0,0,0,75.14-428.7a10.737,10.737,0,0,0,0,2.356,8.178,8.178,0,0,0,4.616,6.207,8.286,8.286,0,0,0,8.208-.609,8.207,8.207,0,0,0,3.511-5.32,11.984,11.984,0,0,0,0-2.91,8.207,8.207,0,0,0-3.511-5.32A8.355,8.355,0,0,0,82.52-435.683Zm-1.073,2.228a2.346,2.346,0,0,1,1.787,2.838,2.35,2.35,0,0,1-3.929,1.064,2.255,2.255,0,0,1,.014-3.251A2.284,2.284,0,0,1,81.447-433.455Zm6.007,1.155a2.284,2.284,0,0,1,1.76,2.224,2.128,2.128,0,0,1-.659,1.642,2.375,2.375,0,0,1-1.119.637,2.241,2.241,0,0,1-1.614-.2,2.288,2.288,0,0,1-1.232-2.46,2.154,2.154,0,0,1,.646-1.205,2.18,2.18,0,0,1,1.637-.7A2.564,2.564,0,0,1,87.454-432.3Zm-3.711,3.929a.988.988,0,0,1,.559.873,1.014,1.014,0,0,1-1.478.932.767.767,0,0,1-.473-.482A1.016,1.016,0,0,1,83.743-428.371Zm-3.529,1.1a2.818,2.818,0,0,1,.614.227,2.288,2.288,0,0,1,1.232,2.46,2.154,2.154,0,0,1-.646,1.205,2.289,2.289,0,0,1-2.742.432,2.321,2.321,0,0,1-.846-3.361A2.394,2.394,0,0,1,80.215-427.275Zm6.062,1.164a2.333,2.333,0,0,1,1.705,2.71,2.551,2.551,0,0,1-1.223,1.6,2.349,2.349,0,0,1-2.715-.418,2.3,2.3,0,0,1-.014-3.279A2.379,2.379,0,0,1,86.276-426.111Z" transform="translate(-73.798 436.948)" fill="#6d718f"/>
        <path id="Path_27" data-name="Path 27" d="M377-411.32a.791.791,0,0,0,.2.182,9.627,9.627,0,0,1,1.8,1.992,9.072,9.072,0,0,1,1.364,3.465,1.009,1.009,0,0,0,.077.314c.009-.014.15-.518.314-1.128a5.365,5.365,0,0,0,.291-1.519,2.84,2.84,0,0,0-.864-2.074,3.47,3.47,0,0,0-1.842-.9c-.4-.1-.864-.227-1.032-.273A.828.828,0,0,0,377-411.32Z" transform="translate(-361.994 413.662)" fill="#6d718f"/>
        <path id="Path_28" data-name="Path 28" d="M47.5-224.321c0,.018-.114.455-.25.973a4.663,4.663,0,0,0-.25,1.355,2.836,2.836,0,0,0,.859,2.069,3.636,3.636,0,0,0,2.014.955c.532.141.978.25.987.246s-.041-.064-.114-.118A14.076,14.076,0,0,1,49.4-220.2a9.145,9.145,0,0,1-1.76-3.665C47.555-224.248,47.5-224.426,47.5-224.321Z" transform="translate(-47 235.19)" fill="#6d718f"/>
        <path id="Path_29" data-name="Path 29" d="M290.765-136.078c-.1.132-.368.427-.6.659a9.116,9.116,0,0,1-4.566,2.474,4.4,4.4,0,0,0-.491.114c-.018.018-.023.018,1.037.3a3.375,3.375,0,0,0,2.81-.055,2.953,2.953,0,0,0,1.414-1.523c.118-.3.6-2.11.587-2.165C290.952-136.3,290.865-136.205,290.765-136.078Z" transform="translate(-274.281 151.121)" fill="#6d718f"/>
      </g>
    </g>
  </g>
  <g id="Group_17269" data-name="Group 17269" transform="translate(-42 -7086.66)">
    <rect id="Rectangle_6364" data-name="Rectangle 6364" width="35" height="60" rx="5" transform="translate(663 7160)" fill="#efa00b"/>
    <g id="Group_17268" data-name="Group 17268" transform="translate(669 7178)">
      <path id="Path_51281" data-name="Path 51281" d="M0,0H24V24H0Z" fill="none"/>
      <path id="Path_51282" data-name="Path 51282" d="M13,7.828V20H11V7.828L5.636,13.192,4.222,11.778,12,4l7.778,7.778-1.414,1.414Z" fill="#fff"/>
    </g>
  </g>
  <g id="Group_17434" data-name="Group 17434" transform="translate(39.295 1)">
    <line id="Line_85" data-name="Line 85" x2="7.679" transform="translate(-31 24.189)" fill="none" stroke="#343434" stroke-linecap="round" stroke-miterlimit="10" stroke-width="2"/>
    <line id="Line_86" data-name="Line 86" x2="7.679" transform="translate(-5.275 14.974)" fill="none" stroke="#343434" stroke-linecap="round" stroke-miterlimit="10" stroke-width="2"/>
    <line id="Line_87" data-name="Line 87" x2="7.679" transform="translate(-11.418 9.983)" fill="none" stroke="#343434" stroke-linecap="round" stroke-miterlimit="10" stroke-width="2"/>
    <path id="Path_50203" data-name="Path 50203" d="M489.55,788.282a6.529,6.529,0,0,1,13.016.745" transform="translate(-484.036 -782.5)" fill="none" stroke="#343434" stroke-linecap="round" stroke-miterlimit="10" stroke-width="2"/>
    <path id="Path_50204" data-name="Path 50204" d="M503.6,791h3.072a4.224,4.224,0,1,1,0,8.447H494" transform="translate(-485.069 -784.473)" fill="none" stroke="#343434" stroke-linecap="round" stroke-miterlimit="10" stroke-width="2"/>
    <path id="Path_50205" data-name="Path 50205" d="M483.06,793.962A4.611,4.611,0,0,1,487.621,790a3.782,3.782,0,0,1,.422.023" transform="translate(-482.53 -784.241)" fill="none" stroke="#343434" stroke-linecap="round" stroke-miterlimit="10" stroke-width="2"/>
  </g>
  <path id="Path_51573" data-name="Path 51573" d="M504.752,872.126a16.118,16.118,0,0,1-13.822,15.957,15.2,15.2,0,0,1-2.3.169,16.126,16.126,0,0,1,0-32.252,15.2,15.2,0,0,1,2.3.169A16.118,16.118,0,0,1,504.752,872.126Z" transform="translate(-440.784 -798.559)" fill="#efa00b"/>
  <path id="Path_51574" data-name="Path 51574" d="M490.93,888.083a15.2,15.2,0,0,1-2.3.169,16.126,16.126,0,0,1,0-32.252,15.2,15.2,0,0,1,2.3.169,16.122,16.122,0,0,0,0,31.914Z" transform="translate(-440.784 -798.559)" fill="#efa00b"/>
  <path id="Path_51575" data-name="Path 51575" d="M509.626,872.14a16.111,16.111,0,0,1-15.036,16.08c-.369-.023-.73-.069-1.09-.123a16.122,16.122,0,0,0,0-31.914c.361-.054.722-.1,1.09-.123A16.111,16.111,0,0,1,509.626,872.14Z" transform="translate(-445.658 -798.573)" fill="#efbc59" opacity="0.64"/>
  <path id="Path_51576" data-name="Path 51576" d="M504.752,872.126a16.111,16.111,0,0,1-15.036,16.08c-.361.031-.722.046-1.09.046a16.126,16.126,0,0,1,0-32.252c.369,0,.73.015,1.09.046A16.111,16.111,0,0,1,504.752,872.126Z" transform="translate(-440.784 -798.559)" fill="none" stroke="#343434" stroke-linecap="round" stroke-miterlimit="10" stroke-width="2"/>
  <g id="Group_17435" data-name="Group 17435" transform="translate(46.691 72.416)">
    <path id="Path_50223" data-name="Path 50223" d="M494.3,876.652v25.725H492V876.652a1.152,1.152,0,0,1,2.3,0Z" transform="translate(-492 -875.5)" fill="#fff"/>
  </g>
  <g id="Group_17436" data-name="Group 17436" transform="translate(47.075 77.023)">
    <path id="Path_50224" data-name="Path 50224" d="M493.209,886.107a.709.709,0,0,1-.5-1.21l3.19-3.19a.709.709,0,0,1,1,1l-3.19,3.19A.709.709,0,0,1,493.209,886.107Z" transform="translate(-492.5 -881.5)" fill="#fff"/>
  </g>
  <g id="Group_17437" data-name="Group 17437" transform="translate(46.69 77.407)">
    <path id="Path_50225" data-name="Path 50225" d="M492.384,886.223a.384.384,0,0,1-.272-.656l3.456-3.456a.384.384,0,1,1,.544.544l-3.456,3.456A.386.386,0,0,1,492.384,886.223Z" transform="translate(-492 -882)" fill="#343434"/>
  </g>
  <g id="Group_17438" data-name="Group 17438" transform="translate(44.387 75.487)">
    <path id="Path_50226" data-name="Path 50226" d="M492.2,881.7l-1.993-1.994a.709.709,0,1,0-1,1l3.19,3.19A12.844,12.844,0,0,0,492.2,881.7Z" transform="translate(-489 -879.5)" fill="#fff"/>
  </g>
  <g id="Group_17439" data-name="Group 17439" transform="translate(44.038 75.872)">
    <path id="Path_50227" data-name="Path 50227" d="M492.733,884.608a22.229,22.229,0,0,0-1.2-2.207l-2.278-2.278a.419.419,0,1,0-.592.592s1.553,1.527,2.741,2.669C492.116,884.065,492.693,884.608,492.733,884.608Z" transform="translate(-488.545 -880)" fill="#343434"/>
  </g>
  <g id="Group_17440" data-name="Group 17440" transform="translate(46.691 73.184)">
    <path id="Path_50228" data-name="Path 50228" d="M493.536,877.268v25.341H492V877.268a.768.768,0,0,1,1.536,0Z" transform="translate(-492 -876.5)" fill="#343434"/>
  </g>
  <path id="Path_51580" data-name="Path 51580" d="M479.023,854.261a23.24,23.24,0,0,1-21.689,23.2c-.521.044-1.041.066-1.573.066a23.262,23.262,0,1,1,0-46.523c.531,0,1.052.022,1.573.067A23.239,23.239,0,0,1,479.023,854.261Z" transform="translate(-431.5 -792.756)" fill="#efa00b"/>
  <path id="Path_51577" data-name="Path 51577" d="M459.084,877.28a21.978,21.978,0,0,1-3.323.243,23.262,23.262,0,1,1,0-46.523,21.963,21.963,0,0,1,3.323.243,23.256,23.256,0,0,0,0,46.036Z" transform="translate(-431.5 -792.756)" fill="#ffb11d"/>
  <path id="Path_51578" data-name="Path 51578" d="M486.054,854.282a23.24,23.24,0,0,1-21.689,23.2c-.531-.034-1.052-.1-1.573-.177a23.256,23.256,0,0,0,0-46.036c.521-.078,1.041-.144,1.573-.177A23.239,23.239,0,0,1,486.054,854.282Z" transform="translate(-438.53 -792.776)" fill="#f0cb85" opacity="0.64"/>
  <path id="Path_51579" data-name="Path 51579" d="M479.023,854.261a23.24,23.24,0,0,1-21.689,23.2c-.521.044-1.041.066-1.573.066a23.262,23.262,0,1,1,0-46.523c.531,0,1.052.022,1.573.067A23.239,23.239,0,0,1,479.023,854.261Z" transform="translate(-431.5 -792.756)" fill="none" stroke="#343434" stroke-linecap="round" stroke-miterlimit="10" stroke-width="2"/>
  <g id="Group_17441" data-name="Group 17441" transform="translate(22.601 59.845)">
    <path id="Path_50233" data-name="Path 50233" d="M463.955,860.789v37.666a.662.662,0,0,1-.008.123h-3.31a.659.659,0,0,1-.008-.123V860.789a1.663,1.663,0,0,1,3.325,0Z" transform="translate(-460.63 -859.13)" fill="#fff"/>
  </g>
  <g id="Group_17442" data-name="Group 17442" transform="translate(23.154 66.49)">
    <path id="Path_50234" data-name="Path 50234" d="M462.372,874.429a1.022,1.022,0,0,1-.723-1.745l4.6-4.6a1.023,1.023,0,0,1,1.446,1.446l-4.6,4.6A1.021,1.021,0,0,1,462.372,874.429Z" transform="translate(-461.35 -867.783)" fill="#fff"/>
  </g>
  <g id="Group_17443" data-name="Group 17443" transform="translate(22.6 67.044)">
    <path id="Path_50235" data-name="Path 50235" d="M461.183,874.6a.554.554,0,0,1-.392-.945l4.984-4.984a.554.554,0,1,1,.783.783l-4.985,4.984A.549.549,0,0,1,461.183,874.6Z" transform="translate(-460.629 -868.505)" fill="#343434"/>
  </g>
  <g id="Group_17444" data-name="Group 17444" transform="translate(19.277 64.274)">
    <path id="Path_50236" data-name="Path 50236" d="M460.922,868.074l-2.876-2.877a1.022,1.022,0,1,0-1.446,1.446l4.6,4.6A18.609,18.609,0,0,0,460.922,868.074Z" transform="translate(-456.301 -864.898)" fill="#fff"/>
  </g>
  <g id="Group_17445" data-name="Group 17445" transform="translate(18.772 64.829)">
    <path id="Path_50237" data-name="Path 50237" d="M461.686,872.265a32.076,32.076,0,0,0-1.725-3.184l-3.285-3.285a.6.6,0,0,0-.854.855s2.241,2.2,3.953,3.85C460.8,871.482,461.628,872.265,461.686,872.265Z" transform="translate(-455.644 -865.62)" fill="#343434"/>
  </g>
  <g id="Group_17446" data-name="Group 17446" transform="translate(22.601 60.951)">
    <path id="Path_50238" data-name="Path 50238" d="M462.842,861.676v37.236H460.63V861.676a1.106,1.106,0,0,1,2.212,0Z" transform="translate(-460.63 -860.57)" fill="#343434"/>
  </g>
</svg>
