<svg xmlns="http://www.w3.org/2000/svg" xmlns:xlink="http://www.w3.org/1999/xlink" width="437.499" height="279.831" viewBox="0 0 437.499 279.831">
  <defs>
    <clipPath id="clip-path">
      <path id="Path_59424" data-name="Path 59424" d="M163.457,242.33a1.807,1.807,0,1,0,3.1,0h2.09a1.828,1.828,0,0,0-.255.914,1.807,1.807,0,1,0,3.359-.914h2.126a1.757,1.757,0,0,0-.255.914,1.807,1.807,0,1,0,3.359-.914h2.09a1.757,1.757,0,0,0-.255.914,1.807,1.807,0,1,0,3.607,0,1.758,1.758,0,0,0-.255-.914h2.09a1.807,1.807,0,1,0,3.359.914,1.757,1.757,0,0,0-.255-.914h2.055a1.807,1.807,0,1,0,3.1,0h1.311v37.323H162.77V242.33Z" transform="translate(-162.77 -242.33)" fill="none"/>
    </clipPath>
  </defs>
  <g id="Telecommuting-pana_1_" data-name="Telecommuting-pana (1)" transform="translate(0)">
    <g id="freepik--background-simple--inject-4" transform="translate(37.694)">
      <path id="Path_59335" data-name="Path 59335" d="M161.025,122.04l1.927-3.671c15.235-29.054,45.288-47.591,78.069-47.3a85.035,85.035,0,0,1,11.218.836c29.762,4.209,56.789,24.384,69.275,51.73,7.348,16.079,10.374,34.964,23.08,47.265,16.525,16,42.666,14.768,65.562,12.5s49.051-3.437,65.513,12.642C485.958,206.09,498,233.068,498.2,247.467c.531,38.152-25.794,74.994-61.3,88.961C399.6,351.1,356.124,353.485,318.262,348.6c-53.005-6.859-100.476-33.412-133.371-75.54S140.347,171.3,161.025,122.04Z" transform="translate(-150.709 -71.065)" fill="#e0e0e0"/>
    </g>
    <g id="freepik--Chair--inject-4" transform="translate(59.111 173.333)">
      <path id="Path_59336" data-name="Path 59336" d="M545.9,325.711a11.621,11.621,0,0,0-11.338-9.758c-24.476-.326-86.793-.886-90.137,1.764-4.167,3.309-6.378,5-6.016,10.254.3,4.819,5.556,88.075,5.556,88.075H560.611Z" transform="translate(-438.37 -315.669)" fill="#372c51"/>
      <path id="Path_59337" data-name="Path 59337" d="M595.92,418.735a1.771,1.771,0,0,0,.035-.248,3.5,3.5,0,0,1,.057-.709c.05-.652.12-1.587.206-2.771s.184-2.686.241-4.4.17-3.671.17-5.832c0-1.084,0-2.218.035-3.394s0-2.409-.042-3.678c0-2.544-.149-5.258-.269-8.114-.326-5.712-.865-11.976-1.736-18.516s-2.062-12.755-3.274-18.318c-.645-2.785-1.24-5.435-1.906-7.894-.326-1.226-.617-2.416-.943-3.543s-.645-2.218-.942-3.26c-.581-2.083-1.212-3.933-1.722-5.577s-1-3.033-1.417-4.174-.709-2-.935-2.622l-.255-.709c-.057-.149-.092-.227-.092-.227a1.123,1.123,0,0,0,.057.241l.22.709c.205.631.5,1.516.872,2.65s.857,2.544,1.346,4.188,1.105,3.5,1.665,5.584c.3,1.042.6,2.126.921,3.267s.6,2.331.921,3.543c.652,2.452,1.233,5.109,1.871,7.887,1.2,5.584,2.331,11.763,3.238,18.3s1.417,12.755,1.764,18.481c.128,2.835.284,5.563.3,8.107,0,1.268.064,2.494.064,3.671v3.387c0,2.161-.078,4.117-.12,5.832s-.106,3.189-.17,4.393-.106,2.126-.135,2.785v.709a1.333,1.333,0,0,0-.028.255Z" transform="translate(-577.018 -318.315)" fill="#fff"/>
      <path id="Path_59338" data-name="Path 59338" d="M490.027,375.172a.414.414,0,0,1-.177-.071,1.716,1.716,0,0,0-.539,0,2.431,2.431,0,0,0-1.708,1.006,2.785,2.785,0,0,0-.17,2.905,3.721,3.721,0,0,0,1.134,1.368,3.543,3.543,0,0,0,1.807.631,2.934,2.934,0,0,0,1.864-.489,2.324,2.324,0,0,0,.964-1.516,3.167,3.167,0,0,0-.893-2.792c-1.311-1.12-2.466-1.155-2.445-1.049s.064,0,.177,0a2.95,2.95,0,0,1,.5.17,5.124,5.124,0,0,1,1.587,1.028,2.948,2.948,0,0,1,.744,2.544,1.977,1.977,0,0,1-.836,1.283,2.565,2.565,0,0,1-1.63.418,3.182,3.182,0,0,1-1.623-.56,3.224,3.224,0,0,1-1.042-1.219,2.537,2.537,0,0,1,.078-2.608,2.416,2.416,0,0,1,1.509-1.013,5.666,5.666,0,0,1,.7-.035Z" transform="translate(-405.542 -332.98)" fill="#263238"/>
      <path id="Path_59339" data-name="Path 59339" d="M494.88,360.188c0,.078,1.2-.142,3.132.035a14.357,14.357,0,0,1,11.763,8.27c.829,1.75,1.028,2.948,1.105,2.934a3.343,3.343,0,0,0-.135-.843,12.05,12.05,0,0,0-.709-2.2,13.96,13.96,0,0,0-12-8.4,12.577,12.577,0,0,0-2.317.064A3.252,3.252,0,0,0,494.88,360.188Z" transform="translate(-428.684 -328.575)" fill="#263238"/>
      <path id="Path_59340" data-name="Path 59340" d="M484.084,388.381a2.452,2.452,0,0,0-.276-.6,9.049,9.049,0,0,0-1.028-1.474,10.934,10.934,0,0,0-10.757-3.671,9.675,9.675,0,0,0-1.715.546,2.566,2.566,0,0,0-.588.3c0,.071.879-.333,2.353-.6a11.4,11.4,0,0,1,10.516,3.586C483.588,387.58,484.02,388.416,484.084,388.381Z" transform="translate(-384.058 -335.106)" fill="#263238"/>
      <path id="Path_59341" data-name="Path 59341" d="M494.07,391.534a4.521,4.521,0,0,0,1.2-.865,13.37,13.37,0,0,0,2.317-2.728,13.066,13.066,0,0,0,1.509-3.238,4.253,4.253,0,0,0,.291-1.453,26.157,26.157,0,0,1-2.126,4.493,27.433,27.433,0,0,1-3.189,3.791Z" transform="translate(-416.614 -335.361)" fill="#263238"/>
      <path id="Path_59342" data-name="Path 59342" d="M545.591,376.561a.78.78,0,0,0-.177-.071,1.716,1.716,0,0,0-.539,0,2.459,2.459,0,0,0-1.708,1.006,2.835,2.835,0,0,0-.177,2.905,3.741,3.741,0,0,0,1.141,1.368,3.544,3.544,0,0,0,1.807.631,2.934,2.934,0,0,0,1.864-.489,2.353,2.353,0,0,0,.964-1.516,3.168,3.168,0,0,0-.886-2.842c-1.311-1.113-2.466-1.155-2.445-1.049s.064,0,.177.035a2.948,2.948,0,0,1,.5.17,5.124,5.124,0,0,1,1.587,1.027,2.948,2.948,0,0,1,.709,2.544,2.005,2.005,0,0,1-.836,1.283,2.566,2.566,0,0,1-1.63.418,3.182,3.182,0,0,1-1.623-.56,3.225,3.225,0,0,1-1.042-1.219,2.537,2.537,0,0,1,.078-2.608,2.416,2.416,0,0,1,1.509-1.013A5.663,5.663,0,0,1,545.591,376.561Z" transform="translate(-500.491 -333.384)" fill="#263238"/>
      <path id="Path_59343" data-name="Path 59343" d="M550.44,361.566c0,.078,1.2-.142,3.132.035a14.357,14.357,0,0,1,11.749,8.241c.829,1.75,1.028,2.948,1.105,2.934a3.35,3.35,0,0,0-.135-.843,12.047,12.047,0,0,0-.709-2.2,13.96,13.96,0,0,0-11.983-8.4,12.579,12.579,0,0,0-2.317.064A3.252,3.252,0,0,0,550.44,361.566Z" transform="translate(-523.602 -328.969)" fill="#263238"/>
      <path id="Path_59344" data-name="Path 59344" d="M539.664,389.772a2.454,2.454,0,0,0-.276-.6,9.531,9.531,0,0,0-1.027-1.474,10.97,10.97,0,0,0-10.757-3.671,9.981,9.981,0,0,0-1.722.546,2.127,2.127,0,0,0-.581.312c0,.064.879-.34,2.353-.6a11.381,11.381,0,0,1,10.509,3.586C539.168,388.971,539.6,389.808,539.664,389.772Z" transform="translate(-479.024 -335.512)" fill="#263238"/>
      <path id="Path_59345" data-name="Path 59345" d="M549.65,392.938a4.52,4.52,0,0,0,1.2-.865,13.6,13.6,0,0,0,2.317-2.728,13.069,13.069,0,0,0,1.509-3.238,4.253,4.253,0,0,0,.291-1.417,26.217,26.217,0,0,1-2.126,4.486A27.429,27.429,0,0,1,549.65,392.938Z" transform="translate(-511.58 -335.78)" fill="#263238"/>
    </g>
    <g id="freepik--Cushion--inject-4" transform="translate(55.046 119.152)">
      <path id="Path_59346" data-name="Path 59346" d="M445.37,277.632c31.392-31.017,70.48-38.422,70.48-38.422,23.243,13.861,38.925,37.125,50.865,65.045-20.026,18.531-45.777,36.3-67.815,37.926C464.049,333.372,445.37,277.632,445.37,277.632Z" transform="translate(-445.37 -239.21)" fill="#efa00b"/>
      <g id="Group_18658" data-name="Group 18658" opacity="0.4">
        <path id="Path_59347" data-name="Path 59347" d="M445.37,277.632c31.392-31.017,70.48-38.422,70.48-38.422,23.243,13.861,38.925,37.125,50.865,65.045-20.026,18.531-45.777,36.3-67.815,37.926C464.049,333.372,445.37,277.632,445.37,277.632Z" transform="translate(-445.37 -239.21)"/>
      </g>
      <path id="Path_59348" data-name="Path 59348" d="M501.705,305.721a1.124,1.124,0,0,0,.078-.213l.2-.638c.177-.581.425-1.417.751-2.494L505.489,293l-.135.078,15.4,4.96-.1-.092a.459.459,0,0,0,.043.078c.042.057.149.085.184.057a.2.2,0,0,0,.1-.1.64.64,0,0,0,0-.113v-10.36c0-1.857.078-3.742.184-5.669a50.815,50.815,0,0,1,.609-5.875l-.22.142,14.08,3.267,8.5,1.977.184.043v-.184c1.261-6.619,2.466-12.9,3.543-18.7l-.213.135a126.248,126.248,0,0,0,22.364,3.9h.113v-.113c.588-4.819,1.056-8.645,1.375-11.288.156-1.3.269-2.31.354-3,.035-.333.057-.588.078-.779a2.5,2.5,0,0,0,0-.262.928.928,0,0,0-.05.255,7.06,7.06,0,0,1-.12.772c-.092.709-.234,1.708-.411,3-.347,2.636-.85,6.463-1.481,11.274L570,266.3a128.489,128.489,0,0,1-22.166-3.933l-.177-.05v.177c-1.113,5.8-2.324,12.082-3.593,18.694l.22-.142-8.5-1.984-14-3.246-.184-.042v.184a49.087,49.087,0,0,0-.6,5.917c-.106,1.935-.149,3.834-.177,5.669s0,3.657,0,5.407V297.9h0c.035,0,.071,0,.092.035h0l.092-.057.078-.035-.177-.057-15.484-4.946-.106-.035v.113l-2.657,9.4-.709,2.509-.17.645a.8.8,0,0,0-.071.248Z" transform="translate(-490.516 -242.674)" fill="#efa00b"/>
      <path id="Path_59349" data-name="Path 59349" d="M485.882,320.365a.823.823,0,0,0,.071-.163c.05-.128.113-.291.191-.5l.709-1.956c.609-1.729,1.488-4.252,2.608-7.448l-.12.064,18.353,4.9.17.043v-.17c.439-3.38.928-7,1.467-10.821s1.113-7.844,1.85-11.976l-.22.142,13.464,3.125,9.1,2.126.184.043v-.191c1.261-6.611,2.459-12.9,3.543-18.694l-.213.128a126.335,126.335,0,0,0,22.364,3.912h.113v-.106c.588-4.819,1.056-8.652,1.375-11.288.149-1.3.269-2.31.347-3.012.035-.326.064-.588.085-.772a1.526,1.526,0,0,0,0-.269,1.716,1.716,0,0,0-.05.262,6.757,6.757,0,0,1-.113.772c-.092.709-.234,1.7-.411,3-.347,2.643-.85,6.463-1.481,11.274l.128-.1a128.491,128.491,0,0,1-22.244-4l-.177-.05v.177c-1.113,5.8-2.324,12.047-3.6,18.694l.22-.149L524.5,295.23l-13.464-3.111-.184-.043v.184c-.709,4.145-1.3,8.17-1.835,11.99s-1.006,7.448-1.417,10.828l.191-.128-18.382-4.8h-.085l-.035.085c-1.077,3.21-1.927,5.74-2.516,7.476-.276.857-.5,1.516-.652,1.977-.064.213-.12.376-.156.5Z" transform="translate(-468.69 -247.447)" fill="#fafafa"/>
      <path id="Path_59350" data-name="Path 59350" d="M471.9,341.3v-.588c0-.383-.078-.971-.142-1.708-.135-1.516-.326-3.72-.574-6.541l-.12.1,19.034,6.321.163.057v-.17c1.5-7.795,3.274-17.007,5.2-26.992l-.22.142,11.643,2.686,10.892,2.523.184.043.035-.184c1.261-6.619,2.459-12.9,3.543-18.694l-.206.128a126.555,126.555,0,0,0,22.364,3.912h.113v-.113c.588-4.819,1.056-8.652,1.375-11.288.149-1.3.269-2.31.347-3,.035-.333.064-.588.085-.772a1.538,1.538,0,0,0,0-.269,1.05,1.05,0,0,1-.05.262c-.05.17-.064.439-.113.772-.092.709-.234,1.7-.411,3-.347,2.636-.843,6.456-1.481,11.274l.128-.1a128.611,128.611,0,0,1-22.293-4l-.177-.05-.035.177c-1.113,5.789-2.324,12.047-3.6,18.686l.22-.142-10.892-2.53-11.629-2.671-.184-.043v.191c-1.9,9.985-3.656,19.2-5.138,27l.191-.113-19.069-6.215-.128-.043v.142q.425,4.252.659,6.526c.078.709.142,1.3.184,1.708A3.267,3.267,0,0,0,471.9,341.3Z" transform="translate(-442.418 -253.1)" fill="#efa00b"/>
      <path id="Path_59351" data-name="Path 59351" d="M458.791,362.1l.043-.135.113-.4c.092-.376.227-.9.4-1.566.34-1.417.836-3.416,1.467-5.967s1.353-5.669,2.2-9.212,1.757-7.575,2.608-11.983l-.2.135,22.527,5.244.191.05.035-.191c.113-.617.241-1.283.368-1.949,1.12-5.846,2.2-11.48,3.2-16.745l-.22.135a125.585,125.585,0,0,0,22.364,3.912h.128v-.128c.574-4.741,1.042-8.574,1.361-11.232.156-1.311.269-2.331.354-3.04.035-.333.064-.6.078-.794a1.281,1.281,0,0,0,0-.269,1.238,1.238,0,0,0-.057.269l-.113.779c-.1.709-.241,1.729-.418,3.033-.354,2.657-.857,6.484-1.481,11.225l.135-.113a128.4,128.4,0,0,1-22.293-4l-.177-.05-.043.184c-1.006,5.272-2.09,10.9-3.217,16.745-.128.666-.255,1.332-.368,1.949l.22-.142-22.541-5.215-.163-.035-.035.17c-.829,4.393-1.757,8.4-2.551,11.976s-1.524,6.682-2.126,9.262-1.056,4.578-1.375,5.981c-.156.709-.269,1.2-.354,1.587l-.085.4C458.791,362.049,458.784,362.1,458.791,362.1Z" transform="translate(-403.972 -259.242)" fill="#fafafa"/>
      <path id="Path_59352" data-name="Path 59352" d="M494.48,375.366a5.977,5.977,0,0,0,.262-.978l.609-2.735c.5-2.317,1.176-5.563,1.92-9.212l-.22.142,2.126.5c4.145.964,7.908,1.814,10.629,2.409l3.231.709a8.2,8.2,0,0,0,1.2.206,6.992,6.992,0,0,0-1.162-.347l-3.21-.8c-2.707-.666-6.463-1.559-10.629-2.523l-2.126-.489-.184-.042v.184c-.709,3.678-1.361,6.93-1.8,9.262-.2,1.127-.369,2.048-.5,2.757A6.441,6.441,0,0,0,494.48,375.366Z" transform="translate(-427.692 -275.046)" fill="#efa00b"/>
      <path id="Path_59353" data-name="Path 59353" d="M464.6,356.9a6.2,6.2,0,0,0,.262-1c.156-.709.354-1.644.588-2.757.482-2.324,1.12-5.549,1.807-9.113.035-.22.078-.432.12-.638l-.234.142c3.373.914,6.434,1.566,8.652,1.963,1.105.206,2.005.347,2.629.432a4.892,4.892,0,0,0,.971.1,5.572,5.572,0,0,0-.95-.234l-2.6-.546c-2.2-.468-5.244-1.155-8.6-2.069l-.191-.05-.035.191-.128.638c-.709,3.543-1.276,6.8-1.694,9.134-.191,1.12-.347,2.055-.475,2.778A5.478,5.478,0,0,0,464.6,356.9Z" transform="translate(-371.678 -269.49)" fill="#efa00b"/>
      <path id="Path_59354" data-name="Path 59354" d="M447.607,331.9a13.918,13.918,0,0,0,.567-4.493,7.144,7.144,0,0,0-.468,2.225A6.925,6.925,0,0,0,447.607,331.9Z" transform="translate(-328.387 -264.909)" fill="#efa00b"/>
      <path id="Path_59355" data-name="Path 59355" d="M515.748,292.148a.587.587,0,0,0,.042-.177,3.957,3.957,0,0,1,.106-.517c.085-.475.206-1.148.368-2.02.319-1.786.772-4.379,1.354-7.653l-.12.085,10.707,1.715h.142v-.135c1.077-6.441,2.367-14.173,3.791-22.676l-.213.142,14.612,3.4,7.448,1.722.177.043.042-.177c1.58-6.434,3.054-12.529,4.16-18.148l-.184.135,21.748,3.338h.106v-.113c.418-3.486.751-6.243.985-8.149.1-.935.184-1.658.241-2.168a4.468,4.468,0,0,1,.057-.553.559.559,0,0,0,0-.191v.184l-.085.553-.3,2.161c-.255,1.906-.624,4.656-1.084,8.135l.12-.092-21.727-3.458h-.156l-.035.156c-1.12,5.605-2.6,11.7-4.188,18.127l.22-.135-7.448-1.729-14.612-3.387-.184-.043v.184c-1.417,8.5-2.657,16.3-3.713,22.676l.156-.113-10.714-1.644h-.106v.1c-.539,3.281-.964,5.882-1.254,7.667-.142.879-.248,1.552-.319,2.034-.035.22-.057.39-.078.524A.668.668,0,0,0,515.748,292.148Z" transform="translate(-509.853 -239.455)" fill="#fafafa"/>
      <path id="Path_59356" data-name="Path 59356" d="M542.49,292.68a.87.87,0,0,0,.2.078l.588.177c.51.17,1.283.34,2.246.709a46.355,46.355,0,0,1,7.88,3.543,55.1,55.1,0,0,1,10.332,7.518A71.25,71.25,0,0,1,574,316.518a105.58,105.58,0,0,1,7.859,13.577c2.126,4.33,3.841,8.333,5.23,11.714s2.466,6.137,3.217,8.036c.376.928.666,1.665.879,2.19.092.227.17.418.234.56a1.077,1.077,0,0,0,.092.191.941.941,0,0,0-.057-.205c-.05-.149-.12-.34-.206-.574q-.283-.794-.808-2.211c-.709-1.92-1.757-4.684-3.111-8.085s-3.047-7.412-5.166-11.77a104.132,104.132,0,0,0-7.866-13.648,70.035,70.035,0,0,0-10.339-11.855,53.993,53.993,0,0,0-10.431-7.49,43.1,43.1,0,0,0-7.965-3.416c-.971-.333-1.757-.482-2.275-.631l-.6-.142A1.287,1.287,0,0,0,542.49,292.68Z" transform="translate(-538.989 -254.79)" fill="#263238"/>
    </g>
    <g id="freepik--Notes--inject-4" transform="translate(230.927 90.219)">
      <path id="Path_59357" data-name="Path 59357" d="M346.793,202.692l-.1,1.906a1.664,1.664,0,1,0-.135,2.537l-.106,1.913a1.6,1.6,0,0,0-1.042-.454,1.661,1.661,0,1,0,.907,2.976l-.1,1.913a1.637,1.637,0,0,0-1.042-.454A1.658,1.658,0,0,0,345,216.34a1.623,1.623,0,0,0,1.084-.333l-.106,1.913a1.6,1.6,0,0,0-1.042-.454,1.658,1.658,0,0,0-.177,3.309,1.6,1.6,0,0,0,1.084-.34l-.1,1.92a1.658,1.658,0,1,0-.135,2.516l-.106,1.92a1.6,1.6,0,0,0-1.042-.454,1.658,1.658,0,0,0-.177,3.309,1.6,1.6,0,0,0,1.084-.34l-.064,1.19-51.085-1.226,2.586-29.762Z" transform="translate(-294.22 -198.709)" fill="#ebebeb"/>
      <path id="Path_59358" data-name="Path 59358" d="M345.186,201.1l-.106,1.913a1.616,1.616,0,0,0-1.042-.454,1.658,1.658,0,1,0,.907,2.969l-.1,1.913a1.664,1.664,0,1,0-.135,2.537l-.106,1.913a1.616,1.616,0,0,0-1.042-.454,1.658,1.658,0,1,0,.907,2.976l-.1,1.913a1.637,1.637,0,0,0-1.042-.454,1.658,1.658,0,0,0-.177,3.309,1.623,1.623,0,0,0,1.084-.333l-.106,1.913a1.616,1.616,0,0,0-1.042-.454,1.658,1.658,0,0,0-.177,3.309,1.616,1.616,0,0,0,1.084-.34l-.1,1.92a1.658,1.658,0,1,0-.135,2.516l-.064,1.19-51.078-2.728,1.488-27.8Z" transform="translate(-291.479 -198.38)" fill="#f5f5f5"/>
      <path id="Path_59359" data-name="Path 59359" d="M293.11,206.116c0,.106,11.423.794,25.51,1.552s25.511,1.283,25.511,1.183-11.423-.8-25.511-1.552S293.11,206.031,293.11,206.116Z" transform="translate(-290.771 -200.631)" fill="#e0e0e0"/>
      <path id="Path_59360" data-name="Path 59360" d="M293.4,212.394c0,.1,11.423.794,25.511,1.552s25.546,1.283,25.546,1.176-11.416-.794-25.511-1.545S293.407,212.288,293.4,212.394Z" transform="translate(-291.302 -202.46)" fill="#e0e0e0"/>
      <path id="Path_59361" data-name="Path 59361" d="M293.74,218.665c0,.106,11.43.8,25.511,1.552S344.761,221.5,344.8,221.4s-11.423-.794-25.511-1.552S293.747,218.566,293.74,218.665Z" transform="translate(-291.883 -204.287)" fill="#e0e0e0"/>
      <path id="Path_59362" data-name="Path 59362" d="M294.07,224.992c0,.1,11.423.794,25.51,1.552s25.546,1.283,25.546,1.183-11.423-.8-25.511-1.552S294.077,224.857,294.07,224.992Z" transform="translate(-292.447 -206.128)" fill="#e0e0e0"/>
      <path id="Path_59363" data-name="Path 59363" d="M294.4,231.224c0,.1,11.423.794,25.511,1.545s25.546,1.29,25.553,1.183-11.423-.794-25.511-1.552S294.407,231.118,294.4,231.224Z" transform="translate(-293.018 -207.946)" fill="#e0e0e0"/>
      <rect id="Rectangle_7369" data-name="Rectangle 7369" width="0.354" height="27.835" transform="translate(45.305 30.151) rotate(-176.94)" fill="#efa00b"/>
      <path id="Path_59364" data-name="Path 59364" d="M309.163,229.129c.1,0,.517-6.215.928-13.889s.659-13.9.56-13.91-.517,6.215-.928,13.889S309.057,229.122,309.163,229.129Z" transform="translate(-268.672 -199.24)" fill="#e0e0e0"/>
      <path id="Path_59365" data-name="Path 59365" d="M296.333,229.807c.1,0,.517-6.208.928-13.882s.659-13.925.56-13.925-.517,6.208-.928,13.889S296.227,229.807,296.333,229.807Z" transform="translate(-246.751 -199.435)" fill="#e0e0e0"/>
      <path id="Path_59366" data-name="Path 59366" d="M316.191,228.764c.1,0,.517-6.215.928-13.889s.659-13.875.56-13.875-.517,6.215-.928,13.9S316.092,228.757,316.191,228.764Z" transform="translate(-280.682 -199.143)" fill="#e0e0e0"/>
      <path id="Path_59367" data-name="Path 59367" d="M323.221,228.379c.106,0,.517-6.215.928-13.889s.659-13.9.56-13.91-.517,6.208-.928,13.889S323.122,228.372,323.221,228.379Z" transform="translate(-292.693 -199.021)" fill="#e0e0e0"/>
      <path id="Path_59368" data-name="Path 59368" d="M330.251,228c.1,0,.51-6.215.921-13.889s.666-13.9.56-13.91-.517,6.215-.928,13.889S330.144,227.992,330.251,228Z" transform="translate(-304.697 -198.91)" fill="#e0e0e0"/>
      <path id="Path_59369" data-name="Path 59369" d="M337.273,227.622c.1,0,.517-6.208.928-13.889s.659-13.9.56-13.9-.517,6.208-.928,13.889S337.167,227.622,337.273,227.622Z" transform="translate(-316.702 -198.802)" fill="#e0e0e0"/>
      <path id="Path_59370" data-name="Path 59370" d="M344.3,227.249c.1,0,.517-6.215.928-13.889s.659-13.9.56-13.91-.517,6.215-.928,13.889S344.2,227.242,344.3,227.249Z" transform="translate(-328.711 -198.692)" fill="#e0e0e0"/>
      <path id="Path_59371" data-name="Path 59371" d="M351.328,226.869c.106,0,.517-6.215.928-13.889s.666-13.9.56-13.91-.517,6.215-.928,13.9S351.229,226.862,351.328,226.869Z" transform="translate(-340.72 -198.581)" fill="#e0e0e0"/>
      <path id="Path_59372" data-name="Path 59372" d="M358.353,226.5c.1,0,.517-6.215.928-13.889s.659-13.9.56-13.91-.517,6.208-.928,13.889S358.247,226.492,358.353,226.5Z" transform="translate(-352.72 -198.473)" fill="#e0e0e0"/>
      <path id="Path_59373" data-name="Path 59373" d="M308.97,214.165a1.191,1.191,0,0,0,.361.057l1.049.092,3.834.255c3.245.205,7.731.454,12.677.709s9.446.432,12.691.531a34.083,34.083,0,0,0,5.258,0l-17.928-.9-12.684-.588-3.841-.149h-1.049A1.141,1.141,0,0,0,308.97,214.165Z" transform="translate(-302.72 -202.976)" fill="#263238"/>
      <path id="Path_59374" data-name="Path 59374" d="M309.05,221.331c0,.1,8.241.56,18.424,1.027s18.424.765,18.424.659-8.234-.56-18.424-1.028S309.085,221.225,309.05,221.331Z" transform="translate(-303.835 -205.061)" fill="#263238"/>
      <path id="Path_59375" data-name="Path 59375" d="M309.82,227.6c0,.106,8.234.567,18.424,1.035s18.424.758,18.424.659-8.234-.567-18.424-1.027S309.827,227.5,309.82,227.6Z" transform="translate(-305.15 -206.889)" fill="#263238"/>
      <path id="Path_59376" data-name="Path 59376" d="M306.9,205.306a4.464,4.464,0,0,1-1.637,2.834,2.92,2.92,0,1,1-1.07-5.265" transform="translate(-258.914 -199.673)" fill="#e0e0e0"/>
      <path id="Path_59377" data-name="Path 59377" d="M305.161,205.313a2.324,2.324,0,1,1-2.2-2.445,2.324,2.324,0,0,1,2.2,2.445Z" transform="translate(-257.052 -199.687)" fill="#455a64"/>
      <path id="Path_59378" data-name="Path 59378" d="M301.372,204.393a1.417,1.417,0,1,1-.536-1.467A1.417,1.417,0,0,1,301.372,204.393Z" transform="translate(-251.924 -199.624)" fill="#455a64"/>
      <path id="Path_59379" data-name="Path 59379" d="M302.189,205.9c0-.057-.22-.043-.5-.149a1.346,1.346,0,0,1-.794-.765,1.417,1.417,0,0,1,.106-1.113c.142-.276.3-.4.276-.454s-.255,0-.489.3a1.474,1.474,0,0,0-.241,1.382,1.417,1.417,0,0,0,1.077.9C302,206.066,302.2,205.953,302.189,205.9Z" transform="translate(-254.045 -199.845)" fill="#263238"/>
      <path id="Path_59380" data-name="Path 59380" d="M303.607,203.65c-.05-.092-.4,0-.787-.085s-.659-.333-.709-.269.106.5.659.631S303.692,203.721,303.607,203.65Z" transform="translate(-256.632 -199.809)" fill="#263238"/>
      <path id="Path_59381" data-name="Path 59381" d="M300.766,208.213c.1,0,.2-.432.567-.772s.8-.418.8-.517-.56-.213-1.056.248S300.667,208.234,300.766,208.213Z" transform="translate(-254.145 -200.843)" fill="#263238"/>
      <path id="Path_59382" data-name="Path 59382" d="M362.3,202.976a4.485,4.485,0,0,1-1.637,2.834,2.92,2.92,0,1,1-1.07-5.265" transform="translate(-353.572 -198.994)" fill="#e0e0e0"/>
      <path id="Path_59383" data-name="Path 59383" d="M356.1,202.254a2.246,2.246,0,1,0,.742-1.554A2.246,2.246,0,0,0,356.1,202.254Z" transform="translate(-351.86 -198.889)" fill="#efa00b"/>
      <path id="Path_59384" data-name="Path 59384" d="M360.314,201.245a1.339,1.339,0,1,0,.442-.934A1.346,1.346,0,0,0,360.314,201.245Z" transform="translate(-357.267 -198.842)" fill="#efa00b"/>
      <path id="Path_59385" data-name="Path 59385" d="M360,202.766a.713.713,0,0,0,.531.163,1.346,1.346,0,0,0,1.134-.751,1.417,1.417,0,0,0-.085-1.353c-.2-.3-.425-.383-.446-.347s.106.191.213.468a1.367,1.367,0,0,1,0,1.07,1.283,1.283,0,0,1-.836.659C360.215,202.744,360.017,202.709,360,202.766Z" transform="translate(-355.843 -198.989)" fill="#263238"/>
      <path id="Path_59386" data-name="Path 59386" d="M358.481,200.79c-.078.071.255.425.808.361s.787-.489.709-.546-.361.142-.744.184S358.537,200.705,358.481,200.79Z" transform="translate(-352.967 -199.026)" fill="#263238"/>
      <path id="Path_59387" data-name="Path 59387" d="M361.7,205.115c.1,0,.234-.531-.191-1.035s-1.006-.446-.992-.347.4.22.709.588S361.594,205.107,361.7,205.115Z" transform="translate(-356.208 -199.92)" fill="#263238"/>
      <path id="Path_59388" data-name="Path 59388" d="M281.472,293.283l-41.752,5.322.56-15.285Z" transform="translate(-190.279 -223.129)" fill="#e0e0e0"/>
      <rect id="Rectangle_7370" data-name="Rectangle 7370" width="40.222" height="13.351" transform="translate(91.219 70.459) rotate(175.23)" fill="#372c51"/>
      <path id="Path_59389" data-name="Path 59389" d="M247.53,288.363c0,.1,6.732-.376,15.016-1.07s14.987-1.332,14.98-1.417-6.732.376-15.016,1.063S247.523,288.264,247.53,288.363Z" transform="translate(-191.867 -223.871)" fill="#fff"/>
      <path id="Path_59390" data-name="Path 59390" d="M247.42,293.263c0,.1,6.732-.376,15.016-1.07s14.987-1.332,14.98-1.417-6.725.376-15.016,1.063S247.413,293.164,247.42,293.263Z" transform="translate(-191.679 -225.299)" fill="#fff"/>
      <path id="Path_59391" data-name="Path 59391" d="M272.9,277.75l-15.533,1.29.815.694-1.063.928,1.268.581-1.134,1.006,16.277-1.361-1.013-.857.5-.921-.872-.446Z" transform="translate(-194.669 -221.506)" fill="#ebebeb"/>
      <path id="Path_59392" data-name="Path 59392" d="M165.333,243.77a1.807,1.807,0,1,0,3.1,0h2.126a1.828,1.828,0,0,0-.255.914,1.807,1.807,0,1,0,3.359-.914h2.09a1.757,1.757,0,0,0-.255.914,1.807,1.807,0,1,0,3.359-.914h2.126a1.757,1.757,0,0,0-.255.914,1.807,1.807,0,1,0,3.607,0,1.758,1.758,0,0,0-.255-.914h2.126a1.758,1.758,0,0,0-.255.914,1.807,1.807,0,1,0,3.607,0,1.757,1.757,0,0,0-.255-.914h2.126a1.807,1.807,0,1,0,3.1,0h1.311v37.288l-32.6,1.793,1.559-39.081Z" transform="translate(-50.465 -211.605)" fill="#e0e0e0"/>
      <g id="Group_18659" data-name="Group 18659" transform="translate(114.656 31.144)" clip-path="url(#clip-path)">
        <path id="Path_59393" data-name="Path 59393" d="M163.457,242.33a1.807,1.807,0,1,0,3.1,0h2.09a1.828,1.828,0,0,0-.255.914,1.807,1.807,0,1,0,3.359-.914h2.126a1.757,1.757,0,0,0-.255.914,1.807,1.807,0,1,0,3.359-.914h2.09a1.757,1.757,0,0,0-.255.914,1.807,1.807,0,1,0,3.607,0,1.758,1.758,0,0,0-.255-.914h2.09a1.807,1.807,0,1,0,3.359.914,1.757,1.757,0,0,0-.255-.914h2.055a1.807,1.807,0,1,0,3.1,0h1.311v37.323H162.77V242.33Z" transform="translate(-162.77 -242.33)" fill="#f5f5f5"/>
        <path id="Path_59394" data-name="Path 59394" d="M159.5,280.78c.106,0,.276-9.035.39-20.182s.128-20.189,0-20.189-.276,9.035-.39,20.182S159.4,280.78,159.5,280.78Z" transform="translate(-126.544 -241.771)" fill="#e0e0e0"/>
        <path id="Path_59395" data-name="Path 59395" d="M166.532,280.71c.106,0,.283-9.035.4-20.182s.12-20.189,0-20.189-.276,9.035-.39,20.182S166.433,280.71,166.532,280.71Z" transform="translate(-138.563 -241.75)" fill="#e0e0e0"/>
        <path id="Path_59396" data-name="Path 59396" d="M170.032,280.71c.1,0,.276-9.035.39-20.182s.128-20.189,0-20.189-.276,9.035-.39,20.182S169.933,280.71,170.032,280.71Z" transform="translate(-144.536 -241.75)" fill="#e0e0e0"/>
        <path id="Path_59397" data-name="Path 59397" d="M177.149,280.71c.1,0,.276-9.035.39-20.182s.12-20.189,0-20.189-.276,9.035-.39,20.182S177.042,280.71,177.149,280.71Z" transform="translate(-156.691 -241.75)" fill="#e0e0e0"/>
        <path id="Path_59398" data-name="Path 59398" d="M184.259,280.71c.1,0,.276-9.035.39-20.182s.12-20.189,0-20.189-.276,9.035-.39,20.182S184.152,280.71,184.259,280.71Z" transform="translate(-168.839 -241.75)" fill="#e0e0e0"/>
        <path id="Path_59399" data-name="Path 59399" d="M191.4,280.71c.1,0,.276-9.035.39-20.182s.12-20.189,0-20.189-.276,9.035-.39,20.182S191.321,280.71,191.4,280.71Z" transform="translate(-181.046 -241.75)" fill="#e0e0e0"/>
        <path id="Path_59400" data-name="Path 59400" d="M198.119,280.71c.1,0,.276-9.035.39-20.182s.12-20.189,0-20.189-.276,9.035-.39,20.182S198.012,280.71,198.119,280.71Z" transform="translate(-192.52 -241.75)" fill="#e0e0e0"/>
        <path id="Path_59401" data-name="Path 59401" d="M204.862,280.71c.1,0,.276-9.035.39-20.182s.128-20.189,0-20.189-.276,9.035-.39,20.182S204.763,280.71,204.862,280.71Z" transform="translate(-204.047 -241.75)" fill="#e0e0e0"/>
        <path id="Path_59402" data-name="Path 59402" d="M173.579,280.64c.1,0,.276-9.042.39-20.189s.12-20.182,0-20.182-.276,9.028-.39,20.182S173.472,280.633,173.579,280.64Z" transform="translate(-150.591 -241.73)" fill="#e0e0e0"/>
        <path id="Path_59403" data-name="Path 59403" d="M180.612,280.56c.1,0,.276-9.035.39-20.182s.128-20.182,0-20.189-.276,9.035-.39,20.189S180.513,280.56,180.612,280.56Z" transform="translate(-162.613 -241.706)" fill="#e0e0e0"/>
        <path id="Path_59404" data-name="Path 59404" d="M187.642,280.49c.106,0,.283-9.035.4-20.182s.12-20.189,0-20.189-.276,9.035-.39,20.189S187.543,280.49,187.642,280.49Z" transform="translate(-174.632 -241.686)" fill="#e0e0e0"/>
        <path id="Path_59405" data-name="Path 59405" d="M194.689,280.4c.1,0,.276-9.035.39-20.182s.12-20.189,0-20.189-.276,9.035-.39,20.182S194.582,280.4,194.689,280.4Z" transform="translate(-186.66 -241.66)" fill="#e0e0e0"/>
        <path id="Path_59406" data-name="Path 59406" d="M201.41,280.78c.106,0,.276-9.035.39-20.182s.128-20.189,0-20.189-.276,9.035-.39,20.182S201.29,280.78,201.41,280.78Z" transform="translate(-198.143 -241.771)" fill="#e0e0e0"/>
        <path id="Path_59407" data-name="Path 59407" d="M208.755,280.28c.106,0,.276-9.042.4-20.189s.12-20.182,0-20.182-.276,9.028-.4,20.182S208.656,280.273,208.755,280.28Z" transform="translate(-210.704 -241.625)" fill="#e0e0e0"/>
        <path id="Path_59408" data-name="Path 59408" d="M159.94,290.166c0,.1,9.042.276,20.182.383s20.189.12,20.189,0-9.035-.276-20.182-.39S159.947,290.066,159.94,290.166Z" transform="translate(-167.239 -256.244)" fill="#e0e0e0"/>
        <path id="Path_59409" data-name="Path 59409" d="M160.23,293.765c0,.1,9.035.276,20.182.383s20.189.12,20.189,0-9.035-.276-20.189-.39S160.23,293.658,160.23,293.765Z" transform="translate(-167.734 -257.292)" fill="#e0e0e0"/>
        <path id="Path_59410" data-name="Path 59410" d="M159.87,283.128c0,.106,9.042.276,20.182.39s20.189.12,20.189,0-9.035-.276-20.182-.383S159.877,283.014,159.87,283.128Z" transform="translate(-167.119 -254.194)" fill="#e0e0e0"/>
        <path id="Path_59411" data-name="Path 59411" d="M159.8,276.1c0,.1,9.042.269,20.189.383s20.182.12,20.182,0-9.035-.269-20.182-.383S159.807,276.006,159.8,276.1Z" transform="translate(-167 -252.147)" fill="#e0e0e0"/>
        <path id="Path_59412" data-name="Path 59412" d="M159.73,269.055c0,.1,9.042.276,20.189.383s20.182.12,20.182,0-9.028-.276-20.182-.39S159.737,268.948,159.73,269.055Z" transform="translate(-166.88 -250.092)" fill="#e0e0e0"/>
        <path id="Path_59413" data-name="Path 59413" d="M159.66,262.02c0,.106,9.042.276,20.189.39s20.182.113,20.182,0-9.028-.276-20.182-.383S159.667,261.921,159.66,262.02Z" transform="translate(-166.76 -248.046)" fill="#e0e0e0"/>
        <path id="Path_59414" data-name="Path 59414" d="M159.59,254.97c0,.106,9.035.276,20.182.39s20.182.12,20.182,0-9.028-.269-20.182-.383S159.59,254.878,159.59,254.97Z" transform="translate(-166.634 -245.991)" fill="#e0e0e0"/>
        <path id="Path_59415" data-name="Path 59415" d="M159.51,247.962c0,.1,9.035.276,20.182.383s20.182.12,20.189,0-9.035-.276-20.189-.39S159.51,247.842,159.51,247.962Z" transform="translate(-166.504 -243.945)" fill="#e0e0e0"/>
        <path id="Path_59416" data-name="Path 59416" d="M159.51,245.124c0,.1,9.035.276,20.182.383s20.182.12,20.189,0-9.035-.276-20.189-.39S159.51,245.01,159.51,245.124Z" transform="translate(-166.504 -243.118)" fill="#e0e0e0"/>
        <path id="Path_59417" data-name="Path 59417" d="M159.51,251.54c0,.106,9.035.276,20.182.39s20.182.12,20.189,0-9.035-.276-20.189-.383S159.51,251.441,159.51,251.54Z" transform="translate(-166.504 -244.992)" fill="#e0e0e0"/>
        <path id="Path_59418" data-name="Path 59418" d="M159.51,258.519c0,.106,9.035.276,20.182.39s20.182.12,20.189,0-9.035-.269-20.189-.383S159.51,258.419,159.51,258.519Z" transform="translate(-166.504 -247.025)" fill="#e0e0e0"/>
        <path id="Path_59419" data-name="Path 59419" d="M159.51,265.5c0,.106,9.035.276,20.182.39s20.182.12,20.189,0-9.035-.269-20.189-.383S159.51,265.4,159.51,265.5Z" transform="translate(-166.504 -249.059)" fill="#e0e0e0"/>
        <path id="Path_59420" data-name="Path 59420" d="M159.51,272.486c0,.1,9.035.269,20.182.383s20.182.12,20.189,0-9.035-.269-20.189-.383S159.51,272.38,159.51,272.486Z" transform="translate(-166.504 -251.093)" fill="#e0e0e0"/>
        <path id="Path_59421" data-name="Path 59421" d="M159.51,279.465c0,.1,9.035.269,20.182.383s20.182.12,20.189,0-9.035-.276-20.189-.39S159.51,279.358,159.51,279.465Z" transform="translate(-166.504 -253.125)" fill="#e0e0e0"/>
        <path id="Path_59422" data-name="Path 59422" d="M159.51,286.445c0,.1,9.035.269,20.182.383s20.182.12,20.189,0-9.035-.276-20.189-.39S159.51,286.338,159.51,286.445Z" transform="translate(-166.504 -255.159)" fill="#e0e0e0"/>
        <path id="Path_59423" data-name="Path 59423" d="M163.457,242.33a1.807,1.807,0,1,0,3.1,0h2.09a1.828,1.828,0,0,0-.255.914,1.807,1.807,0,1,0,3.359-.914h2.126a1.757,1.757,0,0,0-.255.914,1.807,1.807,0,1,0,3.359-.914h2.09a1.757,1.757,0,0,0-.255.914,1.807,1.807,0,1,0,3.607,0,1.758,1.758,0,0,0-.255-.914h2.09a1.807,1.807,0,1,0,3.359.914,1.757,1.757,0,0,0-.255-.914h2.055a1.807,1.807,0,1,0,3.1,0h1.311v37.323H162.77V242.33Z" transform="translate(-162.77 -242.33)" fill="none"/>
      </g>
      <path id="Path_59425" data-name="Path 59425" d="M187.892,248.976a4.464,4.464,0,0,1-1.637,2.835,2.92,2.92,0,1,1-1.07-5.265" transform="translate(-55.57 -212.397)" fill="#e0e0e0"/>
      <path id="Path_59426" data-name="Path 59426" d="M186.241,248.933a2.324,2.324,0,1,1-2.2-2.445,2.324,2.324,0,0,1,2.2,2.445Z" transform="translate(-53.862 -212.397)" fill="#efa00b"/>
      <path id="Path_59427" data-name="Path 59427" d="M182.552,248.125a1.417,1.417,0,1,1-1.318-1.467A1.417,1.417,0,0,1,182.552,248.125Z" transform="translate(-48.841 -212.446)" fill="#efa00b"/>
      <path id="Path_59428" data-name="Path 59428" d="M183.278,249.527c0-.057-.22-.035-.5-.142a1.361,1.361,0,0,1-.794-.772,1.417,1.417,0,0,1,.106-1.113c.142-.269.3-.4.276-.446s-.255,0-.489.3a1.474,1.474,0,0,0-.241,1.417,1.417,1.417,0,0,0,1.077.9C183.08,249.69,183.292,249.563,183.278,249.527Z" transform="translate(-50.864 -212.558)" fill="#263238"/>
      <path id="Path_59429" data-name="Path 59429" d="M184.74,247.271c-.05-.092-.4,0-.787-.078s-.659-.333-.744-.276.106.5.659.631S184.8,247.349,184.74,247.271Z" transform="translate(-53.495 -212.52)" fill="#263238"/>
      <path id="Path_59430" data-name="Path 59430" d="M181.849,251.834c.1,0,.2-.432.56-.772s.808-.418.808-.517-.56-.205-1.056.248S181.743,251.855,181.849,251.834Z" transform="translate(-50.959 -213.554)" fill="#263238"/>
      <path id="Path_59431" data-name="Path 59431" d="M170.45,261.054c0,.1,4.96.184,11.069.184s11.076-.085,11.076-.184-4.96-.184-11.076-.184S170.45,260.962,170.45,261.054Z" transform="translate(-52.315 -216.588)" fill="#263238"/>
      <path id="Path_59432" data-name="Path 59432" d="M170.45,264.3c0,.1,4.96.184,11.069.184s11.076-.085,11.076-.184-4.96-.184-11.076-.184S170.45,264.2,170.45,264.3Z" transform="translate(-52.315 -217.535)" fill="#263238"/>
      <path id="Path_59433" data-name="Path 59433" d="M170.45,267.554c0,.1,4.96.184,11.069.184s11.076-.085,11.076-.184-4.96-.184-11.076-.184S170.45,267.448,170.45,267.554Z" transform="translate(-52.315 -218.482)" fill="#263238"/>
      <path id="Path_59434" data-name="Path 59434" d="M170.45,270.794c0,.106,4.96.184,11.069.184s11.076-.078,11.076-.184-4.96-.184-11.076-.184S170.45,270.7,170.45,270.794Z" transform="translate(-52.315 -219.426)" fill="#263238"/>
      <path id="Path_59435" data-name="Path 59435" d="M170.45,274.044c0,.106,4.96.184,11.069.184s11.076-.078,11.076-.184-4.96-.184-11.076-.184S170.45,273.959,170.45,274.044Z" transform="translate(-52.315 -220.373)" fill="#263238"/>
      <path id="Path_59436" data-name="Path 59436" d="M170.45,277.294c0,.1,4.96.184,11.069.184s11.076-.085,11.076-.184-4.96-.184-11.076-.184S170.45,277.2,170.45,277.294Z" transform="translate(-52.315 -221.32)" fill="#263238"/>
      <path id="Path_59437" data-name="Path 59437" d="M170.45,280.544c0,.1,4.96.184,11.069.184s11.076-.085,11.076-.184-4.96-.184-11.076-.184S170.45,280.438,170.45,280.544Z" transform="translate(-52.315 -222.267)" fill="#263238"/>
    </g>
    <g id="freepik--Lamp--inject-4" transform="translate(272.261 66.466)">
      <path id="Path_59438" data-name="Path 59438" d="M88.66,390.047a.751.751,0,0,0,.709-.567l25.22-96.019a.755.755,0,1,0-1.46-.383L87.93,389.1a.751.751,0,0,0,.539.921.6.6,0,0,0,.191.028Z" transform="translate(42.825 -202.055)" fill="#263238"/>
      <path id="Path_59439" data-name="Path 59439" d="M79.277,393.4a.751.751,0,0,0,.709-.56L105.2,296.811a.755.755,0,1,0-1.46-.383l-25.2,96.026a.751.751,0,0,0,.539.921A.943.943,0,0,0,79.277,393.4Z" transform="translate(58.869 -203.032)" fill="#263238"/>
      <path id="Path_59440" data-name="Path 59440" d="M203.6,255.152l1.212-.9-64.69-87.062L81.11,178.5l.283,1.481,58.079-11.133Z" transform="translate(-42.554 -165.539)" fill="#263238"/>
      <rect id="Rectangle_7371" data-name="Rectangle 7371" width="106.939" height="1.509" transform="translate(155.456 91.252) rotate(-126.52)" fill="#263238"/>
      <path id="Path_59441" data-name="Path 59441" d="M178.067,170.508a4.252,4.252,0,1,1-.2-3.272A4.252,4.252,0,0,1,178.067,170.508Z" transform="translate(-78.895 -164.86)" fill="#efa00b"/>
      <path id="Path_59442" data-name="Path 59442" d="M254.077,173.611l1.056-6.151-4.549-.34-.333,5.938Z" transform="translate(-212.735 -165.519)" fill="#efa00b"/>
      <g id="Group_18660" data-name="Group 18660" transform="translate(37.515 1.601)" opacity="0.3">
        <path id="Path_59443" data-name="Path 59443" d="M254.077,173.611l1.056-6.151-4.549-.34-.333,5.938Z" transform="translate(-250.25 -167.12)"/>
      </g>
      <path id="Path_59444" data-name="Path 59444" d="M270.609,175.039l4.209,22.818,10.629,30.152-59.907-8.638,24.178-26.325,10.1-19.565,10.792,1.559" transform="translate(-225.54 -167.372)" fill="#efa00b"/>
      <path id="Path_59445" data-name="Path 59445" d="M86.41,292.965a4.755,4.755,0,1,1-4.755-4.755A4.755,4.755,0,0,1,86.41,292.965Z" transform="translate(78.828 -200.801)" fill="#efa00b"/>
      <path id="Path_59446" data-name="Path 59446" d="M135.676,449.046c0-.319.05-.631.05-.957a19.018,19.018,0,1,0-38.036,0c0,.326.039.638.053.957Z" transform="translate(14.78 -241.844)" fill="#efa00b"/>
    </g>
    <g id="freepik--Character--inject-4" transform="translate(84.61 48.001)">
      <path id="Path_59447" data-name="Path 59447" d="M255.5,447.21c.234.05,1.233,1.063-.191,2.672s-10.013,6.009-11.593,3.38,2.232-4.457,2.232-4.457Z" transform="translate(-21.107 -228.665)" fill="#ffbe9d"/>
      <path id="Path_59448" data-name="Path 59448" d="M266.74,432.364s-8.858-.978-12.472-.517a12.844,12.844,0,0,1-10.544-4.181,14.172,14.172,0,0,1-3.111-6.264l-5.669-3.94s-.609-13.4,8.326-11.239l10.438.368s20.55,3.4,23.725,5.96c0,0,3.869,3.763,5,5.216.425.553.787,6.073-3.139,7.958,0,0,2.317,2.955.276,4.627l-.957.709s1.325,2.955.078,3.8-11.1,3.834-13.9,1.885.446-4.2,1.927-4.393" transform="translate(-41.78 -216.654)" fill="#ffbe9d"/>
      <path id="Path_59449" data-name="Path 59449" d="M253.679,433.1a8.922,8.922,0,0,0-1.155.128c-.744.092-1.821.227-3.16.326-.666.043-1.417.085-2.183.1s-1.623,0-2.523.064a5.187,5.187,0,0,0-2.714.857,3,3,0,0,0-1.325,2.728,2.317,2.317,0,0,0,.794,1.417,3.984,3.984,0,0,0,1.339.744,12.1,12.1,0,0,0,2.771.517,24.983,24.983,0,0,0,4.741-.092c1.339-.142,2.409-.319,3.146-.446a6.378,6.378,0,0,0,1.148-.241,8.11,8.11,0,0,0-1.162.1c-.751.085-1.828.22-3.16.326a26.878,26.878,0,0,1-4.677,0,12.139,12.139,0,0,1-2.686-.517,3.805,3.805,0,0,1-1.219-.673,1.984,1.984,0,0,1-.666-1.183,2.657,2.657,0,0,1,1.169-2.388,5.017,5.017,0,0,1,2.53-.815c.865-.078,1.715-.05,2.5-.092s1.531-.078,2.2-.149c1.339-.128,2.409-.3,3.153-.439a5.668,5.668,0,0,0,1.134-.269Z" transform="translate(-17.678 -224.554)" fill="#eb996e"/>
      <path id="Path_59450" data-name="Path 59450" d="M253.132,424.07a7.469,7.469,0,0,0-1.155.128c-.709.1-1.814.241-3.139.354s-2.912.206-4.677.206a6.264,6.264,0,0,0-2.8.418,2.233,2.233,0,0,0-1.063,1.141,2.884,2.884,0,0,0-.149,1.587,3.813,3.813,0,0,0,1.793,2.459,6.151,6.151,0,0,0,2.693.872,26.73,26.73,0,0,0,4.712-.22l3.146-.319a6.714,6.714,0,0,0,1.155-.17,7.631,7.631,0,0,0-1.162,0l-3.16.206a29.41,29.41,0,0,1-4.656.135,5.853,5.853,0,0,1-2.537-.843,3.437,3.437,0,0,1-1.616-2.211,2.126,2.126,0,0,1,1.013-2.346,5.938,5.938,0,0,1,2.629-.4,41.926,41.926,0,0,0,4.7-.283c1.332-.149,2.4-.333,3.139-.475A6.58,6.58,0,0,0,253.132,424.07Z" transform="translate(-16.408 -221.922)" fill="#eb996e"/>
      <path id="Path_59451" data-name="Path 59451" d="M244.956,423.833a11.609,11.609,0,0,0,.8-1.637,10.1,10.1,0,0,0,.85-1.609c-.071-.071-.709.51-1.176,1.417A3.054,3.054,0,0,0,244.956,423.833Z" transform="translate(-12.802 -220.906)" fill="#eb996e"/>
      <path id="Path_59452" data-name="Path 59452" d="M238.766,404.872l8.376-1.113s23.668-4.826,23.9-4.2,1.417.843.524,3.38-14.534,4.783-15.143,5.591-1.049,5.506-6.378,7.667-8.688,1.417-8.688,1.417" transform="translate(-33.711 -214.764)" fill="#ffbe9d"/>
      <path id="Path_59453" data-name="Path 59453" d="M241.063,417.561l.177.05.546.078a12.751,12.751,0,0,0,2.126,0,18.507,18.507,0,0,0,3.281-.581,18.076,18.076,0,0,0,4.117-1.6A9.566,9.566,0,0,0,255,411.651a21.607,21.607,0,0,0,1.134-2.757,2.564,2.564,0,0,1,.156-.312.751.751,0,0,1,.248-.156,7.207,7.207,0,0,1,.709-.248c.5-.156,1.006-.291,1.531-.425,2.083-.546,4.287-1.07,6.541-1.729,1.127-.333,2.268-.709,3.4-1.155a11.339,11.339,0,0,0,1.665-.822,4.025,4.025,0,0,0,.765-.6,1.708,1.708,0,0,0,.291-.432c.078-.163.1-.312.156-.461a3.444,3.444,0,0,0,.113-1.935,2.274,2.274,0,0,0-.51-.836,1.586,1.586,0,0,1-.234-.326l-.057-.092a.248.248,0,0,0-.135-.085.8.8,0,0,0-.156,0h-.248c-1.233.078-2.4.283-3.543.468-2.317.383-4.542.794-6.661,1.2-4.252.8-8.036,1.566-11.232,2.225-.794.156-1.559.34-2.275.461l-2.055.283-3.281.468-2.076.312-.539.092-.184.043a.559.559,0,0,0,.191,0l.539-.05,2.09-.248,3.3-.4,2.062-.262c.709-.113,1.481-.283,2.282-.432l11.246-2.126c2.126-.39,4.344-.8,6.654-1.176,1.155-.177,2.346-.383,3.543-.461h.283a.121.121,0,0,1,.035-.085h0c-.276.1-.071,0-.135.064h0a1.453,1.453,0,0,0,.291.418,1.963,1.963,0,0,1,.439.709,3.118,3.118,0,0,1-.12,1.715,1.594,1.594,0,0,1-.368.751,3.725,3.725,0,0,1-.709.539,11.69,11.69,0,0,1-1.609.794c-1.113.453-2.239.815-3.366,1.148-2.239.666-4.436,1.19-6.519,1.743-.524.142-1.042.283-1.545.439a5.941,5.941,0,0,0-.751.269.886.886,0,0,0-.383.269,1.708,1.708,0,0,0-.191.376,21.383,21.383,0,0,1-1.113,2.735,9.255,9.255,0,0,1-3.543,3.77,18.128,18.128,0,0,1-4.039,1.63,18.629,18.629,0,0,1-3.238.631,14.319,14.319,0,0,1-2.083.071h-.546Z" transform="translate(-33.442 -214.698)" fill="#eb996e"/>
      <path id="Path_59454" data-name="Path 59454" d="M247.441,442.613a2.727,2.727,0,0,0-.872.043,8.369,8.369,0,0,0-2.282.673,7.51,7.51,0,0,0-1.417.85,2.523,2.523,0,0,0-1.049,1.644,2.034,2.034,0,0,0,1.049,1.871,3.933,3.933,0,0,0,2.253.468,42.255,42.255,0,0,0,7.731-1.141,19.943,19.943,0,0,0,2.268-.709,4.013,4.013,0,0,0,.8-.347,4.063,4.063,0,0,0-.843.206c-.539.156-1.311.368-2.282.581a50.154,50.154,0,0,1-7.689,1.028,3.628,3.628,0,0,1-2.048-.4,1.694,1.694,0,0,1-.9-1.538,2.218,2.218,0,0,1,.9-1.417,7.087,7.087,0,0,1,1.353-.85A12.371,12.371,0,0,1,247.441,442.613Z" transform="translate(-19.902 -227.32)" fill="#eb996e"/>
      <path id="Path_59455" data-name="Path 59455" d="M451.455,341.378S440.96,324.1,438.6,312.7s-14.548-29.493-18.509-34.212-19.664-10.218-19.664-10.218l-5.8-3.132-44.92-3.947s-29.883,3.146-38.932,11.4-16.114,27.133-16.114,36.565-9.134,91.158-9.134,91.158l110.695-.142-2.48-40.292s13.372-9.042,16.908-16.908,1.573-3.933,1.573-3.933,12.55,26.68,16.872,29.826,54.6,18.573,54.6,18.573l6.881-26.382Z" transform="translate(-285.53 -174.464)" fill="#efa00b"/>
      <path id="Path_59456" data-name="Path 59456" d="M453.887,281.652c1.212.376,16.206,39.1,17.262,42.624s0,25.716,0,25.716l-4.96,9.163s1.417,6.689.354,9.864l22.194,4.252s5.634-3.876,10.92,0l26.219,2.218s-7.689.085-5.4,11.877c2.239,11.551,3.947,14.087,3.947,14.087l-92.015-2.126s-10.225-.51-8.667-20.168,5.945-73.881,5.945-73.881S436.391,276.224,453.887,281.652Z" transform="translate(-418.654 -180.229)" fill="#efa00b"/>
      <path id="Path_59457" data-name="Path 59457" d="M492.681,353.257a2.042,2.042,0,0,0,.22-.475l.56-1.417c.241-.6.531-1.346.815-2.232s.659-1.871.957-3,.709-2.353.985-3.692.609-2.771.893-4.252a78.316,78.316,0,0,0,1.084-9.985,80.361,80.361,0,0,0-.3-10.041c-.184-1.531-.333-2.99-.581-4.344-.113-.709-.206-1.332-.333-1.963s-.255-1.219-.376-1.793c-.227-1.141-.517-2.126-.751-3.061s-.454-1.658-.659-2.282-.347-1.063-.461-1.417a5.159,5.159,0,0,0-.184-.5,2.122,2.122,0,0,0,.113.517c.1.361.234.843.4,1.417s.4,1.417.6,2.3.489,1.913.709,3.061c.113.574.227,1.169.347,1.793s.206,1.276.312,1.949c.234,1.353.376,2.835.546,4.337a75.286,75.286,0,0,1-.772,19.927c-.276,1.516-.531,2.955-.857,4.252s-.631,2.565-.935,3.692-.638,2.126-.907,3-.531,1.637-.751,2.246l-.5,1.417a4.25,4.25,0,0,0-.163.539Z" transform="translate(-439.981 -186.59)" fill="#263238"/>
      <path id="Path_59458" data-name="Path 59458" d="M505.95,425.254a2.76,2.76,0,0,0,.241-.269l.609-.815c.262-.361.588-.794.985-1.276s.829-1.056,1.361-1.644,1.091-1.247,1.743-1.906,1.36-1.361,2.126-2.076a52.568,52.568,0,0,1,5.3-4.252,53.141,53.141,0,0,1,5.839-3.458c.943-.454,1.828-.9,2.693-1.247s1.658-.709,2.4-.957,1.417-.489,2.02-.709,1.113-.354,1.538-.468l.978-.291a1.283,1.283,0,0,0,.34-.128,1.573,1.573,0,0,0-.354.057l-1,.22c-.432.1-.957.227-1.566.411s-1.3.368-2.041.652-1.573.546-2.431.914-1.772.78-2.721,1.226a49.03,49.03,0,0,0-5.9,3.458,50.506,50.506,0,0,0-5.315,4.294c-.758.709-1.481,1.417-2.126,2.126s-1.212,1.339-1.722,1.949-.935,1.19-1.325,1.687a14.626,14.626,0,0,0-.935,1.318c-.227.368-.411.624-.56.857A1.456,1.456,0,0,0,505.95,425.254Z" transform="translate(-485.265 -216.587)" fill="#263238"/>
      <path id="Path_59459" data-name="Path 59459" d="M528.7,422.806c.057.05.872-.879,2.4-2.126a24.342,24.342,0,0,1,2.835-1.984,26.985,26.985,0,0,1,3.82-1.85,26.681,26.681,0,0,1,4.082-1.148,24.6,24.6,0,0,1,3.444-.4c1.977-.078,3.2.071,3.21,0a3.812,3.812,0,0,0-.857-.142,8.756,8.756,0,0,0-1.013-.092,12.157,12.157,0,0,0-1.346,0,22.565,22.565,0,0,0-3.5.333,24.536,24.536,0,0,0-4.145,1.141,24.279,24.279,0,0,0-3.869,1.9,22.378,22.378,0,0,0-2.834,2.069,13.027,13.027,0,0,0-.985.921,7.971,7.971,0,0,0-.709.709,3.967,3.967,0,0,0-.531.673Z" transform="translate(-515.76 -219.291)" fill="#263238"/>
      <path id="Path_59460" data-name="Path 59460" d="M511.85,405.9c.042.064,1.127-.8,3.111-1.779a16.107,16.107,0,0,1,1.658-.709c.6-.255,1.261-.446,1.956-.666a22.436,22.436,0,0,1,9.4-.645c.709.121,1.417.22,2.027.39a16.8,16.8,0,0,1,1.743.5c2.126.709,3.288,1.417,3.323,1.332a4.626,4.626,0,0,0-.829-.5,8.344,8.344,0,0,0-1.013-.51,14.536,14.536,0,0,0-1.417-.567,15.1,15.1,0,0,0-1.75-.539,19.691,19.691,0,0,0-2.055-.439,21.6,21.6,0,0,0-9.545.659,17.3,17.3,0,0,0-1.977.709,14.679,14.679,0,0,0-1.665.772,13.9,13.9,0,0,0-1.3.758,7.526,7.526,0,0,0-.935.638,4.1,4.1,0,0,0-.73.6Z" transform="translate(-490.4 -215.348)" fill="#263238"/>
      <path id="Path_59461" data-name="Path 59461" d="M460.246,438.262a33.126,33.126,0,0,1-.652-3.94,25.454,25.454,0,0,1,.035-4.33,34.55,34.55,0,0,1,.921-5.223,36.618,36.618,0,0,1,1.764-4.96,27.393,27.393,0,0,1,2.126-3.784,36.134,36.134,0,0,1,2.5-3.125,6.784,6.784,0,0,0-.815.709,9.052,9.052,0,0,0-.865.935l-.51.6c-.177.227-.34.468-.524.709a24.549,24.549,0,0,0-2.2,3.791,30.641,30.641,0,0,0-2.721,10.332,23.97,23.97,0,0,0,.043,4.379c.035.312.071.6.1.886l.156.78a8.1,8.1,0,0,0,.3,1.233,6.755,6.755,0,0,0,.34,1.006Z" transform="translate(-384.982 -218.668)" fill="#263238"/>
      <path id="Path_59462" data-name="Path 59462" d="M438.48,378.011a.708.708,0,0,0,.043-.206,4.539,4.539,0,0,1,.1-.6c.078-.56.191-1.339.333-2.331.291-2.027.666-4.96,1.105-8.6.872-7.263,1.913-17.326,2.728-28.466s1.24-21.259,1.417-28.565c.1-3.657.149-6.619.163-8.667V297.6a.106.106,0,1,0-.043,0v.617c0,.56-.043,1.346-.078,2.353-.064,2.069-.156,5.024-.269,8.659-.262,7.313-.709,17.411-1.538,28.551s-1.814,21.188-2.622,28.458c-.411,3.614-.751,6.548-.985,8.61-.113,1-.2,1.779-.262,2.346a5.4,5.4,0,0,1-.064.609,1.13,1.13,0,0,0-.028.206Z" transform="translate(-347.79 -185.012)" fill="#263238"/>
      <path id="Path_59463" data-name="Path 59463" d="M377.47,360.628a8.086,8.086,0,0,0,.482-1.084c.283-.709.709-1.722,1.24-2.976,1.063-2.5,2.65-5.91,4.549-9.609s3.614-6.98,4.9-9.446c.617-1.219,1.113-2.2,1.417-2.891a7.743,7.743,0,0,0,.475-1.091,6.569,6.569,0,0,0-.6,1.02l-1.538,2.835c-1.29,2.4-3.1,5.669-5,9.4s-3.451,7.136-4.457,9.673c-.5,1.268-.893,2.3-1.134,3.026A7.521,7.521,0,0,0,377.47,360.628Z" transform="translate(-250.633 -195.542)" fill="#263238"/>
      <path id="Path_59464" data-name="Path 59464" d="M367.15,350.292a2.168,2.168,0,0,0,.645-.12c.4-.1.985-.269,1.7-.5a41.972,41.972,0,0,0,10.473-5.187c.617-.425,1.105-.787,1.417-1.049a2.522,2.522,0,0,0,.482-.432,23.133,23.133,0,0,0-2.062,1.261,55.562,55.562,0,0,1-5.074,2.835c-2.041,1-3.94,1.786-5.336,2.31a23.962,23.962,0,0,0-2.246.886Z" transform="translate(-234.658 -198.301)" fill="#263238"/>
      <path id="Path_59465" data-name="Path 59465" d="M345.04,384.216a3.82,3.82,0,0,0,.765-.461c.468-.319,1.162-.772,2.034-1.3a41.909,41.909,0,0,1,14.817-5.549c1.006-.177,1.821-.291,2.388-.361a3.9,3.9,0,0,0,.879-.149,3.925,3.925,0,0,0-.893,0,19.659,19.659,0,0,0-2.416.241,37.243,37.243,0,0,0-7.795,1.984,37.681,37.681,0,0,0-7.157,3.6c-.857.567-1.531,1.049-1.977,1.417A4.854,4.854,0,0,0,345.04,384.216Z" transform="translate(-203.046 -208.025)" fill="#263238"/>
      <path id="Path_59466" data-name="Path 59466" d="M438.64,261.28a5.714,5.714,0,0,0,.043.574c.05.411.113.957.191,1.644.184,1.417.439,3.486.872,6.023a76.317,76.317,0,0,0,1.984,8.815,41.1,41.1,0,0,0,4.443,10.119,31.026,31.026,0,0,0,3.692,4.734l.142.156.135-.177a18.744,18.744,0,0,1,6.725-5.577,17.872,17.872,0,0,1,3.543-1.3,15.68,15.68,0,0,1,3.224-.432,13.3,13.3,0,0,1,4.592.645c1.028.361,1.573.631,1.587.6a2.549,2.549,0,0,0-.39-.206,9.6,9.6,0,0,0-1.155-.51,12.868,12.868,0,0,0-4.641-.758,15.651,15.651,0,0,0-3.288.4,18.061,18.061,0,0,0-3.614,1.29,18.885,18.885,0,0,0-6.874,5.669h.276a31.519,31.519,0,0,1-3.642-4.677,41.747,41.747,0,0,1-4.443-10.02,83.167,83.167,0,0,1-2.055-8.759c-.468-2.523-.758-4.585-.985-6-.106-.709-.2-1.226-.262-1.63a2.525,2.525,0,0,0-.1-.609Z" transform="translate(-373.262 -174.49)" fill="#263238"/>
      <path id="Path_59467" data-name="Path 59467" d="M429.36,258.189l6.824-9.049,7.419.234,24.107,12.734Z" transform="translate(-364.584 -170.953)" fill="#efa00b"/>
      <path id="Path_59468" data-name="Path 59468" d="M414.87,289.753a1.629,1.629,0,0,0,.39,0,8.634,8.634,0,0,0,1.113-.184,13.812,13.812,0,0,0,3.805-1.63,8.347,8.347,0,0,1,2.586-1.07,7.618,7.618,0,0,1,3.2,0,7.49,7.49,0,0,1,5.35,4.656l.383,1.035v-1.97c-.085-5.584-.092-10.629-.319-14.307-.106-1.828-.248-3.309-.4-4.323-.064-.51-.142-.9-.2-1.162a2.44,2.44,0,0,0-.1-.4c-.035,0,.064.56.156,1.58s.213,2.487.283,4.316c.163,3.657.12,8.709.213,14.3v.872l.354-.071a7.8,7.8,0,0,0-5.627-4.854,7.951,7.951,0,0,0-5.981,1.183,14.971,14.971,0,0,1-3.713,1.715C415.409,289.682,414.863,289.717,414.87,289.753Z" transform="translate(-318.306 -177.147)" fill="#263238"/>
      <path id="Path_59469" data-name="Path 59469" d="M394.39,175.688V230.04a13.18,13.18,0,0,0,3.1,8.5h0a40,40,0,0,0,10.913,9.035l10.955,6.172,9.07-8.121a13.2,13.2,0,0,0,4.386-9.318c.156-3.954.156-7.944.156-7.944s15.356-1.105,16.8-16.249c.709-7.129.893-21.734.928-35.2a29.465,29.465,0,0,0-27.034-29.429l-.432-.035a28.161,28.161,0,0,0-28.841,28.232Z" transform="translate(-322.79 -141.322)" fill="#ffbe9d"/>
      <path id="Path_59470" data-name="Path 59470" d="M438.653,258.336a35.249,35.249,0,0,1-19.3-7.256s3.77,11.3,19.012,11.182Z" transform="translate(-328.433 -171.518)" fill="#eb996e"/>
      <path id="Path_59471" data-name="Path 59471" d="M405.927,202.515a2.175,2.175,0,0,1-2.268,2.012,2.076,2.076,0,0,1-2.069-2.126,2.168,2.168,0,0,1,2.26-2.012,2.076,2.076,0,0,1,2.076,2.126Z" transform="translate(-283.122 -156.747)" fill="#263238"/>
      <path id="Path_59472" data-name="Path 59472" d="M408.336,196.561c-.291.255-1.828-1.091-4.16-1.276s-4.138.836-4.365.531c-.113-.142.2-.624.992-1.105a5.931,5.931,0,0,1,3.543-.772,5.669,5.669,0,0,1,3.281,1.368C408.28,195.916,408.478,196.44,408.336,196.561Z" transform="translate(-284.298 -154.86)" fill="#263238"/>
      <path id="Path_59473" data-name="Path 59473" d="M437.214,201.185a2.176,2.176,0,0,1-2.268,2.013,2.083,2.083,0,0,1-2.076-2.126,2.175,2.175,0,0,1,2.268-2.013,2.083,2.083,0,0,1,2.076,2.126Z" transform="translate(-336.575 -156.36)" fill="#263238"/>
      <path id="Path_59474" data-name="Path 59474" d="M440.7,194.5c-.291.255-1.835-1.091-4.16-1.276s-4.138.836-4.365.524c-.113-.135.2-.624.992-1.1a5.981,5.981,0,0,1,3.543-.78,5.712,5.712,0,0,1,3.281,1.368C440.642,193.847,440.854,194.378,440.7,194.5Z" transform="translate(-339.599 -154.258)" fill="#263238"/>
      <path id="Path_59475" data-name="Path 59475" d="M413.788,212.981a15.2,15.2,0,0,1,3.841-.376c.6,0,1.169-.078,1.3-.475a3.062,3.062,0,0,0-.248-1.8c-.446-1.488-.907-3.04-1.417-4.677-1.906-6.654-3.238-12.1-2.969-12.174s2.034,5.258,3.94,11.9c.461,1.644.9,3.2,1.311,4.7a3.423,3.423,0,0,1,.113,2.36,1.488,1.488,0,0,1-1.049.794,4,4,0,0,1-1.02.057A19.983,19.983,0,0,1,413.788,212.981Z" transform="translate(-305.659 -154.734)" fill="#263238"/>
      <path id="Path_59476" data-name="Path 59476" d="M422.906,222.43c.383,0,.177,2.537,2.2,4.514s4.727,1.92,4.719,2.275c0,.156-.645.439-1.786.376a6.3,6.3,0,0,1-3.947-1.757,5.471,5.471,0,0,1-1.679-3.77C422.4,223,422.736,222.4,422.906,222.43Z" transform="translate(-321.771 -163.17)" fill="#263238"/>
      <path id="Path_59477" data-name="Path 59477" d="M440.993,181.874c-.283.617-2.586.12-5.343.227s-5.038.666-5.35.064c-.142-.283.291-.843,1.233-1.417a9.311,9.311,0,0,1,8.149-.22C440.653,181.045,441.113,181.583,440.993,181.874Z" transform="translate(-338.533 -150.718)" fill="#263238"/>
      <path id="Path_59478" data-name="Path 59478" d="M408.065,186.86c-.454.5-2.013-.184-3.94-.368s-3.593.057-3.926-.524c-.142-.283.156-.794.914-1.233a5.5,5.5,0,0,1,3.281-.6,5.414,5.414,0,0,1,3.054,1.325C408.087,186.074,408.257,186.64,408.065,186.86Z" transform="translate(-284.325 -151.998)" fill="#263238"/>
      <path id="Path_59479" data-name="Path 59479" d="M468.906,161.629l-.085.057a12,12,0,0,0-5.1,7.348l-.064.3c-.95,4.252-1.212,8.681-2.2,12.947s-.808,7.526-5.081,8.5a5.669,5.669,0,0,1-5.945-2.416,3.642,3.642,0,0,1-.376-2.027c.05-10.5-2.062-14.584-1.134-25.511a9.212,9.212,0,0,1,4.436-7.171c2.424-1.453,5.357-2.92,7.795-1.509s5.336,6.441,7.143,8.624" transform="translate(-379.471 -142.527)" fill="#263238"/>
      <path id="Path_59480" data-name="Path 59480" d="M478.143,197.247c-.255-.128-10.162-3.94-10.693,6.456s10.02,8.773,10.048,8.5S478.143,197.247,478.143,197.247Z" transform="translate(-401.994 -155.603)" fill="#ffbe9d"/>
      <path id="Path_59481" data-name="Path 59481" d="M476.987,209.438c-.043-.035-.184.12-.5.241a1.8,1.8,0,0,1-1.353-.043c-1.077-.453-1.913-2.246-1.871-4.124a5.959,5.959,0,0,1,.638-2.565,2.083,2.083,0,0,1,1.417-1.318.914.914,0,0,1,1.042.553c.128.3.05.5.106.517s.227-.163.17-.6a1.191,1.191,0,0,0-.376-.673,1.417,1.417,0,0,0-.992-.312,2.551,2.551,0,0,0-1.97,1.516,6.116,6.116,0,0,0-.772,2.835c-.042,2.126.928,4.11,2.409,4.62a1.935,1.935,0,0,0,1.672-.191C476.958,209.686,477.022,209.459,476.987,209.438Z" transform="translate(-404.459 -156.959)" fill="#eb996e"/>
      <path id="Path_59482" data-name="Path 59482" d="M376.92,150c-2.211-4.358,5.272-9.737,10.523-10.927s11.784,1.864,16.731,3.975c3.125,1.332,6.2,3.083,9.595,3.217a22.738,22.738,0,0,0,6.711-1.127,16.692,16.692,0,0,1,6.739-.758c2.253.347,4.486,1.736,5.166,3.912s-.78,4.96-3.054,5.074a5.106,5.106,0,1,1,.574,9.545c1.566-1,3.678,1.035,3.338,2.835s-2.126,3.033-3.862,3.635c-4.486,1.538-9.474.517-13.825-1.361s-8.3-4.564-12.6-6.548-11.494-5.5-16.072-4.3c-3.373.886-5.981,4.649-7.795,3.621a6.378,6.378,0,0,1-2.891-4.96,18.212,18.212,0,0,1,.709-5.882" transform="translate(-295.697 -138.803)" fill="#263238"/>
      <path id="Path_59483" data-name="Path 59483" d="M435.9,154.378c-.085-.057-.6.709-1.814,1.842a14.321,14.321,0,0,1-6.066,3.224,13.173,13.173,0,0,1-9.85-1.212c-3.394-1.871-6.151-5.286-9.375-8.546s-7.122-5.853-11.189-6.562a12,12,0,0,0-10.19,2.608,9.106,9.106,0,0,0-2.912,6.505,7.214,7.214,0,0,0,.291,1.949c.156.418.255.631.291.617a16.172,16.172,0,0,1-.177-2.551,8.95,8.95,0,0,1,2.99-5.981,11.366,11.366,0,0,1,9.538-2.218c3.77.723,7.49,3.146,10.629,6.378s6,6.7,9.637,8.652a14.172,14.172,0,0,0,16.66-2.558A10.146,10.146,0,0,0,435.574,155C435.822,154.6,435.929,154.4,435.9,154.378Z" transform="translate(-300.992 -140.002)" fill="#455a64"/>
      <path id="Path_59484" data-name="Path 59484" d="M459.233,185.7c.035.035.475-.248.935-1.042a6.973,6.973,0,0,0,.822-3.713c.05-3.359-2.608-7.185-2.6-11.827a10.459,10.459,0,0,1,1.658-6.094,7.993,7.993,0,0,1,4.131-3.012,6.76,6.76,0,0,1,3.5-.184c.822.205,1.247.432,1.3.354s-.34-.4-1.183-.709a6.548,6.548,0,0,0-3.812-.135,8.425,8.425,0,0,0-4.705,3.168,11.034,11.034,0,0,0-1.913,6.647,18.935,18.935,0,0,0,1.46,6.7,19.778,19.778,0,0,1,1.417,5.166A7.762,7.762,0,0,1,459.233,185.7Z" transform="translate(-385.692 -144.723)" fill="#455a64"/>
      <rect id="Rectangle_7372" data-name="Rectangle 7372" width="5.336" height="12.351" rx="2.14" transform="matrix(-0.733, 0.68, -0.68, -0.733, 78.716, 53.67)" fill="#263238"/>
      <path id="Path_59485" data-name="Path 59485" d="M425.825,332.17a3.089,3.089,0,0,1-.043.418c-.043.276-.05.709-.092,1.219-.078,1.084-.184,2.679-.333,4.748-.284,4.167-.709,10.254-1.212,17.971s-1.113,17.064-1.821,27.743q-.255,4-.539,8.255c-.106,1.417-.163,2.835-.227,4.323a20.8,20.8,0,0,0,0,2.2,21.422,21.422,0,0,0,.12,2.232l.276,2.253c.163.744.326,1.5.482,2.246a21.751,21.751,0,0,0,.709,2.218,11.559,11.559,0,0,0,.978,2.126,12.789,12.789,0,0,0,7.022,6.378h91.576l-.064-.234c-.673-2.4-1.339-4.762-2-7.122q-.5-1.764-.985-3.543a24.471,24.471,0,0,1-.822-3.494,15.186,15.186,0,0,1,.609-6.959,8.5,8.5,0,0,1,1.658-2.99,4.875,4.875,0,0,1,2.835-1.665l1.453-.227-1.417-.12-26.184-2.2h.078a8.943,8.943,0,0,0-5.669-1.736,11.338,11.338,0,0,0-5.464,1.743h.12l-22.2-4.181.1.17a9.3,9.3,0,0,0,.383-2.615,21.333,21.333,0,0,0-.071-2.53,39.176,39.176,0,0,0-.673-4.79v.085c1.779-3.323,3.409-6.378,4.918-9.17v-.043c.347-8.17.475-14.612.411-19.005,0-2.2-.106-3.883-.22-5.017a8.573,8.573,0,0,0-.191-1.276c-.064-.283-.1-.425-.1-.425a2,2,0,0,0,.071.432,9.42,9.42,0,0,1,.163,1.276c.1,1.134.163,2.835.17,5.01,0,4.393-.128,10.835-.5,19v-.043c-1.509,2.8-3.153,5.832-4.96,9.148h0v.043a40.055,40.055,0,0,1,.673,4.79,21.065,21.065,0,0,1,.064,2.509,9.127,9.127,0,0,1-.376,2.537l-.043.142h.142l22.194,4.252h.057l.057-.035a10.948,10.948,0,0,1,5.3-1.672,8.56,8.56,0,0,1,5.435,1.679h.085l26.177,2.225v-.347a5.194,5.194,0,0,0-3.061,1.772A8.935,8.935,0,0,0,519.144,395a15.513,15.513,0,0,0-.631,7.122,24.257,24.257,0,0,0,.829,3.543l.985,3.543q.992,3.543,1.991,7.086l.177-.234H500.529l-69.325.05h0a10.629,10.629,0,0,1-4.018-2.48,14.966,14.966,0,0,1-2.8-3.749c-.376-.709-.645-1.417-.964-2.126a18.754,18.754,0,0,1-.709-2.19c-.227-.73-.319-1.481-.482-2.218s-.184-1.5-.276-2.232a21.136,21.136,0,0,1-.128-2.211,20.568,20.568,0,0,1,0-2.19c.064-1.453.113-2.884.22-4.3q.262-4.252.524-8.263c.709-10.679,1.268-20.033,1.757-27.757s.857-13.8,1.12-17.971c.12-2.069.22-3.671.284-4.755,0-.531.05-.935.064-1.219S425.825,332.17,425.825,332.17Z" transform="translate(-416.734 -195.145)" fill="#263238"/>
      <path id="Path_59486" data-name="Path 59486" d="M504.44,277.68a13.565,13.565,0,0,0,1.261.787,29.512,29.512,0,0,1,3.281,2.353,38.491,38.491,0,0,1,8.5,10.162,83.95,83.95,0,0,1,5.669,12.047l1.474,3.77.411,1.027a1.493,1.493,0,0,0,.163.347,1.418,1.418,0,0,0-.092-.376c-.092-.276-.213-.624-.347-1.049-.312-.907-.765-2.211-1.368-3.82a75.955,75.955,0,0,0-5.591-12.153,36.907,36.907,0,0,0-8.645-10.176,25.133,25.133,0,0,0-3.373-2.268c-.411-.248-.758-.4-.978-.51a1.766,1.766,0,0,0-.369-.142Z" transform="translate(-475.28 -179.268)" fill="#263238"/>
      <g id="Group_18661" data-name="Group 18661" transform="translate(47.57 125.417)" opacity="0.3">
        <path id="Path_59487" data-name="Path 59487" d="M484.058,315.847a47.039,47.039,0,0,1,3.968,21.2c-.269,7.2-1.134,14.421-.425,21.6s3.2,14.5,8.546,19.324a6.952,6.952,0,0,1,1.729,1.92,1.949,1.949,0,0,1-.333,2.374,2.834,2.834,0,0,1-2.225.234c-5.123-.893-10.31-1.531-15.441-2.416-1.1-.191-4.79-.914-4.79-.914a20.037,20.037,0,0,0,.312-4.252c-.163-1.283-.666-5.669-.666-5.669a7.54,7.54,0,0,1,.985-1.828,41.915,41.915,0,0,0,4.252-10.906,49.659,49.659,0,0,0,3.352-10.523c2.246-9.29,2.183-18.424.751-30.195" transform="translate(-474.732 -315.79)"/>
      </g>
      <g id="Group_18662" data-name="Group 18662" transform="translate(97.011 109.779)" opacity="0.3">
        <path id="Path_59488" data-name="Path 59488" d="M431.247,298.837c-.418,1.063-.843,2.126-1.261,3.2a1.289,1.289,0,0,1-.609.8c-.631.241-1.134-.531-1.417-1.141a8.185,8.185,0,0,0-6.286-4.415c-2.126-.248-4.365.376-6.484-.064a28.728,28.728,0,0,1,5.853-2.912,9.708,9.708,0,0,1,6.427-.064,5.931,5.931,0,0,1,3.876,4.84" transform="translate(-415.19 -293.722)"/>
      </g>
      <g id="Group_18663" data-name="Group 18663" transform="translate(66.292 96.371)" opacity="0.3">
        <path id="Path_59489" data-name="Path 59489" d="M468.739,290.638a34.524,34.524,0,0,0-7.5.709,11.706,11.706,0,0,0-6.427,3.7c-1.715,2.09-2.353,4.833-3.047,7.441-.135.5-.376,1.1-.886,1.155a1.261,1.261,0,0,1-.85-.333c-4.252-3.118-7.044-7.887-8.574-12.918a56.547,56.547,0,0,1-1.97-15.59c2.027,3.621,2.905,7.745,4.252,11.671s3.309,7.88,6.782,10.148a3.387,3.387,0,0,1,.794-2.487,7.426,7.426,0,0,1,2.062-1.686,19.7,19.7,0,0,1,15.774-1.935" transform="translate(-439.48 -274.8)"/>
      </g>
      <path id="Path_59490" data-name="Path 59490" d="M354.945,412.3h8.681s19.579-7.086,23.6-6.378c3.628.609,16.9,9.425,19.5,11.175a1.637,1.637,0,0,1,.631.8h0a2.834,2.834,0,0,1-1.587,3.614l-.269.113.113.4a4.7,4.7,0,0,1,.206,1.587,1.913,1.913,0,0,1-3.543.822l.5.893a2.126,2.126,0,0,1,.276,1.19l-.043.8a2.183,2.183,0,0,1-1.5,1.956h0a2.175,2.175,0,0,1-2.268-.631c-1.687-1.85-5.322-5.556-7.795-5.967a57.49,57.49,0,0,0-8.036-.4,2.728,2.728,0,0,0-2.53,1.736h0c1.46.106,11.636,5.414,15.235,7.313a3.834,3.834,0,0,1,2.09,2.9c.135,1.127-.432,2.3-2.664,1.786-4.783-1.12-13.393-5.074-13.393-5.074s-4.436-1.268-7.313.758c-4.046,2.835-5.9,3.9-9.375,2.749a29.441,29.441,0,0,1-6.037-2.835l-6.845-.709S346.094,414.777,354.945,412.3Z" transform="translate(-248.382 -216.619)" fill="#ffbe9d"/>
      <path id="Path_59491" data-name="Path 59491" d="M357.41,419.254c0,.078,1.417-.361,3.678-.51a18.977,18.977,0,0,1,15.824,6.753,36.619,36.619,0,0,1,2.175,3.012,4.324,4.324,0,0,0-.432-.907,16.46,16.46,0,0,0-1.538-2.268,18.382,18.382,0,0,0-16.05-6.845,17.009,17.009,0,0,0-2.7.454A4.608,4.608,0,0,0,357.41,419.254Z" transform="translate(-224.975 -220.274)" fill="#eb996e"/>
      <path id="Path_59492" data-name="Path 59492" d="M353.16,412.485a14.881,14.881,0,0,1,12.755,1.857,35.686,35.686,0,0,1,7.157,6.073l1.97,2.069a5.053,5.053,0,0,0,.751.709,6.824,6.824,0,0,0-.645-.836c-.432-.524-1.07-1.268-1.885-2.168a32.979,32.979,0,0,0-7.178-6.215,16.3,16.3,0,0,0-9.106-2.466,10.942,10.942,0,0,0-2.834.524,6.382,6.382,0,0,0-.709.276Z" transform="translate(-218.67 -218.26)" fill="#eb996e"/>
    </g>
    <g id="freepik--speech-bubble--inject-4" transform="translate(76.579 45.17)">
      <path id="Path_59493" data-name="Path 59493" d="M532.682,135.11a28.969,28.969,0,0,1,23.767,45.543l3.479,10.807L549.3,187.839a28.976,28.976,0,1,1-16.6-52.729Z" transform="translate(-503.201 -134.896)" fill="#fff"/>
      <path id="Path_59494" data-name="Path 59494" d="M526.783,174.622a2.5,2.5,0,1,0,2.423-2.572,2.5,2.5,0,0,0-2.423,2.572Z" transform="translate(-489.662 -145.659)" fill="#263238"/>
      <path id="Path_59495" data-name="Path 59495" d="M540.943,175.052a2.5,2.5,0,1,0,2.424-2.572A2.5,2.5,0,0,0,540.943,175.052Z" transform="translate(-513.856 -145.784)" fill="#263238"/>
      <path id="Path_59496" data-name="Path 59496" d="M555.732,174.228a2.494,2.494,0,1,0,1.478-1.211A2.5,2.5,0,0,0,555.732,174.228Z" transform="translate(-538.616 -145.91)" fill="#263238"/>
      <path id="Path_59497" data-name="Path 59497" d="M531.619,134.824a2.076,2.076,0,0,0-.5,0l-1.488.085a5.417,5.417,0,0,0-1.091.078l-1.3.227-1.524.262-1.694.475a27.8,27.8,0,0,0-8.163,3.862A29.2,29.2,0,0,0,503.1,162.17a30.252,30.252,0,0,0,0,4c.071.673.078,1.361.2,2.041s.248,1.361.369,2.055a29.484,29.484,0,0,0,3.068,8.064,31.512,31.512,0,0,0,5.541,7.157,30.776,30.776,0,0,0,7.83,5.279,27.962,27.962,0,0,0,9.425,2.586,18.424,18.424,0,0,0,2.5.135,23.062,23.062,0,0,0,2.523,0,30.472,30.472,0,0,0,5.024-.787,29.592,29.592,0,0,0,9.921-4.535l-.3.043,10.353,3.8.616.227-.191-.624-3.338-10.849-.042.269a29.282,29.282,0,0,0,5.081-12.656,26.48,26.48,0,0,0,.206-6.42,20.668,20.668,0,0,0-.383-3.061l-.276-1.5c-.106-.489-.269-.957-.4-1.417a29.266,29.266,0,0,0-11.912-16.3,28.053,28.053,0,0,0-6.9-3.38l-1.545-.5-1.467-.326-1.339-.283c-.425-.071-.836-.106-1.226-.149-.779-.078-1.46-.191-2.055-.2h-2.424a1.182,1.182,0,0,0-.312,0,1.34,1.34,0,0,0,.312,0l.914.05,1.509.05a19.9,19.9,0,0,1,2.034.248,29.089,29.089,0,0,1,23.916,20.876c.12.468.283.935.383,1.417s.177.978.269,1.467a20.945,20.945,0,0,1,.361,3.012,26.475,26.475,0,0,1-.227,6.286,28.862,28.862,0,0,1-5.017,12.394l-.092.12.05.149q1.6,5.265,3.309,10.856l.425-.4-10.353-3.805-.163-.064-.142.1a28.806,28.806,0,0,1-9.694,4.422,28.428,28.428,0,0,1-4.911.772,22.027,22.027,0,0,1-2.466.035,18.6,18.6,0,0,1-2.438-.135,27.267,27.267,0,0,1-9.212-2.516,30.224,30.224,0,0,1-7.674-5.152,30.733,30.733,0,0,1-5.435-6.994,28.707,28.707,0,0,1-2.99-7.887c-.128-.709-.248-1.346-.376-2.005s-.128-1.346-.2-2.005a30.476,30.476,0,0,1-.057-3.933,28.926,28.926,0,0,1,12.415-22.081,27.792,27.792,0,0,1,8.036-3.919l1.672-.5,1.5-.3,1.29-.248c.4-.057.765-.078,1.084-.113l1.474-.156A3.545,3.545,0,0,0,531.619,134.824Z" transform="translate(-503.03 -134.808)" fill="#263238"/>
    </g>
    <g id="freepik--Cat--inject-4" transform="translate(19.282 214.197)">
      <path id="Path_59498" data-name="Path 59498" d="M636.616,447.49a7.143,7.143,0,0,1,4.705,2.615,5.173,5.173,0,0,1,.659,5.208,4.089,4.089,0,0,1-4.571,2.239,2.586,2.586,0,0,1-5.166.085,3.082,3.082,0,0,1-5.4-2.253c.057-.815.432-1.573.524-2.374a25.626,25.626,0,0,0-.1-2.657,2.253,2.253,0,0,1,1.247-2.168" transform="translate(-613.883 -394.943)" fill="#263238"/>
      <path id="Path_59499" data-name="Path 59499" d="M602.667,452.493a30.754,30.754,0,0,0-9.042-3.614c-2.289-.588-4.748-1.07-6.994-.333a6.9,6.9,0,0,0-4.422,4.663,3.416,3.416,0,0,0,.113,2.487,4.11,4.11,0,0,0,2.835,1.729c.836.213,1.913.276,2.381-.454a3.245,3.245,0,0,0,4.755.368,3.139,3.139,0,0,0,5.981-1.757,3.458,3.458,0,0,0,3.026,1.5,2.835,2.835,0,0,0,2.5-2.126,2.409,2.409,0,0,0-1.679-2.728" transform="translate(-543.567 -395.141)" fill="#263238"/>
      <path id="Path_59500" data-name="Path 59500" d="M627.89,442.278a7.8,7.8,0,0,0-3.019-8.1c-2.835-2.048-4.847-4.429-8.546-6.633a55.088,55.088,0,0,0-9.049-3.89c-7.263-2.409-12.174-3.019-15.158-4.585-3.267-1.708-7.632-4.4-7.632-4.4l-37.075,2.877s-4.457,27.381,2.289,30.06c0,0,31.42.326,33.886-.765,2.679-1.183,43.559-1.162,43.439-.893Z" transform="translate(-542.274 -385.38)" fill="#263238"/>
      <path id="Path_59501" data-name="Path 59501" d="M532.32,446.25a116.49,116.49,0,0,0,19.912,1.6,35.681,35.681,0,0,1,7.015.454,7.681,7.681,0,0,1,3.827,1.779,3.77,3.77,0,0,1,1.084,3.9,2.542,2.542,0,0,1-3.479,1.382,2.835,2.835,0,0,1-5.173,1,2.4,2.4,0,0,1-2.275.709,9.394,9.394,0,0,1-2.324-.9c-3.231-1.509-6.668-1.134-10.24-1.113-6.236.043-13.294,0-10.693,0" transform="translate(-466.772 -394.581)" fill="#263238"/>
      <path id="Path_59502" data-name="Path 59502" d="M529.636,455.068a4.257,4.257,0,0,0-.524-.035h0v.064h1.481l5.669.064h3.982c1.417,0,2.99-.071,4.62,0a14.882,14.882,0,0,1,5.038.9,26.194,26.194,0,0,0,2.572,1.084,3.323,3.323,0,0,0,1.5.085,2.225,2.225,0,0,0,1.353-.772h-.3a3.012,3.012,0,0,0,5.513-1.056l-.283.12a2.586,2.586,0,0,0,2.941-.361,2.756,2.756,0,0,0,.971-1.729,3.742,3.742,0,0,0-.248-1.935,5.067,5.067,0,0,0-2.629-2.615,11.742,11.742,0,0,0-3.451-.935,28.039,28.039,0,0,0-3.4-.241c-4.415,0-8.383-.043-11.707-.291s-6.009-.581-7.859-.815l-2.126-.276-.553-.064H532l.184.05.553.1,2.126.34c1.849.276,4.528.666,7.859.935s7.32.333,11.721.368a28.762,28.762,0,0,1,3.359.248,11.556,11.556,0,0,1,3.345.914,4.684,4.684,0,0,1,2.445,2.431,2.771,2.771,0,0,1-.624,3.238,2.2,2.2,0,0,1-2.5.333l-.227-.149-.05.269a2.65,2.65,0,0,1-4.847.935l-.135-.213-.156.2a2.346,2.346,0,0,1-2.473.574,27.226,27.226,0,0,1-2.544-1.063,14.917,14.917,0,0,0-5.152-.893c-1.651-.035-3.2.057-4.634.064l-3.975.035-5.669.043h-1.481v.064h0A2.691,2.691,0,0,0,529.636,455.068Z" transform="translate(-466.433 -394.584)" fill="#455a64"/>
      <path id="Path_59503" data-name="Path 59503" d="M628.539,453.559a1.956,1.956,0,0,0-.418.546,3.181,3.181,0,0,0-.34,1.913,3.3,3.3,0,0,0,.475,1.332,2.835,2.835,0,0,0,1.268,1.091,3.345,3.345,0,0,0,3.77-.808l-.255-.05a2.9,2.9,0,0,0,5.5,0l-.213.113a4.487,4.487,0,0,0,4.96-2.835,5.35,5.35,0,0,0-.3-4.5,7.306,7.306,0,0,0-2.962-3.026,10.2,10.2,0,0,0-3.656-1.155,16.047,16.047,0,0,0-3.331-.057,44.686,44.686,0,0,0-4.741.709l-1.276.248a3.43,3.43,0,0,0-.439.106,1.684,1.684,0,0,0,.454,0l1.29-.184c1.12-.163,2.728-.475,4.734-.617a12.266,12.266,0,0,1,6.8,1.247,6.952,6.952,0,0,1,2.835,2.891,4.961,4.961,0,0,1,.29,4.2,4.206,4.206,0,0,1-4.564,2.615h-.163l-.05.156a2.629,2.629,0,0,1-2.565,1.772,2.679,2.679,0,0,1-2.31-1.736l-.085-.248-.17.2a3.083,3.083,0,0,1-3.444.779,2.834,2.834,0,0,1-1.665-2.225,3.161,3.161,0,0,1,.248-1.842C628.4,453.75,628.56,453.573,628.539,453.559Z" transform="translate(-614.94 -394.527)" fill="#455a64"/>
      <path id="Path_59504" data-name="Path 59504" d="M643.81,445.871c.042.042.425-.333,1.169-.709a5.8,5.8,0,0,1,6.179.312c.709.482,1.042.893,1.091.85a2.891,2.891,0,0,0-.935-1.056,5.534,5.534,0,0,0-6.47-.333A2.878,2.878,0,0,0,643.81,445.871Z" transform="translate(-635.76 -393.94)" fill="#455a64"/>
      <path id="Path_59505" data-name="Path 59505" d="M599.655,451.293a1.587,1.587,0,0,0,.276-.184,3.188,3.188,0,0,0,.609-.709,4.393,4.393,0,0,0,.4-3.408,6.916,6.916,0,0,0-3.331-3.855,55.418,55.418,0,0,0-5.761-2.466,19.728,19.728,0,0,1-9.921-10.339,9.459,9.459,0,0,0-.5-1.162,1.526,1.526,0,0,0,.071.319c.064.206.142.517.291.893a16.855,16.855,0,0,0,1.5,3.118,19.133,19.133,0,0,0,8.418,7.511c2.048.907,4.1,1.417,5.74,2.416a6.754,6.754,0,0,1,3.253,3.635,4.309,4.309,0,0,1-.269,3.267A5.006,5.006,0,0,1,599.655,451.293Z" transform="translate(-540.421 -389.605)" fill="#455a64"/>
      <path id="Path_59506" data-name="Path 59506" d="M596.287,456.547a3.545,3.545,0,0,1-.808.631,3.068,3.068,0,0,1-2.65.043,3.543,3.543,0,0,1-1.835-3.352,4.649,4.649,0,0,1,.645-2.275,6.072,6.072,0,0,1,1.764-1.871,8.5,8.5,0,0,1,4.769-1.417,15.229,15.229,0,0,1,4.11.631c1.148.326,2.062.652,2.693.865a6.66,6.66,0,0,0,1,.312,5.054,5.054,0,0,0-.943-.446c-.624-.255-1.523-.616-2.679-.978a14.47,14.47,0,0,0-4.181-.709,8.631,8.631,0,0,0-4.96,1.474,6.256,6.256,0,0,0-1.871,1.991,4.96,4.96,0,0,0-.673,2.459,3.749,3.749,0,0,0,2.069,3.586,3.139,3.139,0,0,0,2.835-.149,2.3,2.3,0,0,0,.6-.517A1.418,1.418,0,0,0,596.287,456.547Z" transform="translate(-551.821 -395.085)" fill="#455a64"/>
      <path id="Path_59507" data-name="Path 59507" d="M603.176,459.081a3.146,3.146,0,0,1-1.183.765,3.451,3.451,0,0,1-1.474.248,1.963,1.963,0,0,1-1.417-.957,2.247,2.247,0,0,1-.149-1.743,4.344,4.344,0,0,1,.709-1.354,11.2,11.2,0,0,0,.907-1.141,3.934,3.934,0,0,0-1.105.978,4.046,4.046,0,0,0-.829,1.417,2.558,2.558,0,0,0,.149,2.027,2.289,2.289,0,0,0,1.715,1.113,3.388,3.388,0,0,0,1.616-.347,2.7,2.7,0,0,0,.9-.645C603.169,459.223,603.2,459.088,603.176,459.081Z" transform="translate(-554.578 -397.102)" fill="#455a64"/>
      <path id="Path_59508" data-name="Path 59508" d="M595.97,457.534a4.605,4.605,0,0,0,0,.56,2.75,2.75,0,0,1-.39,1.417,2.565,2.565,0,0,1-1.694,1.233,3.026,3.026,0,0,1-2.487-.574,3.444,3.444,0,0,1-1.219-2.3,3.8,3.8,0,0,1,.411-2.126,6.86,6.86,0,0,1,1.29-1.609,1.879,1.879,0,0,0-.5.291,4.146,4.146,0,0,0-1.02,1.2,3.862,3.862,0,0,0-.524,2.282,3.7,3.7,0,0,0,1.325,2.544,3.338,3.338,0,0,0,2.834.624,2.771,2.771,0,0,0,1.842-1.417,2.629,2.629,0,0,0,.3-1.545,1.106,1.106,0,0,0-.177-.581Z" transform="translate(-541.42 -396.88)" fill="#455a64"/>
      <path id="Path_59509" data-name="Path 59509" d="M639.759,409.325s-7.844,8.638-17.574,7.547-17.241-10.53-17.241-10.53c-1.5-2.374-.879-4.826-.411-6.64s1.361-3.543,1.368-5.428a16.492,16.492,0,0,0-1.091-4.656,43.7,43.7,0,0,1-1.346-10.629c-.064-1.538,0-3.366,1.318-4.188a2.948,2.948,0,0,1,2.742-.05,8.162,8.162,0,0,1,2.268,1.708,96.791,96.791,0,0,1,8.241,8.971,10.714,10.714,0,0,1,13.294,1.07c4.16-1.743,5.534-7.575,9.793-9.07a3.061,3.061,0,0,1,2.834.206c1.042.78,1.1,2.282,1.056,3.579-.177,5.832-.39,11.834-2.764,17.163a11.515,11.515,0,0,1-2.253,10.474" transform="translate(-599.927 -373.657)" fill="#263238"/>
      <path id="Path_59510" data-name="Path 59510" d="M636.5,424.7a3.912,3.912,0,0,0-4.833-1.375,1.312,1.312,0,0,0-.546.39.56.56,0,0,0-.05.631.482.482,0,0,1,.709,0,1.141,1.141,0,0,1,.248.772,2.664,2.664,0,0,0,.092.822,1.013,1.013,0,0,0,.709.609,1,1,0,0,0,.9-.3,3.167,3.167,0,0,0,.425-.758.971.971,0,0,1,.617-.574,1.354,1.354,0,0,1,.709.149.9.9,0,0,0,.673.064c.213-.1.312-.432.12-.56" transform="translate(-610.935 -387.804)" fill="#455a64"/>
      <path id="Path_59511" data-name="Path 59511" d="M639.453,426.93c-.057,0-.043.312-.156.772a2.835,2.835,0,0,1-2.587,2.19c-.475.035-.779-.035-.794,0s.269.206.794.241a2.792,2.792,0,0,0,1.9-.645,2.735,2.735,0,0,0,.943-1.764C639.609,427.228,639.509,426.923,639.453,426.93Z" transform="translate(-617.485 -388.952)" fill="#455a64"/>
      <path id="Path_59512" data-name="Path 59512" d="M630.962,426.28a1.489,1.489,0,0,0-.262.957,2.905,2.905,0,0,0,3.2,2.99c.631-.064.957-.3.935-.333s-.368.078-.942.071a2.834,2.834,0,0,1-2.927-2.735C630.913,426.656,631.026,426.294,630.962,426.28Z" transform="translate(-609.052 -388.763)" fill="#455a64"/>
      <path id="Path_59513" data-name="Path 59513" d="M642.45,430.077A18.786,18.786,0,0,1,653,428.759a4.962,4.962,0,0,0-1.545-.418,13.911,13.911,0,0,0-7.611.942,4.827,4.827,0,0,0-1.4.794Z" transform="translate(-635.548 -389.314)" fill="#455a64"/>
      <path id="Path_59514" data-name="Path 59514" d="M641.3,427.6c0,.057.893-.163,2.317-.411A34.779,34.779,0,0,1,654.856,427c1.417.206,2.31.39,2.324.333a2.209,2.209,0,0,0-.6-.206c-.39-.12-.964-.248-1.679-.39a28.77,28.77,0,0,0-11.338.191c-.709.163-1.283.319-1.672.446A2.163,2.163,0,0,0,641.3,427.6Z" transform="translate(-638.912 -388.758)" fill="#455a64"/>
      <path id="Path_59515" data-name="Path 59515" d="M641.22,420.941c0,.057,1.077,0,2.834,0a36.943,36.943,0,0,1,6.682.553,23.776,23.776,0,0,1,6.378,2.076c1.538.772,2.4,1.417,2.431,1.361a2.833,2.833,0,0,0-.574-.489,16.441,16.441,0,0,0-1.736-1.105,21.725,21.725,0,0,0-6.378-2.211,31.7,31.7,0,0,0-6.76-.446,18.212,18.212,0,0,0-2.041.135,3.409,3.409,0,0,0-.836.128Z" transform="translate(-641.22 -387.123)" fill="#455a64"/>
      <path id="Path_59516" data-name="Path 59516" d="M623.381,435.067a4.034,4.034,0,0,0-.418-.411,13.719,13.719,0,0,0-1.261-.957,19.665,19.665,0,0,0-9.8-3.309,13.088,13.088,0,0,0-1.58,0,1.954,1.954,0,0,0-.581.071c0,.064.822.064,2.126.191a22.954,22.954,0,0,1,9.68,3.274C622.687,434.578,623.339,435.067,623.381,435.067Z" transform="translate(-582.748 -389.953)" fill="#455a64"/>
      <path id="Path_59517" data-name="Path 59517" d="M623.937,430.509a3.537,3.537,0,0,0-.539-.283c-.354-.156-.879-.361-1.538-.588a25.707,25.707,0,0,0-10.75-1.155c-.709.078-1.247.163-1.623.241a2.042,2.042,0,0,0-.588.163c0,.057.857-.057,2.239-.149a32.851,32.851,0,0,1,5.364.113,32.514,32.514,0,0,1,5.272,1.035,22.236,22.236,0,0,0,2.161.624Z" transform="translate(-582.709 -389.363)" fill="#455a64"/>
      <path id="Path_59518" data-name="Path 59518" d="M622.02,428.158a3.379,3.379,0,0,0-.709-.34,20.344,20.344,0,0,0-2.09-.709,30.1,30.1,0,0,0-14.406-.5,21.659,21.659,0,0,0-2.126.553,2.993,2.993,0,0,0-.758.283c0,.064,1.12-.255,2.941-.581a34.079,34.079,0,0,1,14.265.546C620.921,427.825,621.97,428.215,622.02,428.158Z" transform="translate(-575.853 -388.67)" fill="#455a64"/>
      <path id="Path_59519" data-name="Path 59519" d="M617.92,414.543a2.445,2.445,0,0,0,1.091.779,4.847,4.847,0,0,0,5.9-1.531,2.467,2.467,0,0,0,.574-1.212c-.057,0-.262.446-.779,1.049a5,5,0,0,1-5.591,1.453C618.338,414.805,617.956,414.493,617.92,414.543Z" transform="translate(-590.645 -384.771)" fill="#455a64"/>
      <path id="Path_59520" data-name="Path 59520" d="M641.611,410.55a1.885,1.885,0,0,0,.12,1.283,3.926,3.926,0,0,0,2.161,2.211,7.562,7.562,0,0,0,3.047.56,4.134,4.134,0,0,0,1.268-.1,4.619,4.619,0,0,0-1.261-.163,8.979,8.979,0,0,1-2.9-.631,4.025,4.025,0,0,1-2.076-1.977,11.275,11.275,0,0,1-.361-1.183Z" transform="translate(-630.117 -384.179)" fill="#455a64"/>
      <path id="Path_59521" data-name="Path 59521" d="M606.781,391.814a7.691,7.691,0,0,1-1.183-1.5,3.365,3.365,0,0,1-.439-1.963,4.251,4.251,0,0,1,.9-1.927,18.531,18.531,0,0,1,3.89-3.947s1.12-.85,1.623,0c.34.567.128,9.871-1.169,10.466S606.781,391.814,606.781,391.814Z" transform="translate(-567.828 -375.889)" fill="#372c51"/>
      <path id="Path_59522" data-name="Path 59522" d="M651.382,376.967c2.069,1.623,2.835,4.415,4.415,6.541a6.248,6.248,0,0,1,.709,1.212,2.027,2.027,0,0,1,.121,1.382,2.657,2.657,0,0,1-.893,1.148,10.63,10.63,0,0,1-2.742,1.665s-2.126.659-2.714-1.29S649.993,375.9,651.382,376.967Z" transform="translate(-644.586 -374.371)" fill="#372c51"/>
      <path id="Path_59523" data-name="Path 59523" d="M531.019,416.1c2.494.383,8.256-.574,9.921-2.31s1.212-4.457.3-6.8a56.385,56.385,0,0,0-3.543-6.682,27.012,27.012,0,0,1-3.586-12,15.706,15.706,0,0,1,4.252-11.544c3-2.976,7.689-4.316,11.621-2.792,3.231,1.254,5.733,4.96,4.486,8.22-.787,2.027-2.749,3.309-4.131,4.96a10.233,10.233,0,0,0-2.041,8.638c.709,3.253,3.04,5.952,3.912,9.17,1.325,4.9-1.077,10.346-5.13,13.421s-9.425,3.99-14.47,3.394" transform="translate(-458.378 -373.336)" fill="#263238"/>
      <path id="Path_59524" data-name="Path 59524" d="M633.541,430.812s-.3,1.9.347,2.672a1.609,1.609,0,0,0,2.792-.3,4.323,4.323,0,0,0,.454-1.942s-1.687-.609-1.927-1.594a2.7,2.7,0,0,1-1.665,1.162Z" transform="translate(-613.317 -389.745)" fill="#efa00b"/>
      <path id="Path_59525" data-name="Path 59525" d="M623.51,432.379a3.386,3.386,0,0,0,.553.624,12.746,12.746,0,0,0,1.757,1.417,14.378,14.378,0,0,0,14.321,1.155,13.464,13.464,0,0,0,1.963-1.141,3.854,3.854,0,0,0,.645-.524c-.043-.064-.978.673-2.714,1.417a14.881,14.881,0,0,1-14.073-1.091C624.367,433.2,623.56,432.322,623.51,432.379Z" transform="translate(-611.874 -390.539)" fill="#455a64"/>
      <path id="Path_59526" data-name="Path 59526" d="M631.939,450.39c0,.057.489.319,1.134.964a5.478,5.478,0,0,1,1.013,6.491c-.418.808-.836,1.219-.787,1.261a3.026,3.026,0,0,0,1.013-1.134,5.357,5.357,0,0,0-1.063-6.81,2.962,2.962,0,0,0-1.311-.772Z" transform="translate(-610.184 -395.788)" fill="#455a64"/>
      <path id="Path_59527" data-name="Path 59527" d="M640.162,451.521a7.7,7.7,0,0,1,1.417.383,4.337,4.337,0,0,1,2.2,2.487,6.307,6.307,0,0,1,.05,3.4c-.213.865-.453,1.417-.4,1.417a3.435,3.435,0,0,0,.645-1.332,5.8,5.8,0,0,0,.05-3.593,4.252,4.252,0,0,0-2.445-2.608,2.176,2.176,0,0,0-1.516-.156Z" transform="translate(-625.309 -396.097)" fill="#455a64"/>
      <path id="Path_59528" data-name="Path 59528" d="M610.5,445.079a3.336,3.336,0,0,0,.581,1.013,11.774,11.774,0,0,0,1.9,2.126,9.426,9.426,0,0,0,2.416,1.488,3.082,3.082,0,0,0,1.127.333,25.635,25.635,0,0,1-3.309-2.126C611.561,446.5,610.6,445.023,610.5,445.079Z" transform="translate(-576.427 -394.24)" fill="#455a64"/>
      <path id="Path_59529" data-name="Path 59529" d="M546.42,415a2.34,2.34,0,0,0,.4.312c.269.2.709.468,1.219.808a42.253,42.253,0,0,0,4.734,2.523,71.717,71.717,0,0,0,7.419,2.87c2.834.928,6.009,1.807,9.276,2.891a54.566,54.566,0,0,1,8.943,3.713,30.382,30.382,0,0,1,6.42,4.571,22.906,22.906,0,0,1,3.43,4.06c.709,1.056.992,1.687,1.028,1.665a2.306,2.306,0,0,0-.206-.461,13.344,13.344,0,0,0-.709-1.283A21.263,21.263,0,0,0,585,432.5a29.675,29.675,0,0,0-6.434-4.677,52.926,52.926,0,0,0-8.985-3.763c-3.281-1.091-6.456-1.956-9.3-2.87a75.92,75.92,0,0,1-7.412-2.785,50.8,50.8,0,0,1-4.769-2.4c-.546-.319-.964-.574-1.247-.751A3.242,3.242,0,0,0,546.42,415Z" transform="translate(-503.789 -385.476)" fill="#455a64"/>
      <path id="Path_59530" data-name="Path 59530" d="M607.325,419.591a4.9,4.9,0,0,0,1.105-1.254,12.756,12.756,0,0,0,1.779-3.635,13.032,13.032,0,0,0,.567-4,5.182,5.182,0,0,0-.205-1.658,20.83,20.83,0,0,1-.709,5.556A20.583,20.583,0,0,1,607.325,419.591Z" transform="translate(-568.435 -383.739)" fill="#455a64"/>
    </g>
    <g id="freepik--Device--inject-4" transform="translate(202.171 204.407)">
      <path id="Path_59531" data-name="Path 59531" d="M329.186,429.171,352.7,370.149a7.717,7.717,0,0,0-7.143-10.629H272.312a7.716,7.716,0,0,0-7.305,5.235l-20.2,59.526-23.59.113c-1.913,0-3.465,2.835-3.465,4.727h0l25.964-.3Z" transform="translate(-217.755 -359.52)" fill="#263238"/>
      <path id="Path_59532" data-name="Path 59532" d="M249.082,378.747a8.191,8.191,0,0,1,4.734,1.268,6.163,6.163,0,0,1,1.29,1.07,9.255,9.255,0,0,1,2.6,8.433c-.893,4.28-3.649,4.868-4.96,5.01s-10.289-2.416-10.289-2.416-3.26-2.771-2.126-6.413C241.372,382.574,244.263,378.924,249.082,378.747Z" transform="translate(-138.224 -365.12)" fill="#efa00b"/>
      <path id="Path_59533" data-name="Path 59533" d="M257.438,397.719s-.326,2.289-1.474,2.835a8.647,8.647,0,0,1-4.96.064c-1.672-.411-4.082-1.346-4.365-2.615a5.336,5.336,0,0,1,.142-2.983,7.476,7.476,0,0,1,6.037-.56A7.979,7.979,0,0,1,257.438,397.719Z" transform="translate(-142.286 -369.586)" fill="#f5f5f5"/>
      <g id="Group_18664" data-name="Group 18664" transform="translate(107.73 13.944)" opacity="0.4">
        <path id="Path_59534" data-name="Path 59534" d="M244.931,382.459a4.308,4.308,0,1,0,5.23-3.132A4.308,4.308,0,0,0,244.931,382.459Z" transform="translate(-244.801 -379.197)" fill="#fff"/>
      </g>
      <g id="Group_18665" data-name="Group 18665" transform="translate(117.509 19.473)" opacity="0.4">
        <path id="Path_59535" data-name="Path 59535" d="M241.392,394.086a5.527,5.527,0,0,1-1.226-3.657,5.386,5.386,0,0,1,1.6-3.43,10.573,10.573,0,0,1,.468,4.358,7.873,7.873,0,0,1-.843,2.728Z" transform="translate(-240.163 -387)" fill="#fff"/>
      </g>
      <g id="Group_18666" data-name="Group 18666" transform="translate(101.871 16.093)" opacity="0.4">
        <path id="Path_59536" data-name="Path 59536" d="M260.567,388.48a5.478,5.478,0,0,0,2.8-2.643,4.868,4.868,0,0,0,.276-3.607,11.969,11.969,0,0,0-2.445,3.437A5.178,5.178,0,0,0,260.567,388.48Z" transform="translate(-260.545 -382.23)" fill="#fff"/>
      </g>
      <path id="Path_59537" data-name="Path 59537" d="M286.08,410.135a4.762,4.762,0,1,0,4.762-4.755,4.762,4.762,0,0,0-4.762,4.755Z" transform="translate(-208.507 -372.882)" fill="#f5f5f5"/>
    </g>
    <g id="freepik--Desk--inject-4" transform="translate(0 273.526)">
      <path id="Path_59538" data-name="Path 59538" d="M80.29,457.244c0,.1,97.408.184,217.548.184s217.548-.085,217.548-.184S418,457.06,297.838,457.06,80.29,457.138,80.29,457.244Z" transform="translate(-80.29 -457.06)" fill="#263238"/>
    </g>
    <g id="freepik--Plant--inject-4" transform="translate(337.018 202.259)">
      <path id="Path_59539" data-name="Path 59539" d="M187.815,404.708c6.93-4.018,10.629-13.365,10.913-21.018s-2.905-15.625-9.212-20.012c-6.6-4.62-16.015-4.535-22.8-.191A23.732,23.732,0,0,0,156.253,384.1a27.447,27.447,0,0,0,11.189,20.55" transform="translate(-154.484 -357.577)" fill="#efa00b"/>
      <path id="Path_59540" data-name="Path 59540" d="M184.69,405.708a8.908,8.908,0,0,0,.128-1.75c.035-1.254.085-2.835.135-4.769.106-4.032.262-9.595.531-15.732s.6-11.7.857-15.717c.113-1.92.205-3.543.283-4.769a8.5,8.5,0,0,0,0-1.75,9.048,9.048,0,0,0-.276,1.729c-.135,1.12-.3,2.742-.489,4.755-.368,4.011-.772,9.574-1.042,15.724s-.354,11.721-.34,15.753c0,2.013,0,3.649.071,4.776A9.377,9.377,0,0,0,184.69,405.708Z" transform="translate(-162.421 -357.868)" fill="#fff"/>
      <path id="Path_59541" data-name="Path 59541" d="M152.26,390.64c0,.177,1.12.234,2.466.12s2.431-.347,2.416-.524-1.12-.234-2.466-.12S152.246,390.463,152.26,390.64Z" transform="translate(-110.064 -366.27)" fill="#263238"/>
      <path id="Path_59542" data-name="Path 59542" d="M154.058,380.442c.078.163,1.028-.1,2.126-.588s1.935-1.02,1.864-1.183-1.028.1-2.126.588S153.987,380.307,154.058,380.442Z" transform="translate(-112.245 -362.938)" fill="#263238"/>
      <path id="Path_59543" data-name="Path 59543" d="M159.067,372.649c.092.149,1.162-.354,2.282-1.276s1.807-1.885,1.679-2-1.013.6-2.126,1.5S158.968,372.5,159.067,372.649Z" transform="translate(-120.782 -360.24)" fill="#263238"/>
      <path id="Path_59544" data-name="Path 59544" d="M167.264,365.636c.163.071.709-.709,1.148-1.793s.709-1.984.553-2.055-.709.709-1.148,1.793S167.1,365.565,167.264,365.636Z" transform="translate(-132.53 -358.032)" fill="#263238"/>
      <path id="Path_59545" data-name="Path 59545" d="M175.605,360.685c.163.071.709-.779,1.084-1.963s.4-2.2.227-2.232-.489.9-.85,2.034S175.442,360.607,175.605,360.685Z" transform="translate(-146.448 -356.489)" fill="#263238"/>
      <path id="Path_59546" data-name="Path 59546" d="M189.139,357c-.17.064-.064.794.234,1.63s.709,1.474.843,1.417.064-.794-.234-1.63S189.309,356.927,189.139,357Z" transform="translate(-169.279 -356.636)" fill="#263238"/>
      <path id="Path_59547" data-name="Path 59547" d="M197.007,361.152c-.12.135.319.709.985,1.353s1.311,1.013,1.417.886-.319-.744-.985-1.361S197.127,361.038,197.007,361.152Z" transform="translate(-184.042 -357.842)" fill="#263238"/>
      <path id="Path_59548" data-name="Path 59548" d="M205.075,366.675c-.1.149.439.709,1.2,1.212s1.474.815,1.573.666-.439-.709-1.2-1.2S205.2,366.526,205.075,366.675Z" transform="translate(-198.204 -359.447)" fill="#263238"/>
      <path id="Path_59549" data-name="Path 59549" d="M209.372,374.921c-.071.17.779.709,1.9,1.162s2.083.709,2.126.567-.78-.709-1.9-1.162S209.407,374.758,209.372,374.921Z" transform="translate(-206.788 -361.846)" fill="#263238"/>
      <path id="Path_59550" data-name="Path 59550" d="M211.879,383.874c0,.177.843.432,1.935.567s1.991.1,2.013-.078-.843-.432-1.935-.567S211.9,383.7,211.879,383.874Z" transform="translate(-210.996 -364.422)" fill="#263238"/>
      <path id="Path_59551" data-name="Path 59551" d="M213.248,394.288c.071.163.992-.078,2.055-.546s1.871-.971,1.8-1.134-.992.078-2.055.539S213.177,394.133,213.248,394.288Z" transform="translate(-213.244 -366.999)" fill="#263238"/>
      <path id="Path_59552" data-name="Path 59552" d="M211.572,403.369c.057.163,1.226-.113,2.445-.914s1.942-1.75,1.814-1.871-1.02.581-2.168,1.325S211.509,403.192,211.572,403.369Z" transform="translate(-210.796 -369.333)" fill="#263238"/>
      <path id="Path_59553" data-name="Path 59553" d="M208.184,411.774c.106.142,1.035-.4,1.927-1.368s1.368-1.92,1.219-2.02-.843.659-1.694,1.58S208.07,411.653,208.184,411.774Z" transform="translate(-203.899 -371.608)" fill="#263238"/>
      <path id="Path_59554" data-name="Path 59554" d="M159.1,414.179c-.085.156.893.829,2.175,1.5s2.4,1.084,2.473.921-.886-.829-2.175-1.5A6,6,0,0,0,159.1,414.179Z" transform="translate(-121.516 -373.291)" fill="#263238"/>
      <path id="Path_59555" data-name="Path 59555" d="M156.068,406.341c-.071.163.709.709,1.743,1.148s1.942.709,2.013.56-.709-.709-1.743-1.148S156.146,406.178,156.068,406.341Z" transform="translate(-115.445 -371.001)" fill="#263238"/>
      <path id="Path_59556" data-name="Path 59556" d="M152.049,399.376c0,.177.935.461,2.126.631s2.211.17,2.239,0-.942-.461-2.126-.631S152.07,399.2,152.049,399.376Z" transform="translate(-109.187 -368.947)" fill="#263238"/>
      <path id="Path_59557" data-name="Path 59557" d="M162.392,395.576c-.057.17.886.6,2.126.744s2.261-.078,2.246-.248-.985-.262-2.175-.4S162.442,395.4,162.392,395.576Z" transform="translate(-126.864 -367.854)" fill="#263238"/>
      <path id="Path_59558" data-name="Path 59558" d="M172.232,387.016c-.05.163.709.546,1.7.638s1.814-.12,1.793-.3-.794-.255-1.729-.347S172.288,386.839,172.232,387.016Z" transform="translate(-142.798 -365.353)" fill="#263238"/>
      <path id="Path_59559" data-name="Path 59559" d="M174.008,379.685c.057.17.865.05,1.807-.276s1.651-.709,1.587-.893-.865-.05-1.8.276S173.951,379.543,174.008,379.685Z" transform="translate(-145.736 -362.883)" fill="#263238"/>
      <path id="Path_59560" data-name="Path 59560" d="M180.01,372.3c.12.128.709-.241,1.07-.928s.439-1.353.269-1.417-.475.461-.829,1.07S179.911,372.183,180.01,372.3Z" transform="translate(-154.006 -360.412)" fill="#263238"/>
      <path id="Path_59561" data-name="Path 59561" d="M173.912,401.6c-.043.177.652.5,1.559.709a6.046,6.046,0,0,0,1.311.191l.135-.383c-.241-.043-.39,0-.418.043s.064.184.255.326l.128-.376a5.736,5.736,0,0,0-1.254-.432C174.727,401.461,173.954,401.426,173.912,401.6Z" transform="translate(-145.18 -369.601)" fill="#263238"/>
      <path id="Path_59562" data-name="Path 59562" d="M173.969,413.769c-.071.17.822.673,1.991,1.134s2.161.709,2.225.524-.822-.673-1.991-1.127S174.033,413.606,173.969,413.769Z" transform="translate(-146.492 -373.164)" fill="#263238"/>
      <path id="Path_59563" data-name="Path 59563" d="M166.169,408.363c-.057.17.531.524,1.325.794s1.481.347,1.538.177-.539-.524-1.325-.794S166.225,408.193,166.169,408.363Z" transform="translate(-131.81 -371.578)" fill="#263238"/>
      <path id="Path_59564" data-name="Path 59564" d="M164.973,383.032c.043.17,1.077.071,2.275-.361s2.069-.992,1.991-1.148-1.042.128-2.2.539S164.973,382.854,164.973,383.032Z" transform="translate(-131.174 -363.77)" fill="#263238"/>
      <path id="Path_59565" data-name="Path 59565" d="M190.277,380.983c-.1.149.489.709,1.3,1.247s1.566.857,1.658.709-.482-.709-1.3-1.247S190.376,380.82,190.277,380.983Z" transform="translate(-173.103 -363.614)" fill="#263238"/>
      <path id="Path_59566" data-name="Path 59566" d="M191.679,393.128c-.043.177.574.454,1.368.617s1.46.156,1.5,0-.581-.453-1.375-.617S191.715,392.95,191.679,393.128Z" transform="translate(-175.405 -367.127)" fill="#263238"/>
      <path id="Path_59567" data-name="Path 59567" d="M192.038,406.18c.078.163.957-.085,1.97-.56s1.779-.978,1.7-1.141-.957.085-1.97.553S191.96,406.017,192.038,406.18Z" transform="translate(-176.819 -370.458)" fill="#263238"/>
      <path id="Path_59568" data-name="Path 59568" d="M191.158,419.214c.142.113.709-.354,1.283-1.042s.914-1.346.78-1.46-.709.354-1.283,1.042S191.023,419.1,191.158,419.214Z" transform="translate(-173.714 -374.032)" fill="#263238"/>
      <path id="Path_59569" data-name="Path 59569" d="M190.315,371.98c-.113.135.269.609.914.935s1.254.347,1.3.177-.425-.461-1.013-.758S190.421,371.831,190.315,371.98Z" transform="translate(-172.411 -360.988)" fill="#263238"/>
      <path id="Path_59570" data-name="Path 59570" d="M199.943,384.262c-.057.163.709.581,1.729.709s1.871-.05,1.857-.22-.808-.283-1.764-.425S200.035,384.092,199.943,384.262Z" transform="translate(-190.237 -364.555)" fill="#263238"/>
      <path id="Path_59571" data-name="Path 59571" d="M197.375,373.235c-.078.156.673.709,1.736,1.028s1.991.34,2.012.17-.8-.461-1.814-.787S197.46,373.051,197.375,373.235Z" transform="translate(-186.011 -361.351)" fill="#263238"/>
      <path id="Path_59572" data-name="Path 59572" d="M199.717,400.978c0,.177,1.283.291,2.835,0s2.707-.836,2.65-1a9.158,9.158,0,0,0-2.764.354C200.95,400.6,199.71,400.794,199.717,400.978Z" transform="translate(-191.755 -369.146)" fill="#263238"/>
      <path id="Path_59573" data-name="Path 59573" d="M198.441,416.065c.106.142,1.049-.411,1.991-1.361s1.5-1.892,1.353-2-.9.624-1.814,1.538S198.327,415.923,198.441,416.065Z" transform="translate(-187.445 -372.866)" fill="#263238"/>
      <path id="Path_59574" data-name="Path 59574" d="M165.25,360.2a28.623,28.623,0,0,1,5.669,4.5,27.778,27.778,0,0,1,7.086,15.675,35.254,35.254,0,0,1-.425,9.6,74.825,74.825,0,0,1-1.8,7.7c-.624,2.168-1.2,3.912-1.58,5.116a12.4,12.4,0,0,0-.546,1.892,10.9,10.9,0,0,0,.787-1.807c.454-1.183,1.1-2.905,1.779-5.067a64.837,64.837,0,0,0,1.949-7.738,34.41,34.41,0,0,0,.482-9.779,27.235,27.235,0,0,0-7.405-15.916,20.443,20.443,0,0,0-4.252-3.323,13.2,13.2,0,0,0-1.3-.709A1.4,1.4,0,0,0,165.25,360.2Z" transform="translate(-140.926 -357.569)" fill="#fff"/>
      <path id="Path_59575" data-name="Path 59575" d="M189.3,405.2a71.712,71.712,0,0,1-2.92-6.98,39.385,39.385,0,0,1-1.743-17.928,33.61,33.61,0,0,1,2.764-9.566,22.541,22.541,0,0,1,4.712-6.562,17.142,17.142,0,0,1,4.62-2.92c1.2-.5,1.92-.624,1.913-.709a1.524,1.524,0,0,0-.531.035,10.114,10.114,0,0,0-1.474.4,16.143,16.143,0,0,0-4.833,2.835,22.188,22.188,0,0,0-4.96,6.654,33.079,33.079,0,0,0-2.834,9.729,38.046,38.046,0,0,0,1.956,18.176c.361,1.12.836,2.076,1.19,2.948a17.192,17.192,0,0,0,1.077,2.126A11.613,11.613,0,0,0,189.3,405.2Z" transform="translate(-173.831 -357.666)" fill="#fff"/>
      <path id="Path_59576" data-name="Path 59576" d="M197.382,421.4H161.59l-.22,7.164h36.012Z" transform="translate(-156.76 -375.402)" fill="#263238"/>
      <path id="Path_59577" data-name="Path 59577" d="M195.989,426.45l-2.055,21.875h-26.17l-2.1-21.634Z" transform="translate(-158.406 -376.874)" fill="#263238"/>
      <path id="Path_59578" data-name="Path 59578" d="M161.38,431.5c0,.177,8.057.326,18,.326s18.006-.149,18.006-.326-8.057-.326-18.006-.326S161.38,431.319,161.38,431.5Z" transform="translate(-156.77 -378.249)" fill="#455a64"/>
      <path id="Path_59579" data-name="Path 59579" d="M168.1,440.132a5.357,5.357,0,0,0,.751,1.417,20.591,20.591,0,0,0,2.778,3.281l.163.156.163-.17a51.98,51.98,0,0,1,7.015-6.144h-.4l3.111,2.728,3.678,3.2.205.177.206-.177,5.974-5.024-.347-.035,3.09,3.77a8.5,8.5,0,0,0,1.219,1.332,9.779,9.779,0,0,0-1-1.5l-2.927-3.912-.149-.2-.2.163-6.066,4.918h.4l-3.657-3.217-3.125-2.721-.191-.163-.206.149a46.187,46.187,0,0,0-6.98,6.335h.326a37.044,37.044,0,0,1-3.841-4.372Z" transform="translate(-159.854 -380.245)" fill="#455a64"/>
    </g>
  </g>
</svg>
