<svg id="Group_18667" data-name="Group 18667" xmlns="http://www.w3.org/2000/svg" width="120.048" height="237.819" viewBox="0 0 120.048 237.819">
  <g id="freepik--background-complete--inject-228" transform="translate(0 0)">
    <path id="Path_59157" data-name="Path 59157" d="M101.285,95.5A13.858,13.858,0,0,0,90.6,97.446a24.329,24.329,0,0,0-7.578,8.072c-3.794,6.123-5.075,14.317-5.2,21.514,7.994-.4,14.724-6.747,18-10.177,5.127-5.439,11.017-18.37,5.465-21.358" transform="translate(-18.425 -95.156)" fill="#f5f5f5"/>
    <path id="Path_59158" data-name="Path 59158" d="M129.1,134.152a11.831,11.831,0,0,0,3.967-11.207,15.746,15.746,0,0,0-6.86-10.021c-1.6-1.065-3.568-1.914-5.413-1.351a5.075,5.075,0,0,0-3.239,3.975,10.393,10.393,0,0,0,.667,5.292c2.079,5.8,5.145,11.043,10.878,13.312" transform="translate(-82.506 -97.33)" fill="#f5f5f5"/>
    <path id="Path_59159" data-name="Path 59159" d="M121.909,153.026a23.54,23.54,0,0,0,2.261-4.192,21.652,21.652,0,0,0,1.594-4.954,48.069,48.069,0,0,0,1.031-6.253,23.835,23.835,0,0,0-1.8-11.372,17.522,17.522,0,0,0-1.732-3.031,5.173,5.173,0,0,0-.866-.944,24.17,24.17,0,0,1,3.646,15.287,56.206,56.206,0,0,1-.918,6.184,24.321,24.321,0,0,1-1.386,4.876A27.484,27.484,0,0,0,121.909,153.026Z" transform="translate(-79.955 -98.787)" fill="#e0e0e0"/>
    <path id="Path_59160" data-name="Path 59160" d="M124.669,106.45a13.459,13.459,0,0,0-1.68,1.732c-1.031,1.152-2.512,2.841-4.331,4.937-3.612,4.2-8.54,10.055-13.858,16.647s-9.9,12.714-13.1,17.2c-1.62,2.252-2.91,4.079-3.776,5.361a14.169,14.169,0,0,0-1.29,2.044,14.352,14.352,0,0,0,1.542-1.853l3.984-5.2c3.36-4.4,8.037-10.445,13.321-17.036l13.633-16.8,4.123-5.093A15.19,15.19,0,0,0,124.669,106.45Z" transform="translate(-47.196 -96.668)" fill="#e0e0e0"/>
    <path id="Path_59161" data-name="Path 59161" d="M82.179,145.912a27.715,27.715,0,0,1,25.117-3.17c2.1.779,4.331,2.243,4.434,4.478s-2.131,3.828-4.2,4.694A23.653,23.653,0,0,1,81.876,146.4" transform="translate(-30.144 -106.542)" fill="#f5f5f5"/>
    <path id="Path_59162" data-name="Path 59162" d="M122.112,146.734a4.036,4.036,0,0,0-1.2-.416c-.779-.217-1.931-.468-3.36-.736a31.422,31.422,0,0,0-11.389-.1,19.643,19.643,0,0,0-5.907,2.261,18.942,18.942,0,0,0-6.167,5.95,3.966,3.966,0,0,0-.615,1.109c.13.1,1.117-1.42,3.161-3.464a19.236,19.236,0,0,1,9.692-5.11,35.242,35.242,0,0,1,11.138-.13C120.319,146.474,122.086,146.821,122.112,146.734Z" transform="translate(-50.563 -107.446)" fill="#e0e0e0"/>
    <path id="Path_59163" data-name="Path 59163" d="M77.79,322.818c-25.827-12.541-35.9-41.842-39.287-69.081-.572-4.547-1.827-9.233-.3-13.546s6.106-7.795,10.463-6.556c3.6,1.039,5.69,4.72,8.081,7.648a26.85,26.85,0,0,0,12.221,8.445c3.118,1.031,6.825,1.377,9.423-.641,3.56-2.772,3.161-8.237,2.416-12.732l-4.157-25.117c-.745-4.5-1.49-9.085-.771-13.581s3.179-8.947,7.267-10.826,9.77-.251,11.372,4c.676,1.776.6,3.733,1.022,5.586s1.62,3.768,3.464,4.01,3.464-1.316,4.608-2.849c3.915-5.283,6.141-11.632,8.159-17.92s3.923-12.7,7.353-18.318,8.661-10.48,15.01-11.874,13.858,1.5,16.508,7.561,0,13.1-3.239,18.881a101.638,101.638,0,0,1-17.738,23.246c-1.256,1.239-2.6,2.6-2.893,4.331-.5,3.153,2.815,5.682,5.933,6.193,3.525.58,7.111-.346,10.688-.485s7.613.8,9.467,3.9c2.6,4.331-.5,9.735-3.785,13.494a86.949,86.949,0,0,1-23.1,18.734c-3.109,1.732-6.426,3.352-8.722,6.106s-3.265,7.05-1.152,9.96,6.418,3.265,9.778,2.07,6.167-3.577,9.276-5.309c5.8-3.317,13.858-4.166,18.665.546,3.161,3.1,4.166,7.951,3.516,12.351s-2.746,8.419-5.049,12.195c-8.055,13.2-19.245,24.58-32.8,31.829s-26.615,10.722-41.694,7.795" transform="translate(-37.473 -129.959)" fill="#ebebeb"/>
    <path id="Path_59164" data-name="Path 59164" d="M54.68,324.684c-.728-10.887-1.213-5.24.624-19.539a412.524,412.524,0,0,1,9.094-45.9L67.4,247.314c1-3.906,1.975-7.795,3.179-11.519A203.033,203.033,0,0,1,78.7,214.74c2.9-6.574,5.9-12.706,8.748-18.413s5.6-11.008,8.341-15.7a162.083,162.083,0,0,1,14.49-21.185c1.9-2.356,3.464-4.131,4.486-5.327l1.213-1.351a2.97,2.97,0,0,1,.433-.442,3.3,3.3,0,0,1-.372.5c-.286.346-.667.805-1.143,1.4-1.013,1.221-2.5,3.04-4.331,5.422a171.49,171.49,0,0,0-14.23,21.28c-2.685,4.7-5.4,9.978-8.237,15.685s-5.777,11.857-8.661,18.422a203.977,203.977,0,0,0-8.037,21.02c-1.187,3.716-2.157,7.561-3.153,11.485s-1.983,7.89-3,11.909A419.008,419.008,0,0,0,56.1,305.283c-1.853,14.256-1.446,8.548-.8,19.4" transform="translate(-10.7 -130.387)" fill="#e0e0e0"/>
    <path id="Path_59165" data-name="Path 59165" d="M121.153,241.1a9.761,9.761,0,0,1-.745-1.853c-.433-1.2-1-2.962-1.672-5.153-1.351-4.382-3.005-10.489-4.807-17.227s-3.542-12.818-4.954-17.158c-.693-2.174-1.282-3.932-1.732-5.136a9.025,9.025,0,0,1-.563-1.914,9.526,9.526,0,0,1,.866,1.793c.511,1.178,1.187,2.9,1.957,5.067,1.559,4.331,3.4,10.393,5.2,17.123s3.352,12.68,4.573,17.322c.554,2.07,1.031,3.82,1.412,5.2a8.28,8.28,0,0,1,.468,1.94Z" transform="translate(-61.045 -121.639)" fill="#e0e0e0"/>
    <path id="Path_59166" data-name="Path 59166" d="M98,225.48a12.35,12.35,0,0,1-2.269.65c-1.455.364-3.577.866-6.175,1.611-5.2,1.42-12.325,3.62-20.076,6.4s-14.655,5.621-19.591,7.795c-2.477,1.083-4.46,2.009-5.829,2.6a12.056,12.056,0,0,1-2.174.918,12.619,12.619,0,0,1,2.027-1.213c1.334-.719,3.283-1.732,5.734-2.884,4.885-2.33,11.779-5.257,19.548-8.055a206.455,206.455,0,0,1,20.215-6.184c2.6-.65,4.772-1.091,6.262-1.36A13.157,13.157,0,0,1,98,225.48Z" transform="translate(18.218 -128.023)" fill="#e0e0e0"/>
    <path id="Path_59167" data-name="Path 59167" d="M164.872,316.709a5.374,5.374,0,0,1-.511-.641l-1.325-1.931c-1.135-1.689-2.72-4.166-4.642-7.258-3.846-6.184-8.886-14.888-14.317-24.571s-10.393-18.422-14.1-24.675c-1.819-3.031-3.309-5.534-4.417-7.388-.476-.805-.866-1.472-1.2-2.018a3.049,3.049,0,0,1-.364-.736,5.373,5.373,0,0,1,.511.641l1.386,1.931c1.143,1.689,2.728,4.166,4.651,7.258,3.82,6.2,8.86,14.862,14.291,24.571s10.393,18.422,14.1,24.675c1.819,3.031,3.309,5.534,4.417,7.388l1.187,2.018a2.935,2.935,0,0,1,.329.736Z" transform="translate(-119.765 -143.13)" fill="#e0e0e0"/>
    <path id="Path_59168" data-name="Path 59168" d="M112.637,284.7a3.075,3.075,0,0,1-.71.433l-2.079,1.1-7.795,3.975c-6.591,3.36-15.642,8.107-25.628,13.364s-19.054,9.917-25.758,13.147c-3.326,1.611-6.063,2.884-7.925,3.733l-2.183.961a3.161,3.161,0,0,1-.779.277,3.076,3.076,0,0,1,.71-.433l2.113-1.1,7.795-3.975c6.591-3.361,15.642-8.107,25.628-13.364s19.054-9.926,25.749-13.147c3.335-1.611,6.063-2.884,7.934-3.733l2.148-.979a3.162,3.162,0,0,1,.779-.26Z" transform="translate(5.413 -148.112)" fill="#e0e0e0"/>
  </g>
  <g id="freepik--Plant--inject-228" transform="translate(21.586 122.803)">
    <path id="Path_59170" data-name="Path 59170" d="M136.388,269.309s-5.976-4.036-13.442,10.281-10.324,22.588-10.324,22.588-1.966,3-4.019,1-4.833-7.6-8.367-6.626-4.9,5.067-4.261,11.06,1.559,19.176,1.637,20.362-.606,2.884-2.217,1.732-10.87-11.632-15.59-6.929-.2,21.09.26,22.891.1,2.6-.754,3.005-3.638-3.386-6.392-6.262-6.452-5.742-8.947-2.806-3.4,15.2,8.089,35.242L78,383.791l10.766-.494c22.978-2.468,32.375-10.393,33.276-14.143s-3.568-5.058-7.518-5.6-8.661-.546-8.826-1.5.26-1.689,1.992-2.373,17.66-6.652,18.682-13.225-12.9-7.9-14.776-8.548-.866-2.2.121-2.824,12.221-7.63,17.443-10.636,7.795-6.383,6.452-9.943c-1.282-3.464-7.457-2.382-10.281-2.875s-1.542-3.846-1.542-3.846,5.023-7.163,12.221-21.653.251-16.95.251-16.95" transform="translate(-62.4 -268.784)" fill="#efa00b"/>
    <path id="Path_59171" data-name="Path 59171" d="M125.16,284.18a2.6,2.6,0,0,0-.147.251l-.407.771-1.516,2.953-5.543,10.9c-4.72,9.2-11.259,21.869-18.4,35.874s-13.7,26.7-18.309,35.935c-2.287,4.608-4.131,8.349-5.422,10.956L73.965,384.8l-.372.788c-.078.173-.113.268-.113.268a2.1,2.1,0,0,0,.156-.251l.4-.762c.364-.7.866-1.732,1.516-2.962,1.325-2.6,3.213-6.305,5.543-10.9,4.642-9.2,11.2-21.878,18.413-35.865s13.693-26.711,18.275-35.943l5.456-10.956c.615-1.282,1.1-2.287,1.446-2.988.156-.329.277-.589.364-.788A1.013,1.013,0,0,0,125.16,284.18Z" transform="translate(-57.884 -270.846)" fill="#263238"/>
    <path id="Path_59172" data-name="Path 59172" d="M97.99,310.1a21.367,21.367,0,0,0,.6,2.823c.416,1.845.953,4.183,1.55,6.782s1.161,5.032,1.611,6.764c.234.866.433,1.55.589,2.027a2.6,2.6,0,0,0,.286.719,27.663,27.663,0,0,0-.589-2.823l-1.5-6.79c-.606-2.65-1.2-5.041-1.672-6.764-.243-.866-.45-1.55-.606-2.018A2.642,2.642,0,0,0,97.99,310.1Z" transform="translate(-56.576 -274.316)" fill="#263238"/>
    <path id="Path_59173" data-name="Path 59173" d="M71.59,331.48c0,.1,4.954-1.161,11-2.841s10.913-3.118,10.878-3.231-4.945,1.161-10.991,2.832S71.564,331.368,71.59,331.48Z" transform="translate(-24.555 -276.365)" fill="#263238"/>
    <path id="Path_59174" data-name="Path 59174" d="M89.72,360.151a2.971,2.971,0,0,0,.788.113c.5.052,1.239.1,2.148.147,1.819.087,4.331.147,7.119.069s5.283-.277,7.093-.468c.866-.1,1.637-.191,2.148-.268a2.849,2.849,0,0,0,.771-.165,23.5,23.5,0,0,0-2.936.139c-1.819.121-4.331.269-7.093.346s-5.275.069-7.093.052a22.887,22.887,0,0,0-2.945.035Z" transform="translate(-56.577 -280.941)" fill="#263238"/>
    <path id="Path_59175" data-name="Path 59175" d="M112.69,341.34a17.671,17.671,0,0,0,1.2,2.442c.8,1.481,1.914,3.516,3.17,5.751s2.416,4.253,3.274,5.7a17.319,17.319,0,0,0,1.464,2.3,17.667,17.667,0,0,0-1.2-2.442c-.8-1.481-1.914-3.516-3.17-5.751s-2.416-4.253-3.274-5.69A17.875,17.875,0,0,0,112.69,341.34Z" transform="translate(-88.485 -278.499)" fill="#263238"/>
    <path id="Path_59176" data-name="Path 59176" d="M126.79,364.1a3.768,3.768,0,0,0,.39.866l1.221,2.243c1.039,1.879,2.5,4.469,4.14,7.319s3.144,5.422,4.253,7.267c.52.866.97,1.585,1.325,2.183a3.838,3.838,0,0,0,.537.762,4.044,4.044,0,0,0-.39-.866l-1.221-2.243c-1.039-1.888-2.5-4.478-4.14-7.327s-3.144-5.413-4.253-7.258l-1.325-2.183a4.71,4.71,0,0,0-.537-.762Z" transform="translate(-117.552 -281.547)" fill="#263238"/>
    <path id="Path_59177" data-name="Path 59177" d="M97.63,387.038a4.029,4.029,0,0,0,1,.087c.65,0,1.585.043,2.737.052,2.3,0,5.5,0,9.016-.234s6.7-.494,8.99-.762c1.152-.13,2.079-.26,2.711-.355a4.332,4.332,0,0,0,.987-.2,5.494,5.494,0,0,0-1,0l-2.72.225c-2.3.2-5.474.45-8.982.641s-6.695.294-9,.355l-2.737.078a5.134,5.134,0,0,0-1,.113Z" transform="translate(-76.708 -284.426)" fill="#263238"/>
  </g>
</svg>
